<svg xmlns="http://www.w3.org/2000/svg" xmlns:xlink="http://www.w3.org/1999/xlink" width="782.46" height="575.161" viewBox="0 0 782.46 575.161"><defs><style>.a,.e{fill:#329ce3;}.a,.f,.x{opacity:0.1;}.b{opacity:0.9;}.c,.j{fill:#3a3768;}.d{fill:#e6e8ec;}.g{fill:#ffd037;}.h{fill:#a8a8a8;}.i{opacity:0.2;}.j{opacity:0.3;}.k{fill:#fff;}.l{fill:#514e7f;}.m{fill:#464353;}.n{fill:#a1616a;}.o{fill:#fbbebe;}.p,.t{opacity:0.05;}.q{fill:#3f3d56;}.r{fill:url(#a);}.s{fill:#2d293d;}.u{fill:#ffcdd3;}.v{fill:#dce6f2;}.w{fill:#575988;}</style><linearGradient id="a" x1="0.501" y1="1" x2="0.501" gradientUnits="objectBoundingBox"><stop offset="0" stop-color="gray" stop-opacity="0.251"/><stop offset="0.54" stop-color="gray" stop-opacity="0.122"/><stop offset="1" stop-color="gray" stop-opacity="0.102"/></linearGradient></defs><g transform="translate(-950 -234.406)"><path class="a" d="M525.615,126.517C479.429,124.911,435.441,110,393.438,93.69S309.829,59.3,264.721,50.659c-28.966-5.559-62.128-6.344-85.492,9.191-22.479,14.986-29.744,40.784-33.647,64.74-2.94,18.033-4.667,37,3.383,53.879,5.595,11.718,15.514,21.566,22.379,32.827,23.885,39.049,7,87.2-18.875,125.334-12.132,17.883-26.226,34.968-35.6,53.993s-13.7,40.855-5.5,60.273c8.121,19.268,27.482,33.712,48.455,43.888,42.6,20.652,92.771,26.568,141.733,29.915,108.35,7.415,217.27,4.2,325.9.992,40.206-1.192,80.582-2.4,120.132-8.613,21.965-3.454,44.637-8.935,60.579-22.122,20.246-16.792,25.262-45.229,11.7-66.281-22.75-35.317-85.635-44.095-101.556-82-8.749-20.859.235-44.1,12.959-63.448,27.289-41.512,73.025-77.921,75.43-125.369,1.656-32.584-20.331-65.218-54.328-80.639-35.631-16.164-85.05-14.13-111.325,12.624C613.969,117.333,566.4,127.93,525.615,126.517Z" transform="translate(882.403 187.388)"/><g class="b" transform="translate(1245.233 314.433)"><rect class="c" width="6.323" height="52.109" rx="2.29" transform="translate(210.248 97.51)"/><rect class="c" width="3.547" height="17.156" rx="1.773" transform="translate(0.128 56.69)"/><rect class="c" width="3.996" height="29.858" rx="1.998" transform="translate(0 88.097)"/><rect class="c" width="3.804" height="30.115" rx="1.902" transform="translate(0.064 128.402)"/><rect class="c" width="211.518" height="429.88" rx="38.99" transform="translate(2.141)"/><rect class="d" width="29.537" height="5.994" rx="2.997" transform="translate(87.49 12.831)"/><circle class="d" cx="3.404" cy="3.404" r="3.404" transform="translate(121.494 12.431)"/></g><ellipse class="a" cx="142.703" cy="14.544" rx="142.703" ry="14.544" transform="translate(977.168 739.66)"/><ellipse class="a" cx="66.852" cy="6.815" rx="66.852" ry="6.815" transform="translate(1370.324 795.937)"/><ellipse class="a" cx="66.852" cy="6.815" rx="66.852" ry="6.815" transform="translate(1598.755 761.597)"/><path class="e" d="M655.355,174.84H631.163v2.919a13.83,13.83,0,0,1-13.83,13.83h-77.2a13.83,13.83,0,0,1-13.83-13.83V174.84H503.582a16.792,16.792,0,0,0-16.792,16.8V565.528a16.792,16.792,0,0,0,16.792,16.8H655.355a16.8,16.8,0,0,0,16.8-16.8V191.639A16.8,16.8,0,0,0,655.355,174.84Z" transform="translate(773.651 150.783)"/><path class="e" d="M845.988,132.7s-60.087-3.625-53,38.479c0,0-1.427,7.443,5.338,10.819,0,0,.107-3.119,6.159-2.062a27.431,27.431,0,0,0,6.53.314,13.559,13.559,0,0,0,7.986-3.29h0s16.884-6.979,23.457-34.582c0,0,4.86-6.023,4.667-7.572l-10.141,4.332s3.461,7.315.714,13.395c0,0-.328-13.131-2.276-12.845-.4.057-5.274,2.533-5.274,2.533s5.966,12.738,1.427,22c0,0,1.706-15.7-3.325-21.08l-7.136,4.168s6.965,13.159,2.248,23.9c0,0,1.206-16.47-3.747-22.886l-6.465,5.045s6.544,12.967,2.555,21.873c0,0-.528-19.168-3.961-20.617,0,0-5.659,5-6.523,7.036,0,0,4.482,9.42,1.706,14.387,0,0-1.706-12.774-3.1-12.845,0,0-5.638,8.464-6.223,14.272,0,0,.243-8.628,4.853-15.072,0,0-5.445.935-8.628,4.467,0,0,.878-5.98,9.991-6.508,0,0,4.66-6.423,5.909-6.808,0,0-9.1-.764-14.615,1.684,0,0,4.853-5.645,16.285-3.076l6.38-5.217s-11.975-1.634-17.056.171c0,0,5.852-5,18.783-1.356l6.951-4.153s-10.212-2.205-16.3-1.427c0,0,6.422-3.461,18.333.293l5-2.234s-7.486-1.47-9.677-1.706-2.3-.835-2.3-.835a25.94,25.94,0,0,1,14.151,1.613S846.166,133.362,845.988,132.7Z" transform="translate(686.13 162.874)"/><path class="e" d="M771.416,106.476s-27.118-1.634-23.949,17.391a4.641,4.641,0,0,0,2.412,4.888s.05-1.427,2.783-.935a12.5,12.5,0,0,0,2.947.143,6.152,6.152,0,0,0,3.611-1.484h0s7.629-3.154,10.6-15.628c0,0,2.2-2.719,2.141-3.418l-4.581,1.955s1.563,3.3.328,6.052c0,0-.143-5.93-1.028-5.795-.179,0-2.376,1.149-2.376,1.149s2.69,5.752.657,9.941c0,0,.771-7.093-1.5-9.527l-3.226,1.884s3.147,5.944,1.013,10.8c0,0,.549-7.443-1.691-10.34l-2.926,2.284s2.962,5.859,1.156,9.884c0,0-.236-8.663-1.784-9.32,0,0-2.562,2.255-2.947,3.183,0,0,2.019,4.282.764,6.5,0,0-.771-5.773-1.427-5.8,0,0-2.548,3.825-2.812,6.423a13.888,13.888,0,0,1,2.191-6.808,7.644,7.644,0,0,0-3.9,2.02s.392-2.7,4.524-2.94c0,0,2.105-2.9,2.669-3.083,0,0-4.11-.343-6.6.764,0,0,2.191-2.548,7.357-1.427l2.855-2.355s-5.409-.714-7.707.079c0,0,2.648-2.255,8.485-.614l3.14-1.877a28.527,28.527,0,0,0-7.357-.635s2.9-1.563,8.278.128l2.248-1.006s-3.375-.664-4.367-.771-1.042-.378-1.042-.378a11.676,11.676,0,0,1,6.344.714S771.494,106.776,771.416,106.476Z" transform="translate(699.073 170.371)"/><ellipse class="e" cx="28.695" cy="4.853" rx="28.695" ry="4.853" transform="translate(950 713.799)"/><path class="e" d="M97.943,709.154a8.3,8.3,0,0,0,2.74-4.125,3.7,3.7,0,0,0-1.913-4.2c-1.756-.678-3.632.542-5.052,1.77s-3.054,2.633-4.917,2.369a7.472,7.472,0,0,0,2.291-7,2.854,2.854,0,0,0-.642-1.427c-.971-1.042-2.74-.592-3.911.228-3.711,2.612-4.746,7.65-4.76,12.189a22.484,22.484,0,0,1-.071-5c-.007-1.648-.471-3.568-1.884-4.439a5.709,5.709,0,0,0-2.854-.678c-1.67-.057-3.525.107-4.667,1.327-1.427,1.513-1.049,4.061.186,5.709s3.1,2.712,4.824,3.868a10.645,10.645,0,0,1,3.454,3.29,3.143,3.143,0,0,1,.257.585H91.477a29.1,29.1,0,0,0,6.465-4.467Z" transform="translate(892.612 1.555)"/><path class="e" d="M875.523,630.54s6.173,8.078-2.855,20.267-16.463,22.479-13.452,30.079c0,0,13.616-22.636,24.7-22.957S887.712,644.156,875.523,630.54Z" transform="translate(667.191 20.281)"/><path class="f" d="M875.665,630.54a10.167,10.167,0,0,1,1.263,2.533c10.811,12.7,16.57,24.563,6.173,24.856-9.677.278-21.295,17.591-24.07,21.958a8.2,8.2,0,0,0,.328,1s13.616-22.636,24.7-22.957S887.853,644.156,875.665,630.54Z" transform="translate(667.05 20.281)"/><path class="g" d="M897.847,644.27c0,2.854-.321,5.145-.714,5.145s-.714-2.3-.714-5.145.4-1.5.792-1.5S897.847,641.415,897.847,644.27Z" transform="translate(656.342 16.871)"/><path class="g" d="M901.984,648.937c-2.5,1.356-4.667,2.184-4.86,1.834s1.684-1.727,4.182-3.09,1.506-.364,1.7,0S904.482,647.574,901.984,648.937Z" transform="translate(656.145 15.572)"/><path class="e" d="M831.082,630.54s-6.173,8.078,2.855,20.267S850.4,673.286,847.4,680.886c0,0-13.616-22.636-24.7-22.957S818.893,644.156,831.082,630.54Z" transform="translate(679.02 20.281)"/><path class="f" d="M831.079,630.54a9.878,9.878,0,0,0-1.263,2.533c-10.811,12.7-16.57,24.563-6.18,24.856,9.684.278,21.295,17.591,24.078,21.958a9.629,9.629,0,0,1-.328,1s-13.616-22.636-24.7-22.957S818.891,644.156,831.079,630.54Z" transform="translate(679.023 20.281)"/><path class="g" d="M820.55,644.27c0,2.854.321,5.145.714,5.145s.714-2.3.714-5.145-.4-1.5-.792-1.5S820.55,641.415,820.55,644.27Z" transform="translate(678.07 16.871)"/><path class="g" d="M814.4,648.937c2.49,1.356,4.667,2.184,4.853,1.834s-1.677-1.727-4.175-3.09-1.513-.364-1.7,0S811.926,647.574,814.4,648.937Z" transform="translate(680.264 15.572)"/><path class="h" d="M823.31,695.866s17.263-.535,22.465-4.239,26.554-8.128,27.831-2.184,25.94,29.551,6.423,29.708-45.287-3.04-50.475-6.2S823.31,695.866,823.31,695.866Z" transform="translate(677.279 4.245)"/><path class="i" d="M880.421,720.818c-19.489.157-45.287-3.04-50.475-6.2-3.961-2.4-5.531-11.047-6.059-15.036h-.578S824.4,713.5,829.6,716.664s30.985,6.359,50.474,6.2c5.624-.05,7.572-2.048,7.465-5C886.751,719.661,884.61,720.782,880.421,720.818Z" transform="translate(677.279 0.51)"/><rect class="j" width="55.684" height="55.684" transform="translate(1367.135 582.563)"/><rect class="j" width="55.684" height="55.684" transform="translate(1285.068 509.06)"/><rect class="j" width="55.684" height="55.684" transform="translate(1290.42 654.811)"/><rect class="k" width="55.684" height="55.684" transform="translate(1277.996 372.337)"/><path class="e" d="M564.757,265.79l-1.977,1.97a6.972,6.972,0,0,1,0,9.869l1.977,1.984a9.777,9.777,0,0,0,0-13.823Z" transform="translate(751.889 124.737)"/><path class="e" d="M557.467,259.807l-1.948,1.948a12.4,12.4,0,0,1,0,17.527l1.948,1.948a15.143,15.143,0,0,0,0-21.409ZM548.19,267.1v-8.92h-2.747l-8.221,6.851H526.26l-2.74,1.37V276l2.74,1.37,6.879,10.968h4.11l-2.569-10.968h2.569l8.221,5.488h2.747v-8.92a3.5,3.5,0,0,0,0-6.837Z" transform="translate(763.132 126.916)"/><rect class="k" width="55.684" height="55.684" transform="matrix(0.742, -0.671, 0.671, 0.742, 1370.367, 599.851)"/><path class="e" d="M673.34,548.1l4.039-3.668L699.5,568.821l-4.068,3.682Zm9.541,22.836,4.068-3.675,6.423,7.136-4.068,3.675Zm8.521-15.1,4.068-3.682,10.112,11.182-4.061,3.675Zm.578-11.618,4.068-3.682,15.635,17.277-4.068,3.682Z" transform="translate(720.227 46.055)"/><rect class="k" width="55.684" height="55.684" transform="translate(1366.214 439.439)"/><path class="e" d="M676.9,363.714l-7.472,11.418a4.068,4.068,0,0,1,.928,2.6,4.118,4.118,0,0,1-8.228,0,4.531,4.531,0,0,1,.071-.764l-4.938-2.855a4.132,4.132,0,0,1-4.874.614l-5.252,4.917v4.9a3.668,3.668,0,0,0,3.661,3.661h31.071a3.675,3.675,0,0,0,3.661-3.661V366.333l-5-3.333a4.068,4.068,0,0,1-2.519.871,4.19,4.19,0,0,1-1.085-.15Z" transform="translate(727.733 96.898)"/><path class="e" d="M654.409,362.841a4.11,4.11,0,0,1,4.118,4.111,2.663,2.663,0,0,1-.036.535l5.152,2.855a4.046,4.046,0,0,1,2.6-.928,3.953,3.953,0,0,1,.885.1l7.493-11.6a4.11,4.11,0,1,1,7.464-2.384,4.273,4.273,0,0,1-.114.97l3.568,2.362v-6.865a3.668,3.668,0,0,0-3.661-3.654H650.791a3.661,3.661,0,0,0-3.661,3.654v19.653l3.425-3.283a4.156,4.156,0,0,1-.257-1.427,4.11,4.11,0,0,1,4.111-4.1Z" transform="translate(727.733 101.097)"/><rect class="k" width="55.684" height="55.684" transform="translate(1295.822 501.524)"/><path class="e" d="M585.035,435.456,550.781,454.01a.714.714,0,0,0,.05,1.277l5.844,2.205a1.427,1.427,0,0,1,.771.714l4.539,9.348c.086.414.849.528.856.107l-.714-7.729a2.747,2.747,0,0,1,.628-1.563l17.755-17.4a.443.443,0,0,1,.393-.114.407.407,0,0,1,.221.649l-15.307,18.711a3.42,3.42,0,0,0-.6,1.541l-.913,6.672c.071.585.528.806.9.285l3.3-3.875a.714.714,0,0,1,.971-.157l8.5,6.194a.714.714,0,0,0,1.078-.421l6.972-34.254a.714.714,0,0,0-1-.771Z" transform="translate(755.431 76.173)"/><path class="e" d="M1023.04,776.546c3.24.421,6.6.714,9.705-.328.478-.15,1.028-.478.964-.971a1.141,1.141,0,0,0-.221-.471,30.281,30.281,0,0,1-2.947-5.588.456.456,0,0,0-.178-.25.436.436,0,0,0-.314,0c-1.427.371-2.669,1.3-4.1,1.691a5.851,5.851,0,0,1-2.227.171c-.642-.071-1.527-.606-2.105-.542C1021.977,772.378,1022.79,774.383,1023.04,776.546Z" transform="translate(620.488 -19.344)"/><path class="e" d="M1108.114,767.55c2.141-1.427,4.353-3.011,5.616-5.274a.866.866,0,0,0,.15-.45.929.929,0,0,0-.178-.442,18.281,18.281,0,0,0-4.56-4.924,13.491,13.491,0,0,0-2.548,2.348c-.535.564-2.019,1.492-2.034,2.334,0,.507.564,1.056.828,1.427.357.528.714,1.07,1.02,1.613A26.79,26.79,0,0,1,1108.114,767.55Z" transform="translate(596.736 -15.779)"/><path class="l" d="M1028.135,784.473a2.14,2.14,0,0,1-.385,1.427,1.9,1.9,0,0,1-.821.478c-4.538,1.62-9.762-.407-14.272,1.2-.935.328-1.813.8-2.747,1.113a14.871,14.871,0,0,1-3.4.607c-1.606.157-3.211.25-4.817.292a11.649,11.649,0,0,1-3.625-.314,4.389,4.389,0,0,1-2.783-2.2,2.141,2.141,0,0,1-.136-1.57,1.77,1.77,0,0,1,.293-.507,4.347,4.347,0,0,1,1.07-.864l1.67-1.078a11.154,11.154,0,0,1,2.526-1.342c.656-.214,1.363-.307,2.027-.5,2.348-.714,4.132-2.548,5.795-4.332l2.269-2.419a2.219,2.219,0,0,1,.785-.628,2.138,2.138,0,0,1,.97-.1,13.108,13.108,0,0,1,6.187,2.084,8.925,8.925,0,0,0,1.527.9,5.452,5.452,0,0,0,4.282-.535c.585-.307.457-.5.714-1.049s.842-.906,1.356-.4a1.493,1.493,0,0,1,.321.614,17.033,17.033,0,0,1,.307,5.045,2.238,2.238,0,0,0,.1.785,4.8,4.8,0,0,0,.442.714,1.11,1.11,0,0,1,.093.186,4.952,4.952,0,0,1,.257,2.4Z" transform="translate(628.096 -20.721)"/><path class="m" d="M1028.135,787.831a2.14,2.14,0,0,1-.385,1.427,1.9,1.9,0,0,1-.821.478c-4.538,1.62-9.762-.407-14.272,1.2-.935.328-1.813.8-2.747,1.113a14.875,14.875,0,0,1-3.4.607c-1.606.157-3.211.25-4.817.292a11.653,11.653,0,0,1-3.625-.314,4.389,4.389,0,0,1-2.783-2.205,2.14,2.14,0,0,1-.136-1.57,1.773,1.773,0,0,1,.293-.507c.271.557.464,1.284.628,1.549a3.169,3.169,0,0,0,2.141,1.534,5.432,5.432,0,0,0,1.934-.25c4.11-1.02,8.478-1.035,12.417-2.576a29.662,29.662,0,0,1,4.068-1.563,32.318,32.318,0,0,1,4.4-.357c2.319-.186,4.56-.885,6.851-1.249a4.953,4.953,0,0,1,.264,2.391Z" transform="translate(628.096 -24.078)"/><path class="l" d="M1113.767,768.443a8.235,8.235,0,0,1-2.5,4.46,28.588,28.588,0,0,0-3.5,3.832c-1.185,1.8-1.706,4.018-3.233,5.538a8.749,8.749,0,0,1-1.941,1.427,13.418,13.418,0,0,1-2.519,1.156,19.282,19.282,0,0,1-7.136.392,6.346,6.346,0,0,1-2.255-.443,6.563,6.563,0,0,1-.956-.578,4.54,4.54,0,0,1-1.427-1.477,1.484,1.484,0,0,1-.136-1.063,2.427,2.427,0,0,1,.714-1.042,16.111,16.111,0,0,1,1.72-1.549,10.217,10.217,0,0,0,2.241-1.97,6.425,6.425,0,0,0,.863-1.969,17.653,17.653,0,0,0,.628-3.747,11.8,11.8,0,0,1,.264-2.5c.364-1.284,1.32-2.448,1.206-3.782a.97.97,0,0,1,.05-.571.892.892,0,0,1,.45-.278,8.135,8.135,0,0,1,2.341-.535,2.7,2.7,0,0,1,2.141.849c.336.4.55.956,1.042,1.135a1.726,1.726,0,0,0,.714,0,6.07,6.07,0,0,0,3.4-1.049,4.281,4.281,0,0,0,1.427-3.119c0-.442-.2-.906.478-1,.521-.071.928.471,1.192.828a11.645,11.645,0,0,1,2.291,4.175,1.158,1.158,0,0,1,.435-.086,1.863,1.863,0,0,1,1.556.8,3.082,3.082,0,0,1,.457,2.169Z" transform="translate(601.444 -16.951)"/><path class="m" d="M1113.839,770.436a8.236,8.236,0,0,1-2.5,4.46,28.594,28.594,0,0,0-3.5,3.832c-1.185,1.8-1.705,4.018-3.233,5.538a8.753,8.753,0,0,1-1.941,1.427,13.422,13.422,0,0,1-2.519,1.156,19.279,19.279,0,0,1-7.136.393,6.344,6.344,0,0,1-2.255-.442,6.553,6.553,0,0,1-.956-.578,4.537,4.537,0,0,1-1.427-1.477,3.474,3.474,0,0,1,1.47-.35c1.063.057,1.834,1.056,2.854,1.363,1.427.435,2.854-.585,4.346-.935.956-.221,1.97-.157,2.9-.464a7.177,7.177,0,0,0,2.141-1.3,10.869,10.869,0,0,0,2.291-2.212,14.114,14.114,0,0,0,1.349-2.683,38.335,38.335,0,0,1,2.719-5.2,3.458,3.458,0,0,1,.557-.714c.221-.207.5-.357.714-.542a5.676,5.676,0,0,0,1.727-3.147,5.27,5.27,0,0,1,.385-1.049,1.863,1.863,0,0,1,1.556.8A3.084,3.084,0,0,1,1113.839,770.436Z" transform="translate(601.372 -18.944)"/><path class="n" d="M979.632,553.137a10.363,10.363,0,0,1,2.912,3.4c.714,1.341,4.631,11.76,4.4,13.252,1.285-1.3,6.38-1.513,7.657-2.8.542-.542,3.475-3.254,3.911-3.882s3.7-1.977,4.061-2.619c1.334-2.391-9.463-11.418-8.085-13.816a.585.585,0,0,0,.114-.371.57.57,0,0,0-.178-.285,17.176,17.176,0,0,0-3.126-2.141,5,5,0,0,1-2.383-2.854,10.255,10.255,0,0,0-2.762,1.87q-2.962,2.533-5.837,5.2c-.756.714-2.2,1.62-2.548,2.612S978.911,552.552,979.632,553.137Z" transform="translate(633.061 45.918)"/><path class="l" d="M999.426,552.61a31.276,31.276,0,0,0-4.624,3.782,9.254,9.254,0,0,0-2.947,4.717c-.135.714-.114,1.47-.228,2.205-.478,3.2-3.254,5.545-4.474,8.563a14.634,14.634,0,0,0-.785,2.855,33.664,33.664,0,0,0-.557,5.609c0,1.827,1.756,3.083,2.412,4.788a29.037,29.037,0,0,1,1.163,5.188,63.208,63.208,0,0,0,2.919,9.634c2.412,6.658,10.226,25.07,12.639,31.735,7.386-1.855,27.053-6.116,33.59-9.991,2.184-1.3-15.129-15.971-12.8-16.984a1.179,1.179,0,0,0,.65-.492,1.129,1.129,0,0,0,0-.714c-2.327-10.2-9.627-18.554-12.931-28.545-1.149-3.447-3.211-6.387-4.781-9.67-1.427-2.969-2.177-6.244-3.868-9.063a6.061,6.061,0,0,0-1.234-1.549,7.571,7.571,0,0,0-1.37-.821C1001.267,553.359,1000.368,553.081,999.426,552.61Z" transform="translate(630.743 42.599)"/><circle class="n" cx="11.561" cy="11.561" r="11.561" transform="translate(1601.524 574.771)"/><path class="m" d="M997.43,547.369a3.875,3.875,0,0,1,4.346-.621,2.141,2.141,0,0,1,1.292,2.084l5.709.086a11.942,11.942,0,0,1,2.719.25,3.953,3.953,0,0,1,2.269,1.427c.072.093.15.2.264.221a.456.456,0,0,0,.264-.093,5.032,5.032,0,0,1,2.855-.514,15.43,15.43,0,0,1,8.392,3.689,2.718,2.718,0,0,1,1,1.22c.2.649,0,1.484.471,1.927,0,5.388,1.848,10.4,3.083,15.65a6.938,6.938,0,0,0,1.734,2.491,10,10,0,0,1,1.856,2.769c1.042,2.719-.4,5.909.621,8.642a13.915,13.915,0,0,0,1.97,3.1,8,8,0,0,1,1.677,4.01c.043.656-.043,1.313,0,1.977a12.054,12.054,0,0,0,.471,2.6c.414,1.577.856,3.154,1.313,4.724.714,2.54,1.713,5.288,3.989,6.644-5.5.935-11.3,1.841-16.542-.064a8.568,8.568,0,0,1-2.062-1.035c-1.891-1.349-2.8-3.661-3.618-5.837a27.429,27.429,0,0,1-2.027-7.536,8.624,8.624,0,0,0-.343-2.462c-.535-1.427-1.948-2.276-3.247-3.061a15.626,15.626,0,0,1-3.9-3.04,6.065,6.065,0,0,1-1.584-4.567c.1-.806.414-1.584.45-2.4a1.92,1.92,0,0,0-1.113-1.977c-4-1.213-5.916-5.952-6.808-10.041a32.048,32.048,0,0,1-.514-6.423l-.05-4.132a5.48,5.48,0,0,1-1.8-3.953,4.435,4.435,0,0,0,0-1.306,3.658,3.658,0,0,0-.913-1.427A12.065,12.065,0,0,1,997.43,547.369Z" transform="translate(627.415 44.393)"/><path class="m" d="M979.847,564.921a30.547,30.547,0,0,1-.129,3.882c-.114.485-.307.949-.449,1.427a8.421,8.421,0,0,0,.535,5.438,30.234,30.234,0,0,0,2.776,4.817,7.334,7.334,0,0,1,.892,1.663,8.613,8.613,0,0,1,.343,1.905,58,58,0,0,0,1.363,7.664,15.057,15.057,0,0,0,2.7,6.159,1.87,1.87,0,0,0,1.113.756,2.012,2.012,0,0,0,.949-.2l2.954-1.12a2.064,2.064,0,0,0,.714-.371,1.792,1.792,0,0,0,.414-1.156,16.989,16.989,0,0,0-1.3-7c-2.4-6.808-5.58-13.366-7.136-20.41-.435-1.97-.664-5-2.1-6.53-.592-.642-.392-.371-1.1,0a8.953,8.953,0,0,0-1.035.55A3.389,3.389,0,0,0,979.847,564.921Z" transform="translate(632.681 40.065)"/><path class="m" d="M1059.24,625.68" transform="translate(609.715 21.673)"/><path class="e" d="M992.364,576.371q1.177,6.23,2.4,12.467l11.475-3.011a8.038,8.038,0,0,0-.992-3.433c-1.049-2.626-1.07-5.545-1.92-8.242-.642-2.055-1.755-3.946-2.355-6.016-.35-1.2-.521-2.455-.863-3.661a27.952,27.952,0,0,0-1.349-3.49,22.224,22.224,0,0,0-2.5-4.646c-1.47.549-3.033,1.185-3.868,2.5a5.323,5.323,0,0,0-.714,2.469c-.2,2.583.714,5.174.421,7.729a22.828,22.828,0,0,0,.264,7.329Z" transform="translate(629.071 41.531)"/><path class="m" d="M1009.811,652.077c.642,2.455-.293,5-1.049,7.436a57.748,57.748,0,0,0-2.341,11.2,9.275,9.275,0,0,1-.578,2.854,26.634,26.634,0,0,1-1.392,2.284c-1.156,2.041-1.127,4.539-.878,6.872.164,1.541.414,3.076.714,4.6.378,1.848.842,3.789.3,5.595.906-.2,1.527.97,1.491,1.905s-.364,1.934.078,2.755c1.127.407,1.142,1.955,1.106,3.147a26.534,26.534,0,0,0,.778,6.166q2.555,12.267,5.423,24.47c4.132,1.285,8.956,2.619,12.9.842a2.534,2.534,0,0,0,1.634-1.641,2.956,2.956,0,0,0-.157-1.263l-1.87-6.794a12.508,12.508,0,0,1-.671-5c.185-1.263.714-2.619.114-3.725a10.761,10.761,0,0,0-.785-1.042c-.985-1.427-.471-3.347-.385-5.088a3.98,3.98,0,0,0-.086-1.163,6.108,6.108,0,0,0-.549-1.277,19.5,19.5,0,0,1-2.141-9.705,2.386,2.386,0,0,0-.172-1.27,2.921,2.921,0,0,1-.314-.514,1.377,1.377,0,0,1,.1-.935,8.114,8.114,0,0,1-1.506-1.427,2.141,2.141,0,0,0,.357-3.3,1.1,1.1,0,0,0,.528-1.891c-.243-.171-.557-.243-.714-.485-.264-.357-.05-.863.164-1.249l1.142-2.062c.849-1.527,1.042-3.418,1.955-4.91a36.834,36.834,0,0,0,3.011-6.872l3.254-9.063,2.212,1.92a6.926,6.926,0,0,1,1.82,2.077,8.759,8.759,0,0,1,.585,2.483c.814,4.924,3.918,9.191,5.067,14.051A9.464,9.464,0,0,0,1040,685.2a6.789,6.789,0,0,1,.6.9,4.735,4.735,0,0,1,.25,1.491,6.951,6.951,0,0,0,2.933,5c1.085.714,2.462,1.263,3.033,2.448a4.842,4.842,0,0,0,.5,1.042c.528.635,1.67.714,1.9,1.506.122.45-.114.978.143,1.37a1.249,1.249,0,0,0,.535.4l3.19,1.6c3.568,1.777,5.366,5.852,8,8.842a18.354,18.354,0,0,1,2.391,3.169c1.135,2.027,1.663,4.574,3.568,5.88a5.537,5.537,0,0,1,1.385,1.027c.607.792.385,1.905.435,2.9s.821,2.184,1.77,1.884a6.889,6.889,0,0,0,0,3.689,18.6,18.6,0,0,0,11.275-4.567,4.449,4.449,0,0,0,1.834-3.076,1.192,1.192,0,0,0-.135-.614,1.668,1.668,0,0,0-.714-.542c-2.976-1.613-3.875-5.352-5.366-8.392-1.32-2.676-3.261-5-4.91-7.479-3.568-5.352-5.952-11.825-11.311-15.364-1.177-.778-2.547-1.47-3.133-2.755a21.984,21.984,0,0,1-.628-2.284,1.92,1.92,0,0,0-1.677-1.427,10.188,10.188,0,0,0,.385-3.568,4.44,4.44,0,0,0-.179-1.534,7.245,7.245,0,0,0-.785-1.513,14.666,14.666,0,0,1-2.02-7.85,12.635,12.635,0,0,0-.135-4.217c-.214-.714-.585-1.306-.849-1.97a12.273,12.273,0,0,1-.614-3.675l-.292-4.7a22.522,22.522,0,0,0-.607-4.646c-.992-3.647-1.941-18.925-5.3-20.645s-9.1,10.034-12.845,10.269a17.13,17.13,0,0,0-4.91.942,23.8,23.8,0,0,0-6.658,4.417l-6.936,5.823A25.277,25.277,0,0,1,1009.811,652.077Z" transform="translate(625.696 21.195)"/><path class="m" d="M964.541,520.863a8.72,8.72,0,0,1,6.729-3.283,15.7,15.7,0,0,1,7.436,1.87,9.589,9.589,0,0,0,2.141.892c1.227.25,2.583-.086,3.689.5,1.47.778,1.748,2.762,1.62,4.417s-.435,3.468.442,4.888a13.509,13.509,0,0,1,.849,1.27,4.239,4.239,0,0,1-.078,2.719,21.833,21.833,0,0,1-1.427-1.791,1.661,1.661,0,0,0-2.02-.528c-.628.421-.628,1.2-.656,1.891s-.214,1.527-.871,1.755a1.427,1.427,0,0,1-1.427-.571c-1.121-1.37-.671-3.568-1.777-4.938-.635-.785-1.684-1.163-2.269-1.984-.457-.642-.571-1.477-.97-2.141s-1.335-1.206-1.962-.714a2.662,2.662,0,0,0-.521.714A3,3,0,0,1,969.9,526.9a6.263,6.263,0,0,0-1.549-.664,1.905,1.905,0,0,0-1.763.956,3.8,3.8,0,0,0-.464,2.041,4.746,4.746,0,0,1-.385,2.8,2.9,2.9,0,0,1-.828.714,2.45,2.45,0,0,1-2.712.278,2.041,2.041,0,0,1-.607-1.9,15.627,15.627,0,0,1,.578-2.005c.428-1.513-.128-3.218.343-4.646A14.622,14.622,0,0,1,964.541,520.863Z" transform="translate(637.69 52.63)"/><path class="e" d="M974.405,562.161a1.784,1.784,0,0,0,.107,1.063,1.725,1.725,0,0,0,.578.557,11.974,11.974,0,0,0,5.452,1.763,1.64,1.64,0,0,1,.714.193,1.348,1.348,0,0,1,.321,1.52,4.049,4.049,0,0,0-.342,1.613c.143,1.02,1.349,1.484,2.376,1.613a5.509,5.509,0,0,0,4.132-.8,6.371,6.371,0,0,0,1.706-2.562c2.8-6.423,3.789-13.559,6.63-19.981a4.058,4.058,0,0,0,.428-1.334,1.327,1.327,0,0,0-.528-1.234c-.528-.328-1.349-.143-1.705-.649-.179-.264-.157-.614-.314-.885-.328-.585-1.185-.514-1.777-.828-.457-.25-.778-.714-1.284-.849a1.641,1.641,0,0,0-1.342.578c-1.663,1.556-2.54,3.761-3.468,5.845a69.39,69.39,0,0,1-5,9.213c.221-.343-1.056-2.947-1.556-3.047-.871-.178-2,1.356-2.469,1.934A12.246,12.246,0,0,0,974.405,562.161Z" transform="translate(634.02 45.821)"/><rect class="k" width="55.684" height="55.684" transform="translate(1614.263 617.117)"/><path class="e" d="M1014.895,606.578V599.27H996.64v32.9h35.646V606.578Zm-10.954,21.93h-3.647v-3.654h3.647Zm0-7.308h-3.647v-3.654h3.647Zm0-7.308h-3.647v-3.661h3.647Zm0-7.315h-3.647v-3.661h3.647Zm7.3,21.93h-3.64v-3.654h3.647Zm0-7.308h-3.64v-3.654h3.647Zm0-7.308h-3.64v-3.661h3.647Zm0-7.315h-3.64v-3.661h3.647Zm17.4,21.93h-13.744v-3.654h3.646V621.2h-3.646v-3.654h3.646v-3.661h-3.646v-3.654h13.744Zm-3.2-14.615H1021.8v3.661h3.647Zm0,7.308H1021.8v3.661h3.647Z" transform="translate(627.642 29.236)"/><path class="n" d="M1058.453,625.161a22.486,22.486,0,0,0-2.641,2.769,5.515,5.515,0,0,0-1.213,3.568,1.833,1.833,0,0,0,.343,1.042.892.892,0,0,0,.992.307,1.43,1.43,0,0,0,.485-.435,22.839,22.839,0,0,1,1.641-1.784c.214-.207.485-.428.771-.35a.813.813,0,0,1,.335.221,2.269,2.269,0,0,1,.714,1.078,2.554,2.554,0,0,1-.756,2.077,5.382,5.382,0,0,0-1.278,1.891.806.806,0,0,0,0,.607.99.99,0,0,0,.378.328,5.509,5.509,0,0,0,4.617.3c.992-.392,1.848-1.078,2.854-1.427a6.858,6.858,0,0,0,1.263-.471,2.6,2.6,0,0,0,1.12-1.67,7.138,7.138,0,0,0,.079-2.062,23.551,23.551,0,0,0-1.72-7.779.928.928,0,0,0-.278-.414.979.979,0,0,0-.471-.136c-1.249-.129-3.3-.771-4.51-.307a3.084,3.084,0,0,0-1.063.949C1059.838,623.712,1058.453,624.833,1058.453,625.161Z" transform="translate(611.044 22.628)"/><path class="m" d="M1052.366,606.4c0-1.2-1.484-4.075.863-4.282,0-1.27-1.806-2.069-1.477-3.411.114-.457.478-.821.535-1.277.15-1.306-2.205-2.012-1.82-3.268.143-.478.664-.771.778-1.256.264-1.128-1.755-1.634-1.791-2.79,0-.392.214-.764.2-1.149,0-.492-.428-.863-.664-1.284-.607-1.092-.314-2.783-1.427-3.34.714.057.992-1.035.678-1.706s-.928-1.249-.928-1.991a3.152,3.152,0,0,0,0-.821c-.207-.714-1.377-.764-1.57-1.477a7.6,7.6,0,0,1,0-.806c-.071-.556-.642-.9-1.177-1.063a4.684,4.684,0,0,1-1.57-.557c-.342-.264-.714-.714-1.106-.464-.136.078-.207.235-.314.357-.435.507-1.27.286-1.827-.093a7.557,7.557,0,0,1-2.8-5.038c-.357-1.941-.335-3.946-.763-5.873a13.446,13.446,0,0,0-.521-1.755,9.1,9.1,0,0,1-.828-1.756c-.085-1.12,2.241-.357,3.126-.243a13.876,13.876,0,0,1,2.541.478,26.905,26.905,0,0,1,2.591,1.135c3.568,1.563,7.793,1.756,10.633,4.375.935.863,1.72,1.991,2.926,2.376a14.913,14.913,0,0,1,1.641.428c1.349.635,1.556,2.419,2.291,3.711a7.931,7.931,0,0,1,.606,1.07,4.22,4.22,0,0,1,.193,1.37l.1,3.39a125.22,125.22,0,0,1-.271,17.013,14.045,14.045,0,0,0,.064,5.566c.143.485.35.949.471,1.427a9.7,9.7,0,0,1,.186,1.763l.078,2.191a.529.529,0,0,1-.7.649c-3.062-.271-6.144-2-9.035-.956" transform="translate(616.703 40.283)"/><path class="n" d="M979.331,611.892a.943.943,0,0,0-.342.286,2.434,2.434,0,0,0,0,2.9.976.976,0,0,1,.171.285.841.841,0,0,1-.086.485,1.606,1.606,0,0,0,.221,1.8c.221.186.521.278.664.521.25.414-.1.942-.043,1.427.071.635.821.949,1.427,1.028a1.52,1.52,0,0,0,1.391-.371,1.156,1.156,0,0,0,0-1.263,3.383,3.383,0,0,0-.942-.942,1.427,1.427,0,0,0,1.349-1.306,2.026,2.026,0,0,0-.813-1.777c-.128-.107-.285-.214-.321-.385s.135-.407.292-.571c.714-.714,1.263-2.462-.078-2.855a3.3,3.3,0,0,0-1.427.064c-.343.107-.343.314-.607.457S979.63,611.743,979.331,611.892Z" transform="translate(632.834 25.848)"/><path class="f" d="M997.134,543.14a2.355,2.355,0,0,0-1.812.913,5.216,5.216,0,0,0-.756,2.426,21.271,21.271,0,0,1-2.855,7.75" transform="translate(629.054 45.311)"/><path class="f" d="M1000.665,545.88a2.768,2.768,0,0,0-2.369,1.427,7.92,7.92,0,0,0-.6,2.419,13.146,13.146,0,0,1-2.376,5.074" transform="translate(628.02 44.526)"/><path class="o" d="M343.909,606.567c.414,4.51-2.99,8.878-2,13.288.214.942.621,1.834.771,2.783.407,2.619-1.156,5.1-2.648,7.293l-12.8,18.8a12.177,12.177,0,0,1-1.834,2.262c-2.455,2.141-6.123,1.948-9.341,2.6a16.022,16.022,0,0,0-6.251,2.769.407.407,0,0,0-.086.564,5.388,5.388,0,0,0,4.653,2.184c.335.442,0,1.092-.464,1.427-.714.478-1.634.6-1.77,1.77a1.913,1.913,0,0,0,.235,1.17,3.618,3.618,0,0,0,2.241,1.556c4.432,1.356,9.227-1.021,12.538-4.282s5.709-7.329,8.963-10.633c1.805-1.82,3.854-3.39,5.709-5.159,3.711-3.525,6.587-7.85,9.37-12.132a13.465,13.465,0,0,0,2.027-4.125c.343-1.47.186-3.019.585-4.474.514-1.9,1.913-3.418,3.069-5a16.582,16.582,0,0,0,3.49-10.811c-.3-3.854-2.683-7.664-6.323-8.97a5.659,5.659,0,0,0-3.568-.221,8.613,8.613,0,0,0-3.611,2.855l-2.426,2.812a6.478,6.478,0,0,0-1.427,2.141,2.248,2.248,0,0,0,.5,2.391" transform="translate(824.382 29.304)"/><path class="p" d="M343.909,606.567c.414,4.51-2.99,8.878-2,13.288.214.942.621,1.834.771,2.783.407,2.619-1.156,5.1-2.648,7.293l-12.8,18.8a12.177,12.177,0,0,1-1.834,2.262c-2.455,2.141-6.123,1.948-9.341,2.6a16.022,16.022,0,0,0-6.251,2.769.407.407,0,0,0-.086.564,5.388,5.388,0,0,0,4.653,2.184c.335.442,0,1.092-.464,1.427-.714.478-1.634.6-1.77,1.77a1.913,1.913,0,0,0,.235,1.17,3.618,3.618,0,0,0,2.241,1.556c4.432,1.356,9.227-1.021,12.538-4.282s5.709-7.329,8.963-10.633c1.805-1.82,3.854-3.39,5.709-5.159,3.711-3.525,6.587-7.85,9.37-12.132a13.465,13.465,0,0,0,2.027-4.125c.343-1.47.186-3.019.585-4.474.514-1.9,1.913-3.418,3.069-5a16.582,16.582,0,0,0,3.49-10.811c-.3-3.854-2.683-7.664-6.323-8.97a5.659,5.659,0,0,0-3.568-.221,8.613,8.613,0,0,0-3.611,2.855l-2.426,2.812a6.478,6.478,0,0,0-1.427,2.141,2.248,2.248,0,0,0,.5,2.391" transform="translate(824.382 29.304)"/><path class="n" d="M218.3,624.874c.714,2.255,1.427,4.51,2.291,6.708a56.763,56.763,0,0,0,5.93,10.818,77.911,77.911,0,0,0,4.9,6.423c2.184,2.576,4.624,5.167,5.395,8.456a42.823,42.823,0,0,1,.485,5.83c.186,1.941.821,4,2.391,5.167a8.883,8.883,0,0,0,3.939,1.3c.985.157,2.219.207,2.733-.649a2.434,2.434,0,0,0,.271-1.128l.243-2.854c.05-.614.264-1.427.878-1.427s.928.792,1.427,1.156a1.549,1.549,0,0,0,2.141-.714,3.568,3.568,0,0,0,.057-2.5,11.861,11.861,0,0,0-6.087-7.543,18.3,18.3,0,0,1-2.969-1.549,10.1,10.1,0,0,1-2.334-2.94c-5.4-8.885-10.819-17.841-14.629-27.482a20.33,20.33,0,0,1-1.506-5.416,34.971,34.971,0,0,1,.235-5.709,32.676,32.676,0,0,0-.942-10.191,8.014,8.014,0,0,0-.978-2.476c-1.563-2.384-5.252-2.733-7.579-1.092a7.807,7.807,0,0,0-3.011,5.509c-.171,1.92.942,3.925,1.506,5.709Q215.708,616.574,218.3,624.874Z" transform="translate(852.468 30.158)"/><path class="p" d="M218.3,624.874c.714,2.255,1.427,4.51,2.291,6.708a56.763,56.763,0,0,0,5.93,10.818,77.911,77.911,0,0,0,4.9,6.423c2.184,2.576,4.624,5.167,5.395,8.456a42.823,42.823,0,0,1,.485,5.83c.186,1.941.821,4,2.391,5.167a8.883,8.883,0,0,0,3.939,1.3c.985.157,2.219.207,2.733-.649a2.434,2.434,0,0,0,.271-1.128l.243-2.854c.05-.614.264-1.427.878-1.427s.928.792,1.427,1.156a1.549,1.549,0,0,0,2.141-.714,3.568,3.568,0,0,0,.057-2.5,11.861,11.861,0,0,0-6.087-7.543,18.3,18.3,0,0,1-2.969-1.549,10.1,10.1,0,0,1-2.334-2.94c-5.4-8.885-10.819-17.841-14.629-27.482a20.33,20.33,0,0,1-1.506-5.416,34.971,34.971,0,0,1,.235-5.709,32.676,32.676,0,0,0-.942-10.191,8.014,8.014,0,0,0-.978-2.476c-1.563-2.384-5.252-2.733-7.579-1.092a7.807,7.807,0,0,0-3.011,5.509c-.171,1.92.942,3.925,1.506,5.709Q215.708,616.574,218.3,624.874Z" transform="translate(852.468 30.158)"/><path class="q" d="M368.258,753.1c-2.8,1.706-6.28,1.806-9.534,1.427-.521-.064-1.142-.107-1.477.3-.485.585.086,1.427.678,1.927a14.186,14.186,0,0,0,6.551,2.69,44.68,44.68,0,0,0,6.423.428,108.6,108.6,0,0,0,17.505-.649,2.319,2.319,0,0,0,.956-.278,1.812,1.812,0,0,0,.714-1.1,4.375,4.375,0,0,0-1.527-4.168,12.846,12.846,0,0,0-4.082-2.191l-5.081-1.977c-1.192-.464-3.111-1.7-4.4-1.6C372.583,748.065,370.278,751.911,368.258,753.1Z" transform="translate(810.801 -13.328)"/><path class="q" d="M386.45,769.168a12.482,12.482,0,0,1-8.528,3.183c-.8,0-1.912.15-1.912.949a1.256,1.256,0,0,0,.228.664,7.85,7.85,0,0,0,4.41,3.454,15.7,15.7,0,0,0,5.324.335l5.209-.271c.985-.05,1.977-.1,2.954-.221s2.041-.321,3.061-.478a40.832,40.832,0,0,1,7.586-.357,2.205,2.205,0,0,0,1.87-.5c.464-.585.193-1.427.043-2.141-.314-1.506,0-3.09-.293-4.61-.5-2.655-2.783-4.7-5.316-5.659-2.341-.892-6.494-1.913-8.713-.428C389.99,764.665,388.556,767.263,386.45,769.168Z" transform="translate(805.375 -17.462)"/><path class="m" d="M374.673,665.868c-2.141,2.819-4.282,6.073-3.782,9.555.285,1.877,1.334,3.532,2.105,5.274a37.171,37.171,0,0,1,2.141,7.407c.792,3.689,1.584,7.386,2.077,11.125A69.479,69.479,0,0,1,377.677,712a4.309,4.309,0,0,1-.892,2.854c-.285.286-.657.521-.778.906a1.534,1.534,0,0,0,.164,1.07,11.854,11.854,0,0,0,6.351,5.845,24.328,24.328,0,0,0,8.635,1.613,2.427,2.427,0,0,0,1.156-.15,2.227,2.227,0,0,0,.892-1.021c2.141-4.068.949-8.977.985-13.559,0-3.832.928-7.629.764-11.461-.136-3.069-.956-6.066-1.256-9.127-.492-5,.428-10.062,1.349-15.022.714-3.8,1.427-7.6,2.319-11.361A21.666,21.666,0,0,1,399.821,656c1-1.577,2.355-2.9,3.5-4.382a19.889,19.889,0,0,0,3.911-14.536c-.071-.514-7.35,1.841-7.978,2.141a24.731,24.731,0,0,0-7.136,4.574,59.085,59.085,0,0,0-4.482,5.538q-3.126,3.8-6.151,7.65Q378.027,661.394,374.673,665.868Z" transform="translate(806.862 18.429)"/><path class="p" d="M374.673,665.868c-2.141,2.819-4.282,6.073-3.782,9.555.285,1.877,1.334,3.532,2.105,5.274a37.171,37.171,0,0,1,2.141,7.407c.792,3.689,1.584,7.386,2.077,11.125A69.479,69.479,0,0,1,377.677,712a4.309,4.309,0,0,1-.892,2.854c-.285.286-.657.521-.778.906a1.534,1.534,0,0,0,.164,1.07,11.854,11.854,0,0,0,6.351,5.845,24.328,24.328,0,0,0,8.635,1.613,2.427,2.427,0,0,0,1.156-.15,2.227,2.227,0,0,0,.892-1.021c2.141-4.068.949-8.977.985-13.559,0-3.832.928-7.629.764-11.461-.136-3.069-.956-6.066-1.256-9.127-.492-5,.428-10.062,1.349-15.022.714-3.8,1.427-7.6,2.319-11.361A21.666,21.666,0,0,1,399.821,656c1-1.577,2.355-2.9,3.5-4.382a19.889,19.889,0,0,0,3.911-14.536c-.071-.514-7.35,1.841-7.978,2.141a24.731,24.731,0,0,0-7.136,4.574,59.085,59.085,0,0,0-4.482,5.538q-3.126,3.8-6.151,7.65Q378.027,661.394,374.673,665.868Z" transform="translate(806.862 18.429)"/><path class="m" d="M393.684,642.71c.457,2.184,2.576,3.854,2.633,6.087.05,1.784-1.22,3.283-2.141,4.817a32.293,32.293,0,0,0-2.184,4.953,75.508,75.508,0,0,1-6.423,12.752c-1.22,1.941-2.59,4.046-2.3,6.323a9.334,9.334,0,0,0,1.106,3.018l3.668,7.286a20.91,20.91,0,0,1,1.87,4.6c.321,1.384.35,2.855.535,4.225.578,4.467,2.669,8.963,1.427,13.295-.107.371-.5.821-.792.564a13.883,13.883,0,0,1,2.091,7.136c-.043,1.349-.457,2.747.043,4a4.367,4.367,0,0,1,.557,1.527c0,.364-.171.714-.207,1.078a2.386,2.386,0,0,0,1.827,2.219c.985.328,2.055.307,3.047.6,1.913.571,3.268,2.212,4.91,3.354a10.311,10.311,0,0,0,5.63,1.834,1.428,1.428,0,0,0,.828-.164,1.356,1.356,0,0,0,.464-1.006,5.6,5.6,0,0,0-2.02-4.86,2.248,2.248,0,0,1-.714-.785,1.907,1.907,0,0,1-.071-.878,65.088,65.088,0,0,0-.214-12.025,18.551,18.551,0,0,1-.186-3.825,15.636,15.636,0,0,0,.307-3.19,16.285,16.285,0,0,0-.978-3.047,21.361,21.361,0,0,1-.464-5.709,50.039,50.039,0,0,0-1.613-9.769,7.414,7.414,0,0,0-1.52-3.525c-.764-.8-2-1.556-1.706-2.619a3.024,3.024,0,0,1,.714-1.042,4.182,4.182,0,0,0,.878-3.19,1.427,1.427,0,0,0,1.641-.771,25.69,25.69,0,0,0,12.9-14.672A4.766,4.766,0,0,1,417.8,660a5.955,5.955,0,0,1,2.362-1.534c2.669-1.342,4.51-3.861,6.2-6.323a14.706,14.706,0,0,0,2.4-4.589,15.119,15.119,0,0,0,.328-3.311l.15-5.709a3.276,3.276,0,0,0-.107-1.12,2.853,2.853,0,0,0-.621-.913,11.082,11.082,0,0,0-6.094-3.283c-1.563-.278-3.161-.228-4.746-.357-3.069-.257-6.1-1.206-9.177-.985-4.824.357-9.12,3.7-11.418,7.971C396.238,641.375,395.4,642.66,393.684,642.71Z" transform="translate(803.309 19.908)"/><path class="l" d="M173.056,762.854a7.771,7.771,0,0,0,3.283.392c.078-.906,1.3-1.106,2.205-1.063a2.534,2.534,0,0,1,1.3.286c.228.143.4.357.621.507a2.67,2.67,0,0,0,1.285.328l4.724.4a14.146,14.146,0,0,0,6.266-.414,2.047,2.047,0,0,0,1.006-.671c.535-.764,0-1.862-.714-2.419s-1.691-.813-2.433-1.384c-1.641-1.249-1.863-3.568-2.733-5.452a15.734,15.734,0,0,0-2.255-3.276,12.545,12.545,0,0,0-2.234-2.284c-1.891-1.37-4.075-1.341-6.294-1.534-1.57-.143-3.047-.235-4.175,1.156-1.392,1.727-.835,5.21-.749,7.272A52.049,52.049,0,0,0,173.056,762.854Z" transform="translate(863.806 -12.839)"/><path class="p" d="M173.056,762.854a7.771,7.771,0,0,0,3.283.392c.078-.906,1.3-1.106,2.205-1.063a2.534,2.534,0,0,1,1.3.286c.228.143.4.357.621.507a2.67,2.67,0,0,0,1.285.328l4.724.4a14.146,14.146,0,0,0,6.266-.414,2.047,2.047,0,0,0,1.006-.671c.535-.764,0-1.862-.714-2.419s-1.691-.813-2.433-1.384c-1.641-1.249-1.863-3.568-2.733-5.452a15.734,15.734,0,0,0-2.255-3.276,12.545,12.545,0,0,0-2.234-2.284c-1.891-1.37-4.075-1.341-6.294-1.534-1.57-.143-3.047-.235-4.175,1.156-1.392,1.727-.835,5.21-.749,7.272A52.049,52.049,0,0,0,173.056,762.854Z" transform="translate(863.806 -12.839)"/><path class="m" d="M171.727,639.325c-1.427.464-2.07,2.262-1.805,3.761a13.5,13.5,0,0,0,1.905,4.1c2.1,3.761,3.011,8.064,4.774,11.989,1.32,2.933,3.1,5.645,4.41,8.563s2.141,6.258,1.32,9.377c-.385,1.52-1.128,2.919-1.627,4.4a24.981,24.981,0,0,0-.956,5,94.684,94.684,0,0,0-.343,17.241,5.239,5.239,0,0,0,.435,2.041c.293.571.806,1.17.557,1.763-.1.235-.314.407-.421.642-.3.657.307,1.342.856,1.805a1.477,1.477,0,0,1-.928.714,2.191,2.191,0,0,1,.935,2.441c-.492.071-.521.821-.207,1.213s.792.642,1.013,1.085a1.52,1.52,0,0,1-.835,1.913,3.912,3.912,0,0,1-2.276.171,24.687,24.687,0,0,1-3.811-.835,3.425,3.425,0,0,1-1.17-.535,3.475,3.475,0,0,1-1.049-2.312,41.789,41.789,0,0,1-.264-7.136c.207-11.532,0-23.079-.5-34.6a39.624,39.624,0,0,0-3.4-13.445,69,69,0,0,0-3.311-6.423c-2.583-4.753-4.881-9.991-4.282-15.378.064-.578.278-1.277.849-1.37a1.235,1.235,0,0,1,.657.107,30.351,30.351,0,0,1,3.461,1.912A13.116,13.116,0,0,0,171.727,639.325Z" transform="translate(867.048 18.861)"/><path class="p" d="M171.727,639.325c-1.427.464-2.07,2.262-1.805,3.761a13.5,13.5,0,0,0,1.905,4.1c2.1,3.761,3.011,8.064,4.774,11.989,1.32,2.933,3.1,5.645,4.41,8.563s2.141,6.258,1.32,9.377c-.385,1.52-1.128,2.919-1.627,4.4a24.981,24.981,0,0,0-.956,5,94.684,94.684,0,0,0-.343,17.241,5.239,5.239,0,0,0,.435,2.041c.293.571.806,1.17.557,1.763-.1.235-.314.407-.421.642-.3.657.307,1.342.856,1.805a1.477,1.477,0,0,1-.928.714,2.191,2.191,0,0,1,.935,2.441c-.492.071-.521.821-.207,1.213s.792.642,1.013,1.085a1.52,1.52,0,0,1-.835,1.913,3.912,3.912,0,0,1-2.276.171,24.687,24.687,0,0,1-3.811-.835,3.425,3.425,0,0,1-1.17-.535,3.475,3.475,0,0,1-1.049-2.312,41.789,41.789,0,0,1-.264-7.136c.207-11.532,0-23.079-.5-34.6a39.624,39.624,0,0,0-3.4-13.445,69,69,0,0,0-3.311-6.423c-2.583-4.753-4.881-9.991-4.282-15.378.064-.578.278-1.277.849-1.37a1.235,1.235,0,0,1,.657.107,30.351,30.351,0,0,1,3.461,1.912A13.116,13.116,0,0,0,171.727,639.325Z" transform="translate(867.048 18.861)"/><path class="m" d="M144.08,620.892a3.8,3.8,0,0,0-5.245.564,28.69,28.69,0,0,0-2.712,2.383,14.508,14.508,0,0,0-3.24,14.351,28.674,28.674,0,0,0,3.968,7.036l3.14,4.51c4.788,6.879,9.584,13.759,14.6,20.474a.77.77,0,0,0,.542.714c.186.05.407.043.521.193a.556.556,0,0,1,.064.307,4.659,4.659,0,0,1-.278,1.427.664.664,0,0,0-.057.493c.157.378.849.164,1.063.521a.567.567,0,0,1-.228.714.825.825,0,0,0-.392.714c.036.293.514.564.492.921,0,.2-.171.35-.293.507a1.292,1.292,0,0,0,.157,1.648c.328,3.283-1.427,6.387-1.805,9.67-.564,5.159,1.77,10.2,2.055,15.379a4.117,4.117,0,0,0,.321,1.7c.485.892,1.727,1.427,1.684,2.448a9.345,9.345,0,0,1-.35,1.235,9.925,9.925,0,0,0,.186,1.763c0,.592-.5,1.3-1.049,1.07q.621,2.055,1.1,4.146l10.99.906a9.87,9.87,0,0,0-.1-2.969c-.228-1.056-.714-2.048-.956-3.1a3.661,3.661,0,0,1,.435-3.1,1.213,1.213,0,0,1-1.213-1,4.894,4.894,0,0,1,0-1.706c.293-2.855-.913-5.709-.878-8.564.036-2.269.828-4.446,1.235-6.672.856-4.767-.036-9.941,2.084-14.272,1.285-2.626,3.061-5.538,1.62-8.078-.714-1.256-1.962-2.141-2.776-3.3a13.4,13.4,0,0,1-1.491-3.568c-1.7-5.252-4.432-10.1-6.837-15.072a15.866,15.866,0,0,1-1.47-3.961,20.133,20.133,0,0,1-.178-3.654,56,56,0,0,0-.407-6.565,4.786,4.786,0,0,0-2.512-4.282C152.265,624.36,147.969,622.94,144.08,620.892Z" transform="translate(875.199 23.271)"/><path class="l" d="M166.845,768.5a7.768,7.768,0,0,0,3.283.392c.086-.906,1.3-1.106,2.205-1.063a2.532,2.532,0,0,1,1.263.292c.228.143.4.357.628.507a2.625,2.625,0,0,0,1.285.328l4.717.4a14.183,14.183,0,0,0,6.273-.414,2.062,2.062,0,0,0,1-.671c.535-.764,0-1.863-.714-2.419s-1.691-.814-2.441-1.385c-1.634-1.249-1.863-3.568-2.733-5.452a15.735,15.735,0,0,0-2.255-3.276,12.5,12.5,0,0,0-2.227-2.284c-1.9-1.37-4.075-1.342-6.294-1.534-1.577-.143-3.054-.235-4.175,1.156-1.427,1.727-.842,5.209-.756,7.272A53.025,53.025,0,0,0,166.845,768.5Z" transform="translate(865.6 -14.457)"/><rect class="k" width="55.684" height="55.684" transform="translate(1092.033 671.267)"/><path class="e" d="M299.66,689.756c0,6.351-2.976,10.348-7.679,10.348-2.4,0-4.239-1.285-4.56-3.19h-.343a5,5,0,0,1-4.945,3.076c-4.182,0-6.972-3.354-6.972-8.342,0-4.789,2.812-8.121,6.915-8.121a5,5,0,0,1,4.689,2.8h.343v-2.383h3.418v11.1a1.984,1.984,0,0,0,2.141,2.212c2.369,0,3.882-2.854,3.882-7.35,0-7.136-5.352-11.91-13.252-11.91s-13.38,5.709-13.38,13.759c0,8.242,5.509,13.509,14.087,13.509a25.84,25.84,0,0,0,4.66-.4,1.356,1.356,0,0,1,.571,2.648,23.72,23.72,0,0,1-5.367.585c-10.426,0-17.127-6.422-17.127-16.413,0-9.762,6.815-16.463,16.742-16.463C293.044,675.163,299.66,681.122,299.66,689.756Zm-20.8,1.97c0,3.168,1.484,5.088,3.911,5.088,2.555,0,4.168-1.97,4.168-5.088s-1.613-5.045-4.125-5.045-3.954,1.87-3.954,5.045Z" transform="translate(836.668 7.486)"/><circle class="n" cx="10.883" cy="10.883" r="10.883" transform="translate(1070.26 603.373)"/><path class="n" d="M212.731,582.977c-1.563,1.349-3.8,1.427-5.845,1.656a36.532,36.532,0,0,0-12.574,3.639,4.488,4.488,0,0,0-1.427,1,4.117,4.117,0,0,0-.714,1.556,10.29,10.29,0,0,0-.414,3.782,10.9,10.9,0,0,0,1.049,3.568,19.153,19.153,0,0,0,6.751,7.693,4.9,4.9,0,0,0,1.641.785c1.427.3,2.819-.535,4.225-.906a6.923,6.923,0,0,1,3.9.128c1.185.393,2.433,1.113,3.568.635a3.725,3.725,0,0,0,1.627-1.848,62.719,62.719,0,0,0,2.969-6.5,24.636,24.636,0,0,1,1.078-2.526c1.263-2.4,3.447-4.282,4.531-6.751a1.484,1.484,0,0,0,.1-1.27,1.763,1.763,0,0,0-.8-.614,19.077,19.077,0,0,1-4.346-3.411c-.714-.714-2.034-2.541-3.061-2.7C213.866,580.736,213.516,582.306,212.731,582.977Z" transform="translate(858.15 34.504)"/><path class="l" d="M200.285,608.116a6.493,6.493,0,0,1-4.118.05,45.447,45.447,0,0,1-10.348-3.012,5.537,5.537,0,0,1-2.54-1.948,6.23,6.23,0,0,1-.714-2.441l-.6-4.046a24.529,24.529,0,0,1,.186-4.153,1.213,1.213,0,0,0-.235-.906.978.978,0,0,0-.714-.221c-1.634,0-2.619,1.734-3.768,2.9a6.958,6.958,0,0,1-2.312,1.556c-1.049.428-2.341.714-2.762,1.777-.178.435-.157.935-.335,1.37-.714,1.741-3.854,1.163-4.646,2.855-.228.485-.214,1.1-.592,1.484s-1.07.371-1.641.471c-2.269.371-3.375,3-5.316,4.232-1.634,1.042-3.739,1.02-5.495,1.834a21.026,21.026,0,0,1-2.855,1.427,13.493,13.493,0,0,1-3.311.164.892.892,0,0,0-.664.214.914.914,0,0,0-.107.714,20.032,20.032,0,0,0,12.381,15.507,4.362,4.362,0,0,1,1.056.507c.992.714,1.163,2.334,2.284,2.854a2.362,2.362,0,0,0,2.384-.514,20.727,20.727,0,0,0,1.72-1.9,6.852,6.852,0,0,1,3.832-2.012c1.349-.214,2.854-.057,3.946-.885a12.131,12.131,0,0,0,1.242-1.327,7.785,7.785,0,0,1,2.854-1.684,28.549,28.549,0,0,1,8.92-1.884c2.854-.164,5.816.1,8.521-.835a5,5,0,0,0,1.9-1.07,5.71,5.71,0,0,0,1.27-2.205,16.835,16.835,0,0,0,.578-8.871Z" transform="translate(870.853 31.48)"/><path class="l" d="M199.418,592.246c.806-.071,1.613,0,2.419,0,.949,0,1.884-.228,2.854-.235a7.036,7.036,0,0,1,6.637,5.052,1.285,1.285,0,0,1,.043.714.507.507,0,0,1-.549.371,12.058,12.058,0,0,0-1.22-2.448,6.93,6.93,0,0,0-3.654-2.541,9.485,9.485,0,0,0-4.5-.164c-.614.114-1.22.278-1.827.45l-2.962.8c-.535.143-1.07.293-1.591.485-.4.143-1.092.714-1.484.714-.535,0-.1-.464.136-.778a3.811,3.811,0,0,1,1.9-1.377,15.975,15.975,0,0,1,3.8-1.042Z" transform="translate(857.69 31.315)"/><path class="n" d="M209.455,626.575c.714,2.255,1.427,4.51,2.291,6.708a56.758,56.758,0,0,0,5.937,10.819,77.966,77.966,0,0,0,4.9,6.423c2.184,2.576,4.624,5.167,5.395,8.456a42.838,42.838,0,0,1,.485,5.83c.186,1.941.821,4,2.391,5.167a8.885,8.885,0,0,0,3.939,1.3c.985.157,2.219.207,2.733-.649a2.433,2.433,0,0,0,.271-1.128l.236-2.854c.057-.614.271-1.427.885-1.427s.928.792,1.427,1.156a1.549,1.549,0,0,0,2.141-.714,3.618,3.618,0,0,0,.057-2.5,11.86,11.86,0,0,0-6.073-7.55,18.293,18.293,0,0,1-2.969-1.549,9.99,9.99,0,0,1-2.334-2.94c-5.4-8.885-10.826-17.841-14.629-27.482a20.329,20.329,0,0,1-1.506-5.416,34.966,34.966,0,0,1,.235-5.709,32.676,32.676,0,0,0-.921-10.2,8.016,8.016,0,0,0-.978-2.476c-1.563-2.383-5.252-2.733-7.579-1.092a7.807,7.807,0,0,0-3.011,5.509c-.171,1.92.942,3.925,1.506,5.709Q206.872,618.276,209.455,626.575Z" transform="translate(854.989 29.677)"/><path class="m" d="M242.291,564.79c.086-.906-.714-1.727-1.648-2.3a23.017,23.017,0,0,1-2.8-1.713c-.828-.714-1.277-1.649-2.105-2.362a9.277,9.277,0,0,0-3.14-1.563,23.834,23.834,0,0,0-7.507-1.349,13.224,13.224,0,0,0-7.186,1.9,4.283,4.283,0,0,0-1.22,1.135,5,5,0,0,0-.592,1.805,35.68,35.68,0,0,1-1.877,5.709,13.245,13.245,0,0,1-3.568,5.766c-2.034,1.7-5.152,2.676-6.494,4.724a1.534,1.534,0,0,0-.293,1.32c.193.514.814.864,1.377,1.192,3.3,1.9,6.151,4.353,7.622,7.293a8.456,8.456,0,0,1-.671,9.1c-.764,1-1.82,2.184-1.07,3.19,1.135,1.527,5.052.656,5.952,2.269a3.226,3.226,0,0,1,.121,1.67c0,1.691,1.634,3.2,3.618,3.982a20.174,20.174,0,0,0,6.508,1.07,5.623,5.623,0,0,0,.164-4.21,1.684,1.684,0,0,1-.164-.956,2.3,2.3,0,0,1,.714-.92c2.391-2.255,1.884-5.573.45-8.25s-3.661-5.131-4.489-7.95a4.038,4.038,0,0,1,.714-4.139,14.421,14.421,0,0,1,2.048-1.5,7.786,7.786,0,0,0,2.855-3.568c.664-1.855.564-4.089,2.519-5.316s4.489-.828,6.551-1.62A7.021,7.021,0,0,0,242.291,564.79Z" transform="translate(854.687 41.773)"/><circle class="o" cx="11.868" cy="11.868" r="11.868" transform="translate(1146.132 598.541)"/><path class="o" d="M353.661,572.3a15.386,15.386,0,0,0,9.848,6.886l-.892,3.24c-1.541,5.581-3.283,11.489-7.593,15.357a7.179,7.179,0,0,0-1.206-5.552,21.027,21.027,0,0,0-4.025-4.21l-6.829-5.945a1.864,1.864,0,0,1-.514-.571,1.741,1.741,0,0,1,0-1.3c.871-2.712,3.354-4.4,5.366-6.23a18.932,18.932,0,0,0,2.7-3.147C351.919,568.9,352.8,570.848,353.661,572.3Z" transform="translate(815.022 37.613)"/><path class="q" d="M358.194,589.635a6.422,6.422,0,0,1-.35,2.619,1.841,1.841,0,0,1-2.141,1.1c.25-.564-.407-1.206-1.02-1.135a1.92,1.92,0,0,0-1.356,1.149,4.281,4.281,0,0,0-.392,2.655c.193,1.128.842,2.205.671,3.333-.136.935-.828,1.87-.457,2.747a4.411,4.411,0,0,0,.885,1.056,3,3,0,0,1-.321,4.111l9.277.178a6.507,6.507,0,0,0,1.149,4.5,28.352,28.352,0,0,0,21.138,13.8,1.841,1.841,0,0,0-.442,2.812,2.6,2.6,0,0,0,2.969.171,22.514,22.514,0,0,0,2.548-1.905,7.786,7.786,0,0,1,5.224-1.427c1.163.107,2.284.478,3.447.542,3.425.186,6.373-2.284,9.648-3.29,2.4-.714,5.124-.714,7.136-2.241a2.83,2.83,0,0,0,1.327-2.755,4.485,4.485,0,0,0-1-1.613,28.73,28.73,0,0,1-2.676-5,29.824,29.824,0,0,0-6.687-8.949,59.036,59.036,0,0,0-6.622-5.031,11.207,11.207,0,0,0-1.8-1.078,18.439,18.439,0,0,1-2.455-1,13.7,13.7,0,0,1-2.548-2.854c-1.834-2.141-4.653-3.119-6.915-4.8-1.513-1.128-2.854-2.612-4.66-3.161-.878-.264-1.82-.285-2.7-.55-2-.607-3.454-2.384-5.416-3.1-1.549-.571-3.261-.421-4.9-.628A11.418,11.418,0,0,1,363.718,578a6.06,6.06,0,0,0-1.627-.956c-2.476-.714-2.676,3.868-2.912,5.466A45.826,45.826,0,0,0,358.194,589.635Z" transform="translate(812.002 35.624)"/><path class="o" d="M349.955,613.406c.414,4.5-2.99,8.87-2,13.288.214.942.614,1.834.764,2.783.414,2.619-1.149,5.1-2.64,7.286l-12.845,18.8a11.418,11.418,0,0,1-1.827,2.262c-2.455,2.177-6.123,1.948-9.341,2.6a15.991,15.991,0,0,0-6.258,2.769.407.407,0,0,0-.078.557,5.367,5.367,0,0,0,4.653,2.184c.335.442,0,1.1-.464,1.427-.714.478-1.634.607-1.77,1.77a1.984,1.984,0,0,0,.228,1.178,3.653,3.653,0,0,0,2.248,1.556c4.432,1.356,9.22-1.028,12.538-4.282s5.709-7.329,8.963-10.633c1.805-1.827,3.854-3.39,5.709-5.159a67.466,67.466,0,0,0,9.37-12.132,13.5,13.5,0,0,0,2.027-4.132c.343-1.463.186-3.019.585-4.467.514-1.905,1.905-3.425,3.069-5a16.6,16.6,0,0,0,3.49-10.819c-.3-3.861-2.69-7.657-6.323-8.97a5.659,5.659,0,0,0-3.568-.214,8.505,8.505,0,0,0-3.611,2.854l-2.433,2.812a6.678,6.678,0,0,0-1.427,2.141,2.248,2.248,0,0,0,.5,2.391" transform="translate(822.66 27.346)"/><path class="q" d="M369.476,590.439c-1.684.1-3.568.264-4.731,1.427a6.608,6.608,0,0,0-1.185,1.87,18.469,18.469,0,0,0-2.362,7.429,33.5,33.5,0,0,0,.856,6.208c.264,1.72-.407,3.475-.535,5.217A35.612,35.612,0,0,0,368.255,610a22.537,22.537,0,0,1,3.946-2.048c2.005-.671,5.388.478,7.286,1.427.107-1.342-.9-3.675-.792-5a5.473,5.473,0,0,1,.3-1.663A9.914,9.914,0,0,1,380,601.114a6.573,6.573,0,0,0-.592-7.714c-1.691-1.905-4.346-2.619-6.879-2.919a30.076,30.076,0,0,0-4.81-.164" transform="translate(809.619 31.809)"/><path class="m" d="M320.139,553.365l-.271-2.234c1.877.478,3.654-1.106,4.853-2.755s2.305-3.568,4.125-4.282c2.219-.835,4.567.5,6.687,1.6a20.929,20.929,0,0,0,7.671,2.541,5.433,5.433,0,0,1,1.27.207c1.377.492,2.034,2.219,2.234,3.789s.143,3.24.821,4.639c.521,1.056,1.427,1.848,1.941,2.854,1.427,2.8.05,6.644,1.584,9.4l-3.8-3.482c-.35-.321-.842-.656-1.22-.385s-.328.714-.457,1.049a1.991,1.991,0,0,1-2.7.985,7.415,7.415,0,0,1-2.419-2.212,14.786,14.786,0,0,0-6.037-4.574,7.714,7.714,0,0,0-6.387.378c-1.777,1.006-3.076,3.34-5.252,3.418-2.983.114-4.225-5.438-5.6-7.629a2.7,2.7,0,0,0,.785-3.368C318.162,553.229,320.1,553.023,320.139,553.365Z" transform="translate(822.226 45.112)"/><path class="r" d="M729.638,756.243c-.578-2.448-.928-4.589-.928-4.589a9.507,9.507,0,0,0-1.063-4.66v-.671h0V741.4a16.273,16.273,0,0,1,1.242-2.576c.885-1.541,0-7.207,0-7.207s-3.283-7.986-2.491-13.052-6.737-22.5-6.737-22.5a22.23,22.23,0,0,1,.714-5,3.611,3.611,0,0,0,.093-1.042.791.791,0,0,0,0-.128v.043c-.114-3.34-2.755-9.606-2.755-9.606l.357-11.932a35.143,35.143,0,0,0-1.063-16.492c-.964-3.3-1.577-5.93-1.97-7.971-.043-.228-.086-.45-.121-.664,5.659-.864,9.991-1.584,9.991-1.584s-3.283-13.737-5.5-16.142-3.989-9.955-3.989-9.955-1.156-9.705.714-12.538,2.141-7.729,2.141-7.729,4.282-3.09,4.789-4.467a22.617,22.617,0,0,0,1.427-6.094c0-1.634-.535-3.09-.357-3.953s-1.242-4.118-.528-5.666a4.149,4.149,0,0,0,.278-1.492.094.094,0,0,0,0-.043h0a21.205,21.205,0,0,0-.378-4.032,11.416,11.416,0,0,0-4.21-2.255l-.093-.364-.243-.963a3.261,3.261,0,0,0-.421-.25v-1.784l.664-3.14c1.313-5.445-5.966-6.258-5.966-6.258a3.839,3.839,0,0,0-2.062-1.813c-1.427-.514-.243,8.207.442,8.763a28.37,28.37,0,0,1,2.855,4.5h0l.128.221a2.91,2.91,0,0,0-.335.35l.278,1.891.043.293a7.765,7.765,0,0,0-1.163,1.977,4.218,4.218,0,0,1,1.063,3.1,9.706,9.706,0,0,0,.442,3.775c-.078-.093-1.013-1.106-1.948-.856s-3.568,1.028-3.568,1.028-1.955.342-1.777.771-1.327,2.319-1.327,2.319l-5.245-5c-.057-.15-.107-.3-.157-.45a11.985,11.985,0,0,1-.45-2.141,11.662,11.662,0,0,0,1.67-.535,3.617,3.617,0,0,0,1.427-.928,5.666,5.666,0,0,0,.842-2.262,31.368,31.368,0,0,1,1.948-4.339,14.115,14.115,0,0,0,1.013-7.743,5.152,5.152,0,0,0-.8-2.284c-.856-1.178-2.412-1.656-3.568-2.6s-1.855-2.369-3.175-3.076a6.258,6.258,0,0,0-3.982-.343,21.282,21.282,0,0,0-7.429,2.7,3.819,3.819,0,0,1-2.491.821,3.362,3.362,0,0,1-1.791-1.313.352.352,0,0,1,0-.078l-.064-.064a9.4,9.4,0,0,0-.814,3.925v.842a1.568,1.568,0,0,1,0,.186h0a1.249,1.249,0,0,1-.043.278,2.019,2.019,0,0,1-.485.714,3.169,3.169,0,0,0-.428.585.632.632,0,0,1,.071-.214,3.1,3.1,0,0,0-.549,1.648,1.641,1.641,0,0,0,.4,1.185,5.707,5.707,0,0,0,.849.714,9.989,9.989,0,0,0-.15,1.741,10.148,10.148,0,0,0,4.938,8.656l.179.45a12.482,12.482,0,0,1,.949,5.709.964.964,0,0,1-.064.421l-.186.214h0s-8.663.086-10.7-1.762-5.145,4.51-5.145,4.51-3.1.607-3.725,0-4.282-.086-4.282-.086a7.85,7.85,0,0,0-5.409-1.97,15.893,15.893,0,0,0-3.975-2.212h0l-.1-.036h0a4.438,4.438,0,0,0-1.955-.243s-4.282-3.525-5.495-5.409-7.136-8.9-7.186-8.935v-.335l-.071-1.021a4,4,0,0,1-.528.05,1.24,1.24,0,0,0-.121-.357,19.257,19.257,0,0,0-1.256-2.855s0-1.284.378-1.606-.157-5.045-.157-5.045-3.839-8.97-7.272-2.276c0,0-6.5,4.332-1.049,9.384,0,0,2.141,1.049,2.483,1.884.207.542.942,2.062,1.427,3.069l.221.45-.064.05.086.842v.328c-1.028.578-1.72,1.156-1.556,1.6a9.394,9.394,0,0,1,.621,2.319s7.543,9.441,8.521,13.48c0,0,20.224,12.017,26.875,12.881l-1.149,6.009a47.556,47.556,0,0,0-.264,4.9c.086,1.284-.8,7.136-.8,7.136s-1.156,8.563-2.141,9.784-.8,6.358-.8,6.358a42.891,42.891,0,0,1-1.327,7.293,18.534,18.534,0,0,0-.264,7.3s-3.375,7.729,4.7,2.49c0,0,3.961-.243,8.563-.4v2.348c-.057,4.424-.086,10.526.114,15.143.357,8.157,2.854,24.263,2.854,24.263v8.107a11.344,11.344,0,0,0-.228,2.319,15.03,15.03,0,0,0,2.184,8.121l.621,5.409a22.409,22.409,0,0,1,1.484,5.709,2.806,2.806,0,0,1-.064.514,3.828,3.828,0,0,0-.071.828c-.079,2.455,1.427,8.335,1.427,8.335s.093,5.923.978,6.266c.756.293-1.013,3.418-1.541,4.282a1.426,1.426,0,0,1-.036-.171c-.064.114-.107.179-.107.179a4.165,4.165,0,0,0-.278,1.5,2.141,2.141,0,0,0,.985,2.084c1.684,1.035,2.59,1.891,1.163,2.234a14.151,14.151,0,0,0-1.563.328c0-.064-.057-.136-.078-.2a.956.956,0,0,0-.557.992,4.389,4.389,0,0,0,.535,2.005,21.411,21.411,0,0,0,2.4,4.382l.714-.079a3.363,3.363,0,0,1-.4.714,2.76,2.76,0,0,1-1,.885,3.2,3.2,0,0,1-1.213.421,3.383,3.383,0,0,0-2.512,1.22c-.885,1.142-1.427,2.7.307,4.075l6.344,2.184s10.911,1.427,10.333-1.028-.928-4.589-.928-4.589a9.683,9.683,0,0,0-.892-4.346,4.288,4.288,0,0,0-.385-.642l.385-.043s.8-5.409,1.863-6.423c.25-.236.307-.421.243-.564.114-.293-.164-.464-.521-.564l-.078.214a5.369,5.369,0,0,0-1.056-.114s-.357-2.854.792-3.868a1.092,1.092,0,0,0,.228-.842,4.85,4.85,0,0,0-.121-1.156l-.043.071a41.2,41.2,0,0,0-2.548-6.658s-.086-2.576.621-3.611-.086-13.994-.086-13.994.264-6.266-.535-9.184.978-6.358.978-6.358v-.228s-.043-.385-.107-.992v.064c-.179-1.663-.514-4.667-.764-6.052-.357-1.977.086-11.418.086-11.418l1.6-4.032,2.854,6.951,3.012,9.277a7.886,7.886,0,0,1,1.534,3.939c0,.1,0,.2,0,.293a4.7,4.7,0,0,0,0,.621,5.538,5.538,0,0,0,.921,3.3s.8,4.382,2.041,5.495a4.946,4.946,0,0,1,1.242,3.261s1.506,6.358,2.219,7.472c.6.942.628,3.525.621,4.282h0v.235s.207,2.269.2,4.182v.664a6.66,6.66,0,0,1-.186,1.541v-.228a15.892,15.892,0,0,0-.457,3.961c-.043,2.284.307,5,1.691,6.573,2.4,2.747,3.9,2.4,3.9,2.4s-1.156,3.432-2.576,4.125a.857.857,0,0,0-.15.093.4.4,0,0,0-.036-.2,1.677,1.677,0,0,0-.414,1.285,9.191,9.191,0,0,0,1.755,5.088,2.812,2.812,0,0,0,1.2.714l-.221.136a5.007,5.007,0,0,1-.492.235,2.329,2.329,0,0,1-.714.186,3.383,3.383,0,0,0-2.512,1.22c-.885,1.142-1.427,2.7.307,4.075l6.344,2.184S730.188,758.727,729.638,756.243Z" transform="translate(733.072 44.425)"/><path class="s" d="M708.921,841.37l-6.144-2.184c-1.691-1.37-1.149-2.933-.293-4.075a3.233,3.233,0,0,1,2.426-1.22,3,3,0,0,0,1.178-.421,2.782,2.782,0,0,0,.97-.885,4.517,4.517,0,0,0,.714-2.376s6.744-1.97,8.563,0a5.037,5.037,0,0,1,.821,1.2,9.991,9.991,0,0,1,.856,4.346s.342,2.141.9,4.589S708.921,841.37,708.921,841.37Z" transform="translate(712.113 -36.648)"/><path class="s" d="M751.032,837.169l-6.137-2.184c-1.7-1.37-1.156-2.933-.3-4.068a3.225,3.225,0,0,1,2.433-1.227,2.224,2.224,0,0,0,.714-.186,3.622,3.622,0,0,0,.471-.235c1.72-.942,1.677-3.261,1.677-3.261s6.737-1.977,8.563,0a4.761,4.761,0,0,1,.642.878,9.8,9.8,0,0,1,1.035,4.667s.342,2.141.9,4.589S751.032,837.169,751.032,837.169Z" transform="translate(700.054 -35.444)"/><path class="f" d="M718.5,830.208a5.035,5.035,0,0,1,.821,1.2h0l-10.1,1.17a4.517,4.517,0,0,0,.714-2.376S716.663,828.238,718.5,830.208Z" transform="translate(709.952 -36.648)"/><path class="f" d="M760.685,826.84v1.891c-1.57,2.59-9.17,2.027-11.375.714a3.6,3.6,0,0,0,.471-.235c1.72-.942,1.677-3.261,1.677-3.261s6.737-1.977,8.563,0a4.771,4.771,0,0,1,.664.892Z" transform="translate(698.471 -35.427)"/><path class="m" d="M746.341,775.856a16.849,16.849,0,0,0-1.206,2.576v6.787c-1.713,2.854-10.647,1.891-11.846.342s-2.491-5.581-1.12-6.266,2.491-4.125,2.491-4.125-1.427.342-3.775-2.4-1.627-8.842-1.2-10.3,0-6.351,0-6.351.086-3.433-.6-4.553-2.141-7.472-2.141-7.472a5.072,5.072,0,0,0-1.2-3.261c-1.2-1.12-1.977-5.495-1.977-5.495a5.631,5.631,0,0,1-.856-3.689c.257-2.141-1.463-4.467-1.463-4.467l-2.919-9.277-2.748-6.958-1.541,4.032s-.435,9.448-.086,11.418.856,7.208.856,7.208-1.72,3.44-.942,6.358.514,9.184.514,9.184.771,12.967.086,14-.6,3.568-.6,3.568,3.518,7.557,2.4,8.563-.771,3.868-.771,3.868,2.4,0,1.377,1.028-1.805,6.423-1.805,6.423l-10.4,1.313a21.98,21.98,0,0,1-2.326-4.382c-1.37-3.176.257-2.854,1.641-3.176s.507-1.2-1.128-2.234-.714-3.347-.714-3.347,2.49-4.21,1.634-4.553-.949-6.266-.949-6.266-1.713-7.044-1.284-8.927-1.377-6.423-1.377-6.423l-.6-5.409a14.872,14.872,0,0,1-1.855-10.233V724.6s-2.4-16.142-2.755-24.263c-.214-5.224-.157-12.353-.086-16.806.043-2.491.086-4.146.086-4.146l37.109-3.861a30.728,30.728,0,0,0,.678,5.509c.378,2.034.971,4.674,1.9,7.971a36.253,36.253,0,0,1,1.035,16.485l-.342,11.932s3.261,7.986,2.576,10.7a22.66,22.66,0,0,0-.714,5s7.3,17.434,6.53,22.5,2.412,13.017,2.412,13.017S747.2,774.343,746.341,775.856Z" transform="translate(714.021 7.4)"/><path class="p" d="M737.22,752.836l11.261-1.506S742.116,757.853,737.22,752.836Z" transform="translate(701.933 -14.31)"/><path class="f" d="M749.925,735.87s.393,3.989-2.055,5.495C747.87,741.365,752.245,740.68,749.925,735.87Z" transform="translate(698.883 -9.883)"/><path class="f" d="M744.437,718.06S735,725.831,731.591,725.2,744.437,718.06,744.437,718.06Z" transform="translate(703.68 -4.782)"/><path class="f" d="M714.637,758.55s-7.136,1.634-7.379,4.51S714.637,758.55,714.637,758.55Z" transform="translate(710.516 -16.378)"/><path class="p" d="M716.694,808.72s-10.126,1.891-7.25,3.183a49.09,49.09,0,0,0,7.6,2.312S720.305,814.386,716.694,808.72Z" transform="translate(710.035 -30.745)"/><g class="t" transform="translate(1408.993 686.46)"><path d="M706.259,815.41a2.006,2.006,0,0,1-.928-1.47l-.1.186s-.949,2.312.714,3.347c.186.114.364.236.528.35.3-.057.628-.1.935-.178C708.764,817.33,707.894,816.466,706.259,815.41Z" transform="translate(-697.822 -718.7)"/><path d="M724.876,814.37c.278-.257.264-.921.1-1.77a4.789,4.789,0,0,0-.578,2.491A1.907,1.907,0,0,1,724.876,814.37Z" transform="translate(-703.386 -718.316)"/><path d="M722.594,755.22a11.819,11.819,0,0,0-.714,3.154,12.474,12.474,0,0,1,.785-2.141A6.369,6.369,0,0,0,722.594,755.22Z" transform="translate(-702.667 -701.884)"/><path d="M755.316,748.522a4.082,4.082,0,0,0,.093-.942c-.128.642-.214,1.242-.278,1.763C755.187,749.072,755.244,748.8,755.316,748.522Z" transform="translate(-712.189 -699.696)"/><path d="M722.446,797.235a5.4,5.4,0,0,0,.257-1.905,6.29,6.29,0,0,0-.492,2.405A2.314,2.314,0,0,1,722.446,797.235Z" transform="translate(-702.761 -713.37)"/><path d="M719.6,820.68a34.346,34.346,0,0,0-1.177,5.274L708.04,827.16a21.507,21.507,0,0,1-2.326-4.382,7.667,7.667,0,0,1-.293-.756c-.621.286-.871.928-.05,2.854a21.255,21.255,0,0,0,2.326,4.375l10.376-1.206s.778-5.409,1.805-6.423C720.385,821.073,720.064,820.816,719.6,820.68Z" transform="translate(-697.789 -720.63)"/><path d="M703.051,765.109s.086,5.93.942,6.273h0c.435-.978.714-1.905.335-2.062-.856-.343-.942-6.266-.942-6.266s-1.72-7.043-1.284-8.935-1.377-6.423-1.377-6.423l-.6-5.409a14.9,14.9,0,0,1-1.891-10.219v-8.342s-2.4-16.142-2.747-24.3c-.221-5.224-.157-12.353-.086-16.806V680.48h-.292s-.043,1.649-.086,4.146c-.071,4.446-.135,11.582.086,16.806.342,8.157,2.747,24.3,2.747,24.3v8.328a14.85,14.85,0,0,0,1.934,10.3l.6,5.409s1.806,4.546,1.37,6.423S703.051,765.109,703.051,765.109Z" transform="translate(-694.956 -680.48)"/><path d="M748.307,824.872a9.992,9.992,0,0,1-1.641-4.082c-1.063.956.157,4.674,1.3,6.144s10.134,2.491,11.853-.35v-1.634C757.492,827.255,749.449,826.335,748.307,824.872Z" transform="translate(-709.648 -720.661)"/><path d="M766.939,812.879a17.158,17.158,0,0,0-1.2,2.576v1.206c.193-.442.471-1.028.856-1.72a5.2,5.2,0,0,0,.378-2.141Z" transform="translate(-715.227 -718.373)"/><path d="M747.9,809.718a16.51,16.51,0,0,0,.849-2.041s-1.427.343-3.782-2.4c-1.684-2-1.777-5.773-1.541-8.242-.428,1.463-1.12,7.557,1.2,10.3C746.142,809.14,747.277,809.6,747.9,809.718Z" transform="translate(-708.71 -713.857)"/><path d="M737.515,769.192a47.175,47.175,0,0,1,.171,5.088c.057-.335.121-.607.171-.8.435-1.427,0-6.351,0-6.351s.086-3.44-.6-4.553-2.141-7.472-2.141-7.472a5.072,5.072,0,0,0-1.2-3.261c-1.2-1.12-1.977-5.495-1.977-5.495a5.63,5.63,0,0,1-.863-3.689c.264-2.141-1.427-4.467-1.427-4.467l-2.919-9.277L723.949,722l-1.548,4.032s0,.507-.05,1.306l1.256-3.276,2.747,6.951,2.919,9.277s1.713,2.319,1.427,4.46a5.646,5.646,0,0,0,.892,3.654s.771,4.375,1.97,5.495a5.1,5.1,0,0,1,1.206,3.261s1.427,6.351,2.141,7.472S737.515,769.192,737.515,769.192Z" transform="translate(-702.801 -692.37)"/></g><path class="u" d="M750.309,563.531l-.642,3.14.036,1.427v1.028l-3.568.371-.4-.714h0a30.358,30.358,0,0,0-2.783-4.5c-.664-.557-1.841-9.277-.428-8.756a3.74,3.74,0,0,1,2,1.806S751.579,558.079,750.309,563.531Z" transform="translate(700.605 41.769)"/><path class="f" d="M751.3,573.971l-3.568.371-.4-.714h0a3.154,3.154,0,0,1,3.953-.649Z" transform="translate(699.038 36.887)"/><path class="v" d="M752.108,575.795l-4.717,1.1-.1-.714-.271-1.891a3.247,3.247,0,0,1,4.574-.628l.235.964Z" transform="translate(699.127 36.762)"/><path class="u" d="M642.32,561.187l-5.038,2.712-.457-.956c-.485-1.006-1.2-2.519-1.427-3.061-.3-.835-2.4-1.891-2.4-1.891-5.281-5.045,1.006-9.377,1.006-9.377,3.333-6.7,7.043,2.269,7.043,2.269s.514,4.731.15,5.045-.364,1.613-.364,1.613a19.608,19.608,0,0,1,1.22,2.854C642.241,560.894,642.32,561.187,642.32,561.187Z" transform="translate(732.386 44.455)"/><path class="f" d="M644.7,566.911l-5.038,2.712-.457-.956c.714-.592,3.233-2.64,4.061-2.548a5.926,5.926,0,0,0,1.2,0C644.626,566.618,644.7,566.911,644.7,566.911Z" transform="translate(730.001 38.731)"/><path class="v" d="M645.279,568.576l-5.666,2.79-.114-1.22-.078-.835s3.283-2.819,4.282-2.712a5.263,5.263,0,0,0,1.484,0l.064,1.021Z" transform="translate(729.941 38.593)"/><path class="u" d="M726.155,588.244s-24.713,2.79-20.1,1.292c3.219-1.049,4.5-3.09,4.767-5.359a13.052,13.052,0,0,0-.921-5.709A24.811,24.811,0,0,0,707.694,574s18.89-10.39,15.115-.942a14.817,14.817,0,0,0-1.07,4.474,12.619,12.619,0,0,0,.478,4.524,13.494,13.494,0,0,0,3.939,6.187Z" transform="translate(711.022 37.879)"/><path class="f" d="M723.695,573.051a14.822,14.822,0,0,0-1.071,4.474c-1.784,1.491-3.732,1.427-6.237,1.427-1.927,0-4.06.471-5.595-.457a24.814,24.814,0,0,0-2.212-4.467S727.47,563.6,723.695,573.051Z" transform="translate(710.135 37.879)"/><circle class="u" cx="10.219" cy="10.219" r="10.219" transform="translate(1415.968 597.021)"/><path class="f" d="M726.155,593.018s-24.713,2.79-20.1,1.292c3.219-1.049,4.5-3.09,4.767-5.359,1.227-1.334,3.7-2.3,5.288-2.8a7.371,7.371,0,0,1,4.474-.071,5.964,5.964,0,0,1,1.627.714A13.494,13.494,0,0,0,726.155,593.018Z" transform="translate(711.022 33.105)"/><path class="f" d="M752.217,576.384l-4.717,1.1-.1-.714a4.168,4.168,0,0,1,4.539-1.556Z" transform="translate(699.018 36.173)"/><path class="f" d="M645.31,568.986l-5.666,2.79-.114-1.22a41.7,41.7,0,0,1,5.709-2.526Z" transform="translate(729.909 38.183)"/><path class="f" d="M732.958,680.979c-9.57,1.506-23.193,3.475-25.355,2.819-1.791-.549-7.515-.492-12.5-.321.043-2.491.086-4.146.086-4.146l37.109-3.861a30.736,30.736,0,0,0,.664,5.509Z" transform="translate(713.996 7.415)"/><path class="q" d="M725.985,648.055s-31.514,5.409-34.9,4.375-20.745.093-20.745.093c-7.814,5.231-4.546-2.491-4.546-2.491a18.619,18.619,0,0,1,.257-7.3,44.72,44.72,0,0,0,1.285-7.3s-.171-5.152.771-6.351,2.062-9.791,2.062-9.791.864-5.838.778-7.136.257-4.888.257-4.888l1.113-6.016c-6.423-.856-26.019-12.881-26.019-12.881-.942-4.032-8.242-13.48-8.242-13.48a9.938,9.938,0,0,0-.6-2.319c-.514-1.37,7.215-4.118,7.215-4.118s5.752,7.043,6.951,8.927,5.324,5.409,5.324,5.409a4.161,4.161,0,0,1,1.891.25h.1a15.23,15.23,0,0,1,3.839,2.205,7.443,7.443,0,0,1,5.238,1.977s3.525-.514,4.125.086,3.568,0,3.568,0,3.011-6.351,5-4.51,10.355,1.763,10.355,1.763c1.12-1.484,3.832-2.548,5.538-3.1a7.372,7.372,0,0,1,4.474-.071,5.536,5.536,0,0,1,1.77.856l5.081,5s1.427-1.891,1.292-2.319,1.72-.771,1.72-.771,2.49-.771,3.433-1.035,1.813.771,1.884.856a10.052,10.052,0,0,1-.428-3.775,4.282,4.282,0,0,0-1.028-3.09c3.033-7.336,9.82-1.128,9.82-1.128s.771,4.032.086,5.581.714,4.81.514,5.666.343,2.319.343,3.946a23.486,23.486,0,0,1-1.37,6.1c-.521,1.37-4.639,4.46-4.639,4.46s-.257,4.9-2.062,7.729S716.772,622,716.772,622s1.713,7.557,3.861,9.991S725.985,648.055,725.985,648.055Z" transform="translate(730.509 38.062)"/><path class="f" d="M695.426,598.757s-.942-2.854-1.806-3.1a20.317,20.317,0,0,1-2.491-1.113l.557-1.056s3.226.885,3.739,1.827S695.426,598.757,695.426,598.757Z" transform="translate(715.133 30.892)"/><path class="f" d="M669.867,591.181c-.171.863-7.807,1.634-7.807,1.634l3.861-3.875h0l.1.036h0A15.226,15.226,0,0,1,669.867,591.181Z" transform="translate(723.457 32.195)"/><circle class="w" cx="0.685" cy="0.685" r="0.685" transform="translate(1370.503 610.908)"/><circle class="w" cx="0.685" cy="0.685" r="0.685" transform="translate(1371.381 612.286)"/><circle class="w" cx="0.685" cy="0.685" r="0.685" transform="translate(1372.244 613.549)"/><circle class="w" cx="0.685" cy="0.685" r="0.685" transform="translate(1373.143 614.926)"/><circle class="w" cx="0.557" cy="0.557" r="0.557" transform="translate(1454.211 614.976)"/><circle class="w" cx="0.557" cy="0.557" r="0.557" transform="translate(1454.297 616.246)"/><circle class="w" cx="0.557" cy="0.557" r="0.557" transform="translate(1454.368 617.51)"/><path class="f" d="M697.21,633.47c-.079-.1,19.268,24.342,34.3,10.219C731.514,643.689,707.765,646.907,697.21,633.47Z" transform="translate(713.391 19.442)"/><path class="f" d="M681.63,651.28s11.582.314,12.8,3.647v3.468a2.219,2.219,0,0,1-2.141,0c-1.17-.628-8.171-4.189-10.64-2.476Z" transform="translate(717.853 14.342)"/><path class="q" d="M681.93,651.28s11.075.3,12.239,3.475v3.311a2.141,2.141,0,0,1-2.062,0c-1.12-.607-7.85-4-10.176-2.362Z" transform="translate(717.767 14.342)"/><path class="f" d="M690.49,616a37.306,37.306,0,0,0,4.489,7.7,30.079,30.079,0,0,0,7.036,6.794S690.683,617.62,690.49,616Z" transform="translate(715.316 24.445)"/><path class="f" d="M685.18,597.18s1.934,8.342,6.908,11.175Z" transform="translate(716.836 29.835)"/><path class="f" d="M680.93,598.359c-.05-.157-1.72,6.594,6.423,10.333C687.353,608.692,683.913,607.522,680.93,598.359Z" transform="translate(718.103 29.498)"/><path class="f" d="M751.9,590.518c-.128,0,4.01,2.64,5.138,3.861C757.037,594.379,754.347,590.347,751.9,590.518Z" transform="translate(697.73 31.744)"/><path class="s" d="M711.771,573.184a2.177,2.177,0,0,0,.792,1.384,2.232,2.232,0,0,0,.963.214c3.119.193,6.358.328,9.277-.871a3.454,3.454,0,0,0,1.427-.935,5.56,5.56,0,0,0,.756-2.248,35.04,35.04,0,0,1,1.891-4.339,14.579,14.579,0,0,0,1.006-7.793,5.216,5.216,0,0,0-.778-2.284c-.828-1.178-2.334-1.656-3.425-2.6s-1.8-2.376-3.069-3.083a5.966,5.966,0,0,0-3.854-.342,20.356,20.356,0,0,0-7.193,2.7,3.562,3.562,0,0,1-2.4.821,3.3,3.3,0,0,1-1.77-1.356,9.5,9.5,0,0,0-.764,4.446,1.316,1.316,0,0,1-.478,1.384c-.771.892-1.249,2.305-.492,3.2.335.392.842.607,1.163,1.006.578.714.378,1.748.364,2.669a1.427,1.427,0,0,0,.228.906,1.327,1.327,0,0,0,1.263.3,3.452,3.452,0,0,1,1.342-.129,2.262,2.262,0,0,1,1.17.9A16.314,16.314,0,0,1,711.771,573.184Z" transform="translate(711.654 43.313)"/><g class="x" transform="translate(1414.859 595.665)"><path d="M724.459,575.615a3.375,3.375,0,0,1-1.427.928c-2.854,1.206-6.123,1.063-9.234.871a2.1,2.1,0,0,1-.963-.214,2.141,2.141,0,0,1-.8-1.377,15.924,15.924,0,0,0-2.6-6.044,2.226,2.226,0,0,0-1.17-.9,3.452,3.452,0,0,0-1.342.129,1.327,1.327,0,0,1-1.263-.3,1.385,1.385,0,0,1-.221-.906c0-.921.207-1.955-.371-2.669-.321-.4-.828-.614-1.163-1.006a2.013,2.013,0,0,1-.193-2.055,2.35,2.35,0,0,0-.15,2.74c.335.393.842.607,1.163,1.006.578.714.378,1.748.364,2.669a1.427,1.427,0,0,0,.228.906,1.32,1.32,0,0,0,1.263.3,3.453,3.453,0,0,1,1.342-.128,2.262,2.262,0,0,1,1.17.9,16.2,16.2,0,0,1,2.6,6.044,2.177,2.177,0,0,0,.792,1.384,2.233,2.233,0,0,0,.963.214c3.119.193,6.358.328,9.277-.871a3.5,3.5,0,0,0,1.427-.935,2.718,2.718,0,0,0,.443-.828A.513.513,0,0,1,724.459,575.615Z" transform="translate(-703.176 -555.776)"/><path d="M705.159,558.2a1.426,1.426,0,0,0,.314-.521,2.146,2.146,0,0,0,0-.671,9.42,9.42,0,0,1,.478-3.7l-.057-.064a9.418,9.418,0,0,0-.764,4.446A2.994,2.994,0,0,1,705.159,558.2Z" transform="translate(-703.729 -553.25)"/></g><path class="f" d="M712.62,591.028s12.767,1.691,13.916-.228" transform="translate(708.978 31.662)"/><path class="f" d="M747.4,583.72s7.086,0,8.649,2.669" transform="translate(699.018 33.69)"/></g></svg>