<svg xmlns="http://www.w3.org/2000/svg" xmlns:xlink="http://www.w3.org/1999/xlink" width="358" height="297.953" viewBox="0 0 358 297.953"><defs><style>.a{opacity:0.7;}.b{fill:url(#a);}.c,.x{fill:#535461;}.d,.z{opacity:0.1;}.e{fill:#e0e0e0;}.f{fill:url(#b);}.g{fill:url(#c);}.h{fill:#eee;}.i,.v{fill:#329ce3;}.j{fill:url(#f);}.k{fill:url(#g);}.l{fill:url(#k);}.m{fill:url(#l);}.n{fill:url(#m);}.o{fill:url(#n);}.p{fill:url(#o);}.q{fill:url(#r);}.r{fill:url(#s);}.s{fill:url(#u);}.t{opacity:0.4;}.u{fill:url(#v);}.v{opacity:0.2;}.w,.z{fill:#f55f44;}.w{opacity:0.05;}.x{opacity:0.25;}.y{fill:url(#x);}</style><linearGradient id="a" x1="0.5" y1="1" x2="0.5" gradientUnits="objectBoundingBox"><stop offset="0" stop-color="gray" stop-opacity="0.251"/><stop offset="0.54" stop-color="gray" stop-opacity="0.122"/><stop offset="1" stop-color="gray" stop-opacity="0.102"/></linearGradient><linearGradient id="b" x1="0.5" x2="0.5" y2="1" gradientUnits="objectBoundingBox"><stop offset="0" stop-color="#e0e0e0"/><stop offset="0.31" stop-color="#fccc63"/><stop offset="0.77" stop-color="#f55f44"/></linearGradient><linearGradient id="c" x1="0.5" y1="0" x2="0.5" y2="1" xlink:href="#b"/><linearGradient id="f" x1="0.5" x2="0.5" y2="0" xlink:href="#a"/><linearGradient id="g" x1="0.5" x2="0.5" y2="1" gradientUnits="objectBoundingBox"><stop offset="0" stop-color="#f2f2f2"/><stop offset="0.31" stop-color="#e6e6e6"/><stop offset="0.77" stop-color="#ccc"/></linearGradient><linearGradient id="k" x1="0.5" y1="0.001" x2="0.5" y2="1" xlink:href="#g"/><linearGradient id="l" x1="0.5" y1="0" x2="0.5" y2="1" xlink:href="#g"/><linearGradient id="m" x1="0.5" y1="0" x2="0.5" y2="1" xlink:href="#g"/><linearGradient id="n" x1="0.5" y1="0" x2="0.5" y2="1" xlink:href="#g"/><linearGradient id="o" x1="0.5" y1="0" x2="0.5" y2="1" xlink:href="#g"/><linearGradient id="r" x1="0.5" x2="0.5" y2="0" xlink:href="#a"/><linearGradient id="s" x1="0.5" x2="0.5" y2="1" gradientUnits="objectBoundingBox"><stop offset="0" stop-color="#f2f2f2"/><stop offset="0.31" stop-color="#e0e0e0"/><stop offset="0.77" stop-color="#b3b3b3"/></linearGradient><linearGradient id="u" x1="0.5" y1="0" x2="0.5" y2="1" xlink:href="#g"/><linearGradient id="v" x1="0.5" y1="0.999" x2="0.5" y2="-0.001" xlink:href="#a"/><linearGradient id="x" x1="0.501" y1="1.001" x2="0.501" y2="0.001" xlink:href="#a"/></defs><g transform="translate(-447 -1256.484)"><g class="a" transform="translate(563.735 1275.046)"><path class="b" d="M548.562,228.517a58.263,58.263,0,0,0-6.578-27.087,33.408,33.408,0,0,0-5.417-7.867,3.869,3.869,0,0,0-4.411-.871,3.978,3.978,0,0,0-1.548,1,35.075,35.075,0,0,0-5.282,7.577,58.488,58.488,0,0,0-6.915,27.83v5.827h-3.738V167.208a90.962,90.962,0,0,0-9.4-40.63,51.1,51.1,0,0,0-7.708-11.79,5.344,5.344,0,0,0-8.033,0,52.752,52.752,0,0,0-7.538,11.349,91.145,91.145,0,0,0-9.867,41.7v67.086H468.9v-6.106a58.488,58.488,0,0,0-6.915-27.83,35.262,35.262,0,0,0-5.282-7.576,3.869,3.869,0,0,0-4.489-.82l.135.074a3.99,3.99,0,0,0-1.262.882,34.371,34.371,0,0,0-5.417,7.867A58.263,58.263,0,0,0,439.09,228.5V329.743h11.531l-1.258,8.323v24.885h9.426V338.067l-1.258-8.323H468.9v-92.2h3.231v91.785h9.209l-1.323,8.733v24.889h9.43V338.067l-1.323-8.733h12.41l-1.323,8.733v24.885h9.43V338.067l-1.323-8.733h7.352V237.544H518.4v92.338h3.03v-.139h10.018l-1.258,8.323v24.885h9.43V338.067l-1.258-8.323h10.2Z" transform="translate(-439.089 -112.969)"/></g><path class="c" d="M343.3,600.029H334.37l1.594-10.839H341.7Z" transform="translate(242.015 895.263)"/><g class="d" transform="translate(577.534 1485.726)"><path d="M337.34,595.51h6.628l-.445-3.03h-5.739Z" transform="translate(-337.34 -592.48)"/></g><path class="c" d="M541.057,600.029H532.13l1.594-10.839h5.739Z" transform="translate(120.779 895.263)"/><g class="d" transform="translate(654.058 1485.726)"><path d="M535.1,595.51h6.628l-.445-3.03h-5.739Z" transform="translate(-535.1 -592.48)"/></g><path class="c" d="M418.281,600.029H409.35l1.594-10.839h5.742Z" transform="translate(196.049 895.263)"/><g class="d" transform="translate(606.548 1485.726)"><path d="M412.32,595.51h6.632l-.445-3.03h-5.742Z" transform="translate(-412.32 -592.48)"/></g><path class="c" d="M465.247,600.029H456.32l1.594-10.839h5.738Z" transform="translate(167.254 895.263)"/><g class="d" transform="translate(624.723 1485.726)"><path d="M459.29,595.51h6.632l-.449-3.03h-5.738Z" transform="translate(-459.29 -592.48)"/></g><rect class="c" width="63.77" height="2.55" transform="translate(585.312 1394.855)"/><path class="e" d="M658.4,316.588a3.595,3.595,0,0,0-5.328,0,34.238,34.238,0,0,0-5,7.375,58.267,58.267,0,0,0-6.543,27.087v98.166h28.22V350.644a58.042,58.042,0,0,0-6.234-26.394A33.193,33.193,0,0,0,658.4,316.588Z" transform="translate(0.541 1037.973)"/><path class="e" d="M458.006,316.588a3.595,3.595,0,0,1,5.328,0,34.239,34.239,0,0,1,5,7.375,58.266,58.266,0,0,1,6.543,27.087v98.166H446.649V350.644a58.043,58.043,0,0,1,6.234-26.394A32.664,32.664,0,0,1,458.006,316.588Z" transform="translate(120.012 1037.973)"/><path class="c" d="M309.65,346.93l6.694.031v8.258H309.65Z" transform="translate(257.17 1043.78)"/><path class="c" d="M364.86,346.93l6.694.031v8.258H364.86Z" transform="translate(223.323 1043.78)"/><path class="c" d="M504.11,346.93l6.7.031v8.258h-6.7Z" transform="translate(137.956 1043.78)"/><path class="c" d="M559.32,346.93l6.7.031v8.258h-6.7Z" transform="translate(104.11 1043.78)"/><g class="d" transform="translate(579.078 1353.255)"><path d="M488,323.638a34.1,34.1,0,0,0-5-7.375,3.583,3.583,0,0,0-4.256-.8,3.8,3.8,0,0,1,1.076.8,34.24,34.24,0,0,1,5,7.375,58.267,58.267,0,0,1,6.543,27.087v98.158h3.188V350.737a58.267,58.267,0,0,0-6.551-27.1Z" transform="translate(-478.74 -315.085)"/></g><g class="d" transform="translate(641.741 1353.521)"><path d="M650.09,324.33a34.1,34.1,0,0,1,5-7.375,3.792,3.792,0,0,1,1.234-.882,3.587,3.587,0,0,0-4.1.882,34.235,34.235,0,0,0-5,7.375,58.266,58.266,0,0,0-6.543,27.087v98.158h2.871V351.432a58.268,58.268,0,0,1,6.539-27.1Z" transform="translate(-640.679 -315.771)"/></g><rect class="f" width="8.927" height="24.231" transform="translate(576.385 1495.292)"/><rect class="g" width="8.927" height="24.231" transform="translate(605.399 1495.292)"/><rect class="g" width="8.927" height="24.231" transform="translate(623.574 1495.292)"/><rect class="g" width="8.927" height="24.231" transform="translate(652.909 1495.292)"/><path class="h" d="M551.55,116.756a4.968,4.968,0,0,0-7.6,0,51.964,51.964,0,0,0-7.135,11.055,90.919,90.919,0,0,0-9.341,40.611V325.946h40.278V167.787a90.471,90.471,0,0,0-8.9-39.55A49.787,49.787,0,0,0,551.55,116.756Z" transform="translate(70.464 1160.84)"/><rect class="i" width="21.015" height="9.631" rx="4.816" transform="translate(607.287 1295.095)"/><g class="a" transform="translate(499.662 1481.99)"><path class="j" d="M485.746,682.659h0a32.117,32.117,0,0,0-63.8,5.444v.472h0a29.623,29.623,0,0,0-3.521.755,29.346,29.346,0,0,0-55.179-5,29.019,29.019,0,0,0-8.1-1.85h0a31.878,31.878,0,0,0-2.21-7.294,29.331,29.331,0,0,0-58.476-.774,31.9,31.9,0,0,0-2.871,10.2h0a29.362,29.362,0,0,0-16.829,35.6h235.1a29.354,29.354,0,0,0-24.123-37.561Z" transform="translate(-273.505 -647.773)"/></g><circle class="k" cx="28.182" cy="28.182" r="28.182" transform="translate(524.344 1483.42)"/><circle class="k" cx="30.859" cy="30.859" r="30.859" transform="translate(521.527 1491.31)"/><circle class="k" cx="30.859" cy="30.859" r="30.859" transform="translate(646.938 1491.31)"/><circle class="k" cx="28.182" cy="28.182" r="28.182" transform="translate(648.064 1496.666)"/><path class="l" d="M558.207,727.668a28.131,28.131,0,0,1-11.655,22.83H513.494a28.193,28.193,0,1,1,44.708-22.83Z" transform="translate(86.193 802.535)"/><path class="m" d="M465.76,765.592a28.056,28.056,0,0,1-1.207,8.173H410.6v-.019a28.182,28.182,0,0,1,26.808-36.335h.174q1.184,0,2.349.1a27.886,27.886,0,0,1,7.774,1.776A28.189,28.189,0,0,1,465.76,765.592Z" transform="translate(142.85 779.265)"/><path class="n" d="M648.567,780.174q0,1.265-.112,2.5a.069.069,0,0,1,0,.035H592.316c-.077-.836-.116-1.683-.116-2.534a28.155,28.155,0,0,1,23.96-27.861,28.542,28.542,0,0,1,4.21-.317c.72,0,1.436.027,2.144.077a28.205,28.205,0,0,1,23.565,16.538c.116.255.228.515.333.774a28.045,28.045,0,0,1,2.155,10.784Z" transform="translate(30.782 770.32)"/><path class="o" d="M786.242,765.6a28.053,28.053,0,0,1-1.207,8.172H731.094a28.359,28.359,0,0,1-.724-13.365c.047-.244.093-.491.147-.731a28.193,28.193,0,0,1,27.559-22.254c.886,0,1.757.039,2.62.124.387.031.774.077,1.161.128A28.186,28.186,0,0,1,786.242,765.6Z" transform="translate(-53.629 779.259)"/><path class="p" d="M340.739,773.746c.093-.294.174-.588.255-.886a28.2,28.2,0,0,0-34.744-34.47,26.877,26.877,0,0,0-3.293,1.138,28.209,28.209,0,0,0-16.167,34.207h53.949Z" transform="translate(218.755 779.287)"/><g class="a" transform="translate(716.732 1484.732)"><circle class="b" cx="5.17" cy="5.17" r="5.17"/></g><circle class="k" cx="4.79" cy="4.79" r="4.79" transform="translate(717.112 1485.111)"/><g class="a" transform="translate(739.938 1534.146)"><circle class="q" cx="5.638" cy="5.638" r="5.638"/></g><circle class="r" cx="5.355" cy="5.355" r="5.355" transform="translate(740.22 1534.428)"/><g class="a" transform="translate(498.14 1501.46)"><circle class="b" cx="6.195" cy="6.195" r="6.195"/></g><circle class="s" cx="5.916" cy="5.916" r="5.916" transform="translate(498.418 1501.738)"/><g class="t" transform="translate(707.2 1256.484)"><path class="u" d="M840.37,71.741h0a17.154,17.154,0,0,0-5.061-4.481h0A16.995,16.995,0,1,0,826.8,98.99c.36,0,.72,0,1.076-.035A16.991,16.991,0,0,0,840.362,71.76Z" transform="translate(-809.845 -65)"/></g><path class="v" d="M844.3,83.428A16.063,16.063,0,0,1,829.253,99.46c-.335.023-.676.035-1.016.035a16.062,16.062,0,1,1,8.033-29.977h0a16.214,16.214,0,0,1,4.787,4.237h0A15.982,15.982,0,0,1,844.3,83.428Z" transform="translate(-104.078 1190.032)"/><path class="w" d="M837.219,82.327a17.493,17.493,0,0,0-2.4,1.261,3.792,3.792,0,0,0-1.281,1.161,1.509,1.509,0,0,0-.031,1.637,2.311,2.311,0,0,0,1.807.654,3.428,3.428,0,0,0,3.281-1.083l1.381-1.254c.48-.433,1.006-1.033.8-1.645a1.388,1.388,0,0,0-1.161-.774,4.872,4.872,0,0,0-3.455.608" transform="translate(-117.016 1180.944)"/><circle class="w" cx="0.844" cy="0.844" r="0.844" transform="translate(713.59 1278.959)"/><circle class="w" cx="3.099" cy="3.099" r="3.099" transform="translate(728.527 1271.347)"/><path class="w" d="M873.409,77.116h0a4.229,4.229,0,1,1-4.787-4.256h0a16.211,16.211,0,0,1,4.787,4.256Z" transform="translate(-136.428 1186.666)"/><path class="w" d="M868.366,130.406a16.024,16.024,0,0,1-12.116,6.779c-.019-.221-.031-.445-.031-.669a7.611,7.611,0,0,1,12.146-6.11Z" transform="translate(-131.075 1152.307)"/><circle class="x" cx="1.973" cy="1.973" r="1.973" transform="translate(724.719 1387.882)"/><circle class="x" cx="1.973" cy="1.973" r="1.973" transform="translate(461.592 1439.733)"/><circle class="x" cx="1.973" cy="1.973" r="1.973" transform="translate(800.949 1450.955)"/><circle class="x" cx="1.973" cy="1.973" r="1.973" transform="translate(556.751 1357.444)"/><circle class="x" cx="1.973" cy="1.973" r="1.973" transform="translate(550.27 1312.07)"/><circle class="x" cx="1.973" cy="1.973" r="1.973" transform="translate(494.467 1401.971)"/><path class="x" d="M842.479,384.343h-1.757V382.59h-.716v1.753H838.25v.72h1.757v1.753h.716v-1.753h1.757Z" transform="translate(-66.888 1021.919)"/><path class="x" d="M918.479,227.343h-1.757V225.59h-.716v1.753H914.25v.72h1.757v1.753h.716v-1.753h1.757Z" transform="translate(-113.479 1118.168)"/><path class="x" d="M594.849,139.627h-1.757V137.87h-.716v1.757H590.62v.716h1.757V142.1h.716v-1.757h1.757Z" transform="translate(84.921 1171.944)"/><path class="x" d="M792.955,358.853H791.2V357.1h-.716v1.753H788.73v.72h1.753v1.753h.716v-1.753h1.757Z" transform="translate(-36.53 1037.546)"/><path class="x" d="M626.9,509.613h-1.753V507.86h-.716v1.753H622.67v.72h1.757v1.753h.716v-1.753H626.9Z" transform="translate(65.273 945.123)"/><path class="x" d="M162.229,198.623h-1.757V196.87h-.716v1.753H158v.716h1.757V201.1h.716v-1.757h1.757Z" transform="translate(350.138 1135.774)"/><path class="x" d="M4.229,257.623H2.473V255.87H1.757v1.753H0v.716H1.757V260.1h.716v-1.757H4.229Z" transform="translate(447 1099.604)"/><path class="x" d="M224.866,443.337h-1.757V441.58h-.716v1.757H220.64v.716h1.753v1.757h.716v-1.757h1.757Z" transform="translate(311.737 985.755)"/><circle class="k" cx="5.355" cy="5.355" r="5.355" transform="translate(740.22 1534.428)"/><g class="t" transform="translate(536.496 1388.013)"><path class="y" d="M383.273,408.145h0a8.168,8.168,0,0,0-2.411-2.136h0a8.1,8.1,0,1,0-4.048,15.091h.511a8.1,8.1,0,0,0,5.947-12.951Z" transform="translate(-368.695 -404.91)"/></g><path class="v" d="M385.212,413.725a7.65,7.65,0,0,1-7.166,7.635h-.484a7.65,7.65,0,1,1,3.827-14.278h0a7.738,7.738,0,0,1,2.279,2.016h0A7.612,7.612,0,0,1,385.212,413.725Z" transform="translate(167.051 982.398)"/><path class="z" d="M381.813,413.194a8.32,8.32,0,0,0-1.161.6,1.807,1.807,0,0,0-.611.546.72.72,0,0,0,0,.774,1.1,1.1,0,0,0,.859.31,1.633,1.633,0,0,0,1.548-.515l.658-.6c.228-.209.48-.491.387-.774a.693.693,0,0,0-.557-.387,2.321,2.321,0,0,0-1.645.29" transform="translate(160.915 978.077)"/><circle class="z" cx="0.402" cy="0.402" r="0.402" transform="translate(539.578 1398.74)"/><circle class="z" cx="1.478" cy="1.478" r="1.478" transform="translate(546.69 1395.114)"/><path class="z" d="M399.074,410.8h0a2.012,2.012,0,1,1-2.279-2.02h0A7.74,7.74,0,0,1,399.074,410.8Z" transform="translate(151.644 980.731)"/><path class="z" d="M396.7,436.107a7.631,7.631,0,0,1-5.769,3.231c0-.1,0-.213,0-.321a3.626,3.626,0,0,1,5.8-2.91Z" transform="translate(154.17 964.424)"/><g class="d" transform="translate(598.139 1334.649)"><rect width="39.856" height="1.548"/></g></g></svg>