<svg xmlns="http://www.w3.org/2000/svg" xmlns:xlink="http://www.w3.org/1999/xlink" width="325.294" height="283.303" viewBox="0 0 325.294 283.303"><defs><style>.a,.f{fill:#329ce3;}.a,.c,.o{opacity:0.1;}.b{fill:#535461;}.d{fill:#fff;}.e{opacity:0.2;}.g{fill:url(#a);}.h{fill:#4c4c78;}.i{fill:#ffb9b9;}.j{fill:#cbcdda;}.k{opacity:0.05;}.l{fill:none;stroke:blue;stroke-miterlimit:10;}.m{fill:#474463;}.n{fill:#472727;}</style><linearGradient id="a" x1="-2.392" y1="1" x2="-2.392" gradientUnits="objectBoundingBox"><stop offset="0" stop-color="gray" stop-opacity="0.251"/><stop offset="0.54" stop-color="gray" stop-opacity="0.122"/><stop offset="1" stop-color="gray" stop-opacity="0.102"/></linearGradient></defs><g transform="translate(-1127 -1271.639)"><ellipse class="a" cx="134.188" cy="10.167" rx="134.188" ry="10.167" transform="translate(1149.4 1534.608)"/><path class="a" d="M88.584,66.072c-8.362,10.691-10.477,24.244-10.592,37.239-.081,9.163,1.065,19.1,8.069,25.861,9.218,8.891,26.917,10.644,31.484,22.005,4.05,10.1-5.374,20.253-14.427,27.378S83.668,194.4,85.359,205.014c1.072,6.775,6.95,12.093,12.814,16.558,11.147,8.507,23.677,15.949,37.8,19.569,25.627,6.56,53.307-.231,77.32-10.514,14.782-6.329,31.945-14.1,46.625-7.588,3.876,1.718,7.165,4.315,10.739,6.465,10.39,6.217,23.079,8.507,35.428,10.45,18.1,2.858,37.123,5.244,54.563.088s32.512-20.232,29.842-36.314c-2.517-15.149-18.543-25.023-31.313-35.371-4.5-3.651-9.091-8.49-7.969-13.8.891-4.213,5.084-7.146,8.823-9.868,19.677-14.407,34.138-34.3,40.786-56.1,3.14-10.29,4.274-22.145-2.732-30.822-5.651-7-15.337-10.361-24.549-13.128-17.094-5.135-34.615-9.473-52.594-10.644s-36.553,1.062-52.513,8.469c-7.654,3.556-14.592,8.238-22.322,11.661-21.945,9.718-47.8,8.411-72.277,6.877-8.745-.548-17.885-1.521-25.477-5.693-6.542-3.6-10.281-6.179-18.381-6.581C114.1,47.939,97.674,54.428,88.584,66.072Z" transform="translate(1049.012 1237.942)"/><path class="b" d="M257.442,305.6l-.343.772-2.221,4.985-23.3,52.255-39.537,105.81-5.651.048,39.559-105.858,26.957-60.466,1.972,1.065,2.221,1.2Z" transform="translate(998.663 1071.65)"/><path class="b" d="M482.305,469.474l-4.651-.048-39.54-105.81-22.686-50.884-2.832-6.356-.346-.772.346-.187,2.832-1.531,1.361-.735,26.552,60.466Z" transform="translate(843.166 1071.65)"/><rect class="b" width="5.056" height="180.537" transform="translate(1253.541 1360.587)"/><path class="b" d="M476.213,207.69c-3.552,0-6.43,3.147-6.433,7.027v2.511c0,3.883,2.88,7.03,6.435,7.03s6.436-3.147,6.436-7.03l0-2.511C482.644,210.837,479.765,207.694,476.213,207.69Zm4.826,9.528a4.848,4.848,0,1,1-9.658,0v-2.511a4.848,4.848,0,1,1,9.658,0Z" transform="translate(779.278 1123.154)"/><path class="c" d="M375.266,336.059h-5.228l-22.686-50.884v50.884H342.3V283.8L319,336.059H313.37l26.957-60.466,1.972,1.065V261.38h5.053v14.948l1.361-.735Z" transform="translate(911.241 1099.207)"/><path class="c" d="M482.646,229.08v2.259c0,3.883-2.88,7.03-6.435,7.03s-6.436-3.147-6.436-7.03V229.08h1.608v2.259a4.848,4.848,0,1,0,9.658,0V229.08Z" transform="translate(779.281 1109.042)"/><rect class="b" width="194.427" height="95.888" transform="translate(1158.279 1338.626)"/><rect class="d" width="187.072" height="87.354" transform="translate(1161.728 1341.637)"/><g class="e" transform="translate(1180.202 1351.134)"><rect class="f" width="8.845" height="4.4"/></g><g class="e" transform="translate(1180.202 1359.645)"><rect class="f" width="8.845" height="4.4"/></g><g class="e" transform="translate(1180.202 1368.151)"><rect class="f" width="8.845" height="4.4"/></g><g class="e" transform="translate(1180.202 1376.658)"><rect class="f" width="8.845" height="4.4"/></g><g class="e" transform="translate(1180.202 1385.168)"><rect class="f" width="8.845" height="4.4"/></g><g class="e" transform="translate(1180.202 1393.675)"><rect class="f" width="8.845" height="4.4"/></g><g class="e" transform="translate(1180.202 1402.182)"><rect class="f" width="8.845" height="4.4"/></g><g class="e" transform="translate(1180.202 1410.688)"><rect class="f" width="8.845" height="4.4"/></g><g class="e" transform="translate(1196.854 1415.092)"><rect class="f" width="8.845" height="4.4"/></g><g class="e" transform="translate(1212.433 1415.092)"><rect class="f" width="8.845" height="4.4"/></g><g class="e" transform="translate(1228.01 1415.092)"><rect class="f" width="8.845" height="4.4"/></g><g class="e" transform="translate(1243.59 1415.092)"><rect class="f" width="8.845" height="4.4"/></g><g class="e" transform="translate(1259.167 1415.092)"><rect class="f" width="8.845" height="4.4"/></g><g class="e" transform="translate(1274.747 1415.092)"><rect class="f" width="8.845" height="4.4"/></g><g class="e" transform="translate(1290.324 1415.092)"><rect class="f" width="8.845" height="4.4"/></g><g class="e" transform="translate(1305.904 1415.092)"><rect class="f" width="8.845" height="4.4"/></g><g class="e" transform="translate(1321.481 1415.092)"><rect class="f" width="8.845" height="4.4"/></g><rect class="f" width="8.845" height="27.576" transform="translate(1196.854 1383.113)"/><rect class="f" width="8.845" height="40.339" transform="translate(1212.433 1370.353)"/><rect class="f" width="8.845" height="51.047" transform="translate(1228.01 1359.645)"/><rect class="f" width="8.845" height="45.494" transform="translate(1243.59 1365.194)"/><rect class="f" width="8.845" height="55.154" transform="translate(1259.167 1355.537)"/><g class="e" transform="translate(1274.747 1376.658)"><rect class="f" width="8.845" height="34.03"/></g><g class="e" transform="translate(1290.324 1376.658)"><rect class="f" width="8.845" height="34.03"/></g><g class="e" transform="translate(1305.904 1376.658)"><rect class="f" width="8.845" height="34.03"/></g><g class="e" transform="translate(1321.481 1376.658)"><rect class="f" width="8.845" height="34.03"/></g><path class="b" d="M453.685,308.39l-75.735,5.09v1.613l77.348-3.352Z" transform="translate(866.781 1068.193)"/><path class="g" d="M787.341,250.026s3.963-7.118,2.91-18.286-4.863-29.243-4.863-29.243,1.654-10.126-7.318-11.549a30.277,30.277,0,0,1-9.564-3.872,9.644,9.644,0,0,1-3.427-3.743s-.053.167-.156.473q-.132-.23-.243-.473s-.022.061-.056.17L763.1,180.91s-.209.242-.561.64a17.832,17.832,0,0,1-1.558-3.062,7.611,7.611,0,0,0,1.112-.388,2.168,2.168,0,0,0,.907-.633,2.645,2.645,0,0,0,.411-1.119,14.843,14.843,0,0,0,.206-3.934,21.133,21.133,0,0,1-.209-3.079c.068-1.106.427-2.174.477-3.284a8.845,8.845,0,0,0-1.9-5.359c-.654-.922-1.39-1.78-1.956-2.766-.492-.857-.851-1.8-1.38-2.637A8.228,8.228,0,0,0,753.2,151.8a17.8,17.8,0,0,0-6.458.231,49.5,49.5,0,0,1-5.608.953c-1.633.1-2.963-.5-4.458.681a4.829,4.829,0,0,0-1.738,3.4,1.962,1.962,0,0,0,.047.681,5.062,5.062,0,0,0,.311.664c.664,1.429-.346,3.127-.215,4.723a3.026,3.026,0,0,0,2.555,2.749c-.059.136-.125.269-.181.408a15.269,15.269,0,0,0,.654,12.824,12.888,12.888,0,0,0,9.9,6.935l.58.487c1.308,1.106,2.779,2.43,4.2,3.869l-.028.024-.231-.143a12.428,12.428,0,0,1-1.358,1.021,12.019,12.019,0,0,1-5.807,2.147s-4.262,2.467-5.729,10.6c-2.106,2.062-6.614,5.785-12.57,6.754-8.371,1.361-18.692,1.807-18.692,1.807s-.084.163-.2.463l-.953-.191a2.037,2.037,0,0,1-.041.34l-.374-.184c-2.956-1.412-8.863-3.471-9.611,2.2-1,7.608,5.639,6.734,5.639,6.734a29.064,29.064,0,0,1,4.028-1.337l.371-.078a2.335,2.335,0,0,0,.262.558h.9a11.879,11.879,0,0,0,1.131,2.008l21.054-.5a20.281,20.281,0,0,1,6.919-.313c-1.449,11.828-3.159,24.8-3.159,24.8s-3.583,20.542-1.075,22.689a35.618,35.618,0,0,1,4.443-1.3,24.049,24.049,0,0,0,.368,3.78l1.6,11.471s.623,11.719,2.707,18.715l1.838,9.562,1.539,7.227.866,12.267a126.3,126.3,0,0,1,2.573,15.8c.813,8.241,5.228,21.559,5.816,23.312-1.508,2.331-4.6,6.285-8.489,6.693-5.545.585-5.679,4.236-1.8,5.55s12.031,0,12.031,0l11.5-3.107c-.346,2.317-.527,4.148-.274,4.345.735.585,11.9,3.743,12.3-1.313q.047-.626.084-1.215a27.932,27.932,0,0,0-1.168-9.562c-.09-.3-.171-.609-.243-.915a5.619,5.619,0,0,0,.455-.643s.8-13.652,1.405-18.545c.047-.391.078-.868.093-1.405.277-5.866-1.682-21.3-1.682-21.3s-2.421-10.038-2.33-14.652a4.769,4.769,0,0,1,.177-1.13,1.354,1.354,0,0,0-.031-.245.7.7,0,0,1,.047-.194,117.875,117.875,0,0,1-1.056-14.652,12.32,12.32,0,0,1,.311-2.416,17.278,17.278,0,0,0,.3-3.154c.156-3.743-.025-10.208-.274-16.272.028-.1.056-.2.078-.323a3.439,3.439,0,0,0-.153-1.429c-.019-.391-.034-.779-.053-1.164.1-.385.187-.793.262-1.215h.162v.024s10.474-.548,12.882-3.614c0,0-2.433-8.258-3.782-14.972Zm-45.136-25.687-.165-.065c.265-1.021.579-2.208.935-3.454C742.673,222.168,742.411,223.393,742.205,224.339Zm10.63-33.853.047.048-.05-.031ZM765.919,367.6c-.564-2.12-2.8-10.763-2.732-14.883a4.547,4.547,0,0,1,.171-1.055,8.561,8.561,0,0,0,.312-2.3c.224-4.3-1.284-12.008-1.284-12.008s-3.374-10.4-3.115-18.65c0-.208.022-.415.034-.623.056-.783.1-1.63.131-2.525v-.017c.128-3.188.1-7.027.016-10.606l-.019-.133c-.115-4.74-.33-9.007-.421-10.695.311,2.44,2.305,17.626,3.165,20.11a55.124,55.124,0,0,0,2.607,12.93l2.343,15.4s.6,18.327,1.6,23.509c.449,2.307.829,3.862,1.112,4.876-.405,2.065-1.059,5.526-1.5,8.391-.259-1.868-1.168-8.987-2.421-11.719Z" transform="translate(622.791 1160.163)"/><path class="h" d="M855.31,782.992s-3.91,7.741-9.408,8.32-5.629,4.2-1.788,5.5,11.926,0,11.926,0l11.527-3.11s-1.392-12.447-3.246-13.1S855.31,782.992,855.31,782.992Z" transform="translate(523.384 745.246)"/><path class="h" d="M925.918,786.475S923,800.8,923.737,801.383s11.792,3.689,12.19-1.3q.047-.63.084-1.2a27.742,27.742,0,0,0-1.159-9.476,8.217,8.217,0,0,1-.449-2.923C934.588,784.451,925.918,786.475,925.918,786.475Z" transform="translate(466.827 741.906)"/><path class="i" d="M870.64,221.5s-8.944,24-7.352,16.289c1.053-5.1-5.754-11.886-10.461-15.87-2.4-2.042-4.246-3.338-4.246-3.338s16.792-21.383,15.6-12.158a15.065,15.065,0,0,0,.916,7.445A19.178,19.178,0,0,0,870.64,221.5Z" transform="translate(518.488 1125.515)"/><path class="i" d="M710.081,338.07a4.707,4.707,0,0,0-2.047.139,28.855,28.855,0,0,0-3.991,1.324s-6.583.868-5.589-6.673c.738-5.621,6.592-3.58,9.524-2.185,1,.48,1.657.881,1.657.881Z" transform="translate(621.914 1043.032)"/><path class="c" d="M730.674,341.054a4.706,4.706,0,0,0-2.047.139c-.716-1.974-.171-6.652-.056-7.534,1,.48,1.657.881,1.657.881Z" transform="translate(601.321 1040.048)"/><path class="j" d="M731.57,333.57l-1.723-.34s-.882,6.465.271,8.166H732.1Z" transform="translate(600.453 1040.332)"/><path class="h" d="M823.358,366.393s-5.265-3.44-5.894.9-1.458,11.76-1.458,11.76l-1.458,9.443-1.888,18.919.265,3.219s5.608-2.062,6.922-1.337,2.386-7.959,2.386-7.959l2.181-8.973.33-19.028Z" transform="translate(543.218 1019.306)"/><path class="c" d="M823.358,366.393s-5.265-3.44-5.894.9-1.458,11.76-1.458,11.76l-1.458,9.443-1.888,18.919.265,3.219s5.608-2.062,6.922-1.337,2.386-7.959,2.386-7.959l2.181-8.973.33-19.028Z" transform="translate(543.218 1019.306)"/><path class="h" d="M764.6,303.4s-5.464,6.731-13.76,8.085-18.534,1.793-18.534,1.793a10.567,10.567,0,0,0,1.143,10.419l20.873-.5s4.62-1.1,8.2,0Z" transform="translate(599.14 1060.011)"/><path class="k" d="M764.6,303.4s-5.464,6.731-13.76,8.085-18.534,1.793-18.534,1.793a10.567,10.567,0,0,0,1.143,10.419l20.873-.5s4.62-1.1,8.2,0Z" transform="translate(599.14 1060.011)"/><path class="l" d="M692.29,384.58" transform="translate(626.088 1006.454)"/><path class="c" d="M864.213,213.659c-2.037,4.764-5.58,8.275-10.717,8.275-.227,0-.449,0-.67-.017-2.4-2.042-4.246-3.338-4.246-3.338s16.792-21.383,15.6-12.158C863.814,209.246,863.394,211.539,864.213,213.659Z" transform="translate(518.488 1125.515)"/><path class="i" d="M848.862,186.992c-.005,7.721-5.739,13.976-12.808,13.972s-12.8-6.266-12.794-13.987S829,173,836.064,173a12.25,12.25,0,0,1,9.061,4.091,14.633,14.633,0,0,1,3.737,9.9Z" transform="translate(535.92 1146.04)"/><path class="j" d="M864.757,326.67s-28.549,2.753-29.6-1.228,2.913-14.761,2.913-14.761l-1.29-15.05-.047-.575s3.576-16.282,3.446-17.582c-.125-1.171,5.757-14.832,6.966-17.626.143-.323.218-.5.218-.5l.227.143.1.065,1.4.891,5.523-1.429,6.658-3.808.623,41.652Z" transform="translate(527.848 1091.804)"/><path class="c" d="M867.547,268.711a2.213,2.213,0,0,0-2.717,1.555,23.251,23.251,0,0,1-1.059,2.678l-.76,4.954-1.393,7.826-1.028,34.622.464,6.149,2.551-4.954.464-32.363v-4.025a31.4,31.4,0,0,1,2.125-10.106l.355-.909,2.218-3.114Z" transform="translate(510.219 1082.944)"/><path class="h" d="M866.277,267.431a2.212,2.212,0,0,0-2.717,1.555,23.051,23.051,0,0,1-1.062,2.678l-.76,4.958-1.393,7.826-1.025,34.623.464,6.152,2.551-4.971.464-32.343v-4.036a31.574,31.574,0,0,1,2.125-10.106l.358-.908,2.218-3.11Z" transform="translate(511.094 1083.788)"/><path class="c" d="M888.234,241.31s-6.757,7.826-9.144,8.755c0,0,1.193,5.934,2.386,7.091,0,0,7.091-7.9,8.346-8.537l1.053-2.814Z" transform="translate(497.483 1100.974)"/><path class="j" d="M888.234,240s-6.757,7.826-9.144,8.755c0,0,1.193,5.934,2.386,7.091,0,0,7.091-7.9,8.346-8.537l1.053-2.811Z" transform="translate(497.483 1101.838)"/><path class="c" d="M851.635,267.37l-.068.2-2.165,6.339-3.872,11.961s-.034.122-.1.34c-.642,2.178-4.09,14-4.77,17.429l-.047-.575s3.576-16.282,3.446-17.582c-.125-1.171,5.757-14.832,6.966-17.626.193-.143.343-.265.446-.357Z" transform="translate(523.975 1083.781)"/><path class="h" d="M830.6,267.36l-2.237,6.547-3.872,11.96s-.034.122-.1.34c-.679,2.321-4.552,15.567-4.863,17.99-.352,2.661-5.221,17.044-5.221,17.044l-2.782,24.9c-2.492-2.113,1.047-22.458,1.047-22.458s3.975-30.172,4.916-40.21,6.016-12.971,6.016-12.971a12,12,0,0,0,5.754-2.127,12.2,12.2,0,0,0,1.346-1.021Z" transform="translate(544.611 1083.788)"/><path class="c" d="M870.331,546.731c-.595,4.849-1.389,18.375-1.389,18.375-2.782,4.556-8.944,2.1-8.944,2.1s-.66-1.361-1.654-6.513-1.589-23.3-1.589-23.3l-2.321-15.244a54.454,54.454,0,0,1-2.583-12.808c-.935-2.678-3.181-20.26-3.181-20.26s.935,15.772.333,24.094,3.044,19.521,3.044,19.521,2.056,10.494.994,13.75,2.651,16.711,2.651,16.711c-.312,3.91-10.86,2.317-10.86,2.317s-4.963-14.547-5.832-23.3a125.4,125.4,0,0,0-2.551-15.652l-.86-12.158-1.527-7.186-1.819-9.477c-2.056-6.945-2.682-18.558-2.682-18.558l-1.592-11.4c-1.041-5.635.312-12.25,1.209-15.71.39-1.5.7-2.416.7-2.416.913.708,6.14,1.538,8.845,2.212a14.235,14.235,0,0,0,4.517.395,93.067,93.067,0,0,0,20.185-4.042c.445-.146.682-.231.682-.231l.14,1.3.33,3.1.589,5.509s1.788,29.376.729,33.346.729,17.354.729,17.354c-.994,3.175,2.119,16.078,2.119,16.078S870.929,541.882,870.331,546.731Z" transform="translate(532.938 964.647)"/><path class="m" d="M870.331,545.513c-.595,4.849-1.389,18.375-1.389,18.375-2.782,4.56-8.944,2.1-8.944,2.1a32.589,32.589,0,0,1-1.654-6.509c-.994-5.148-1.589-23.3-1.589-23.3l-2.321-15.265a55.439,55.439,0,0,1-2.583-12.825c-.935-2.678-3.181-20.26-3.181-20.26s.935,15.772.333,24.095,3.044,19.535,3.044,19.535,2.056,10.494.994,13.75,2.651,16.714,2.651,16.714c-.312,3.906-10.86,2.314-10.86,2.314S839.869,549.7,839,540.944a125.388,125.388,0,0,0-2.552-15.652l-.86-12.154-1.527-7.163-1.819-9.477c-2.056-6.948-2.682-18.562-2.682-18.562l-1.592-11.4c-1.041-5.635.312-12.25,1.209-15.71.39-1.5.7-2.412.7-2.412.913.708,6.14,1.535,8.845,2.208a14.136,14.136,0,0,0,4.517.395,93.074,93.074,0,0,0,20.185-4.042l.682-.228.14,1.3.33,3.107.589,5.509s1.788,29.372.729,33.346.729,17.354.729,17.354c-.994,3.171,2.119,16.074,2.119,16.074S870.929,540.658,870.331,545.513Z" transform="translate(532.938 965.439)"/><path class="c" d="M851.32,187.017a14.958,14.958,0,0,1-1.695,6.969,6.283,6.283,0,0,1-5.608-1.48,29.762,29.762,0,0,1-2.561-3.467,20.167,20.167,0,0,0-1.829-1.97,5.856,5.856,0,0,0-1.442-1.147,1.812,1.812,0,0,0-1.729-.02c-.7.429-.935,1.385-1.343,2.147a2.713,2.713,0,0,1-1.467,1.4,1.49,1.49,0,0,1-1.754-.65c-.433-.813-.115-2.082-.841-2.579a4.422,4.422,0,0,0-.592-.265c-.935-.463-1.044-1.834-1.125-2.957a1.926,1.926,0,0,0-.573-1.47c-.424-.3-.981-.146-1.486-.136a1.767,1.767,0,0,1-.445-.037c2.452-6.037,8.437-9.377,14.352-8.009s10.148,7.07,10.15,13.674Z" transform="translate(533.462 1146.015)"/><path class="n" d="M820.479,156.657a4.788,4.788,0,0,0-1.723,3.382,1.9,1.9,0,0,0,.047.664,4.646,4.646,0,0,0,.312.66c.654,1.419-.346,3.1-.218,4.682a2.953,2.953,0,0,0,2.8,2.722c.5,0,1.059-.163,1.486.136a1.92,1.92,0,0,1,.573,1.47c.081,1.123.184,2.494,1.122,2.957a5,5,0,0,1,.592.265c.729.5.411,1.769.844,2.579a1.49,1.49,0,0,0,1.754.65,2.7,2.7,0,0,0,1.464-1.4c.4-.766.642-1.7,1.346-2.147a1.8,1.8,0,0,1,1.729.017,5.873,5.873,0,0,1,1.442,1.15,19.8,19.8,0,0,1,1.829,1.97,30.018,30.018,0,0,0,2.561,3.464,6.6,6.6,0,0,0,7.246.977,2.186,2.186,0,0,0,.9-.626,2.633,2.633,0,0,0,.408-1.113,14.711,14.711,0,0,0,.206-3.9,21.079,21.079,0,0,1-.209-3.062c.065-1.1.424-2.154.474-3.25A8.829,8.829,0,0,0,845.6,163.6c-.648-.915-1.377-1.763-1.938-2.743-.489-.851-.844-1.786-1.368-2.61a8.133,8.133,0,0,0-5.408-3.461,17.622,17.622,0,0,0-6.4.231,47.928,47.928,0,0,1-5.57.943C823.28,156.085,821.962,155.483,820.479,156.657Z" transform="translate(539.028 1158.191)"/><path class="c" d="M861,267.36l-2.237,6.547-3.872,11.961s-.034.123-.1.34v.017l4.872-17.851A12.181,12.181,0,0,0,861,267.36Z" transform="translate(514.213 1083.788)"/><path class="i" d="M937.052,481.514s.231,7.921-1.723,9.912l-5.2-10.708,4.362-2.317Z" transform="translate(462.344 944.559)"/><path class="c" d="M915.452,331.817c-2.386,3.039-12.773,3.583-12.773,3.583L892.4,317.706s-2.433-1.844-7-10.15a33.078,33.078,0,0,1-4.165-19.48c.255-4.777,3.115-18.507,3.115-18.507.445-3.09,6.854-22.458,6.854-22.458a9.58,9.58,0,0,0,3.39,3.7,29.855,29.855,0,0,0,9.48,3.838c8.9,1.412,7.256,11.45,7.256,11.45s.1,39.019-.449,43.687S915.452,331.817,915.452,331.817Z" transform="translate(496.082 1097.147)"/><path class="j" d="M860.348,449.311l-.3,2.9-3.611-1.446-2.648-4.379,1.988-1.7Z" transform="translate(539.182 978.279)"/><path class="c" d="M869.968,451.358l-1.888.211-18.2,1.987a27.043,27.043,0,0,1-8.754-.47l-8.443-1.844c.389-1.5.7-2.412.7-2.412.913.708,6.14,1.535,8.845,2.208a14.139,14.139,0,0,0,4.517.395,93.069,93.069,0,0,0,20.185-4.042l.822,1.072Z" transform="translate(529.435 965.017)"/><g class="o" transform="translate(1362.812 1412.186)"><path d="M835.113,451.729a1.625,1.625,0,0,1-.174-.109.11.11,0,0,1-.019.051Z" transform="translate(-834.92 -449.959)"/><path d="M940.322,523.43s-3.115-12.9-2.118-16.074c0,0-1.788-13.373-.726-17.354s-.732-33.346-.732-33.346l-.589-5.509-.33-3.107-.137-1.3-.685.228-.424.136.053.5.33,3.1.589,5.509s1.788,29.376.732,33.346.726,17.354.726,17.354c-.994,3.175,2.118,16.074,2.118,16.074s2.181,17.225,1.592,22.07-1.393,18.375-1.393,18.375c-2.031,3.331-5.866,2.916-7.788,2.45l.034.082s6.162,2.464,8.944-2.1c0,0,.794-13.533,1.393-18.375S940.322,523.43,940.322,523.43Z" transform="translate(-901.439 -446.74)"/><path d="M890.951,624.095c1.059-3.256-.994-13.75-.994-13.75s-3.642-11.229-3.047-19.535c.249-3.467.234-8.224.128-12.59-.844-5.631-1.654-11.909-1.654-11.909s.935,15.772.336,24.091,3.044,19.538,3.044,19.538,2.056,10.491.994,13.747,2.645,16.7,2.645,16.7c-.265,3.13-7.072,2.722-9.773,2.45l.1.3s10.533,1.592,10.863-2.314C893.6,640.809,889.892,627.351,890.951,624.095Z" transform="translate(-867.767 -525.624)"/></g><path class="h" d="M916.717,331.817c-2.383,3.039-12.773,3.583-12.773,3.583l-10.281-17.694s-2.433-1.844-7.007-10.15a33.078,33.078,0,0,1-4.165-19.48c.252-4.777,3.115-18.507,3.115-18.507.446-3.09,6.854-22.458,6.854-22.458a9.532,9.532,0,0,0,3.39,3.7,29.854,29.854,0,0,0,9.48,3.838c8.894,1.412,7.253,11.45,7.253,11.45s.1,39.019-.449,43.687S916.717,331.817,916.717,331.817Z" transform="translate(495.212 1097.147)"/><path class="c" d="M894.6,256.693l-2.237.909,1.489,1.14-11.122,29.3c.259-4.764,3.115-18.507,3.115-18.507.445-3.09,6.854-22.458,6.854-22.458a9.531,9.531,0,0,0,3.39,3.7Z" transform="translate(494.977 1097.167)"/><path class="c" d="M851.5,388.822l11.377-3.2,1.492,5.046-11.627,3.1Z" transform="translate(540.759 1017.242)"/><path class="c" d="M935.831,279.991s-5.169,5.312-3.218,17.15,5.069,24.69,5.069,24.69l-8.411,25.452s5.863,6.676,8.745,7.486l8.4-20.352s3.925-7.054,2.882-18.123-4.819-28.981-4.819-28.981S944.476,276.411,935.831,279.991Z" transform="translate(462.936 1075.931)"/><path class="h" d="M937.074,279.991s-5.172,5.312-3.228,17.15,5.066,24.69,5.066,24.69L930.5,347.283s5.863,6.676,8.745,7.486l8.412-20.352s3.925-7.054,2.882-18.123-4.819-28.981-4.819-28.981S945.719,276.411,937.074,279.991Z" transform="translate(462.089 1075.931)"/><path class="c" d="M928.619,480.656s6.558,9.915,6.063,12.556-2.418,1.228-2.418,1.228l-2.583-3.869-2.321-7.238S927.587,480.21,928.619,480.656Z" transform="translate(464.251 943.099)"/><path class="c" d="M926.069,480.656s6.542,9.915,6.062,12.556-2.417,1.228-2.417,1.228l-2.586-3.869-2.318-7.238S925.037,480.21,926.069,480.656Z" transform="translate(466.006 943.099)"/><path class="m" d="M927.349,480.656s6.542,9.915,6.06,12.556-2.418,1.228-2.418,1.228l-2.583-3.869-2.318-7.238S926.314,480.21,927.349,480.656Z" transform="translate(465.125 943.099)"/></g></svg>