<svg xmlns="http://www.w3.org/2000/svg" width="1053.707" height="1202.582" viewBox="0 0 1053.707 1202.582">
  <path id="Path_655" data-name="Path 655" d="M-623.1,4839.844c56.406-12.373,157.057-39.564,267.656,32.7s156.854,120.677,328.328,155.721C133.19,5048.2,275.981,5210.8,288.818,5262.9s22.443,84.759-18.921,127-264.442,79.7-302.9,102.939-127.459,58.857-58.955,107.939c66.137,37.649,272.782,26.868,339.015,42.17,233.92,57.724-54.946,234.557-148.817,282.161s-231.069,9.967-313.8-22.414S-481.175,5786.158-530.479,5801-623.1,4839.844-623.1,4839.844Z" transform="matrix(0.996, 0.087, -0.087, 0.996, 1139.106, -4751.755)" fill="#329ce3"/>
</svg>
