<svg xmlns="http://www.w3.org/2000/svg" xmlns:xlink="http://www.w3.org/1999/xlink" width="553.997" height="420.442" viewBox="0 0 553.997 420.442"><defs><style>.a,.w{fill:#329ce3;}.a,.f{opacity:0.1;}.b{fill:#3a3768;}.c{fill:#d48a9b;}.d{opacity:0.05;}.e{fill:#efc6cd;}.g{fill:#fff;}.h{fill:#d3dae1;}.i{fill:url(#a);}.j{fill:#585b8a;}.k{opacity:0.2;}.l{fill:#636992;}.m{fill:#ffd6d6;}.n{fill:#dce6f2;}.o{fill:#565988;}.p{fill:#505484;}.q{fill:#575988;}.r{fill:#d28690;}.s{fill:#575989;}.t{fill:#353045;}.u{fill:#f0f3f7;}.v{fill:#663d5c;}.x{opacity:0.3;}.y{opacity:0.15;}.z{fill:#ffd037;}.aa{fill:#65617d;}.ab{fill:#9d9cb5;}.ac{fill:#4b4770;}.ad{fill:#d4dfec;}</style><linearGradient id="a" x1="0.5" y1="1" x2="0.5" gradientUnits="objectBoundingBox"><stop offset="0" stop-color="gray" stop-opacity="0.251"/><stop offset="0.54" stop-color="gray" stop-opacity="0.122"/><stop offset="1" stop-color="gray" stop-opacity="0.102"/></linearGradient></defs><g transform="translate(-1074.5 -2303.58)"><path class="a" d="M635.032,160.355c-.1.452-.188.9-.294,1.35a145.152,145.152,0,0,1-16.857,43.725c-.269.452-.538.9-.812,1.355a125.648,125.648,0,0,1-19,23.986,57.607,57.607,0,0,1-13.65,10.483c-7.322,3.826-15.882,5.379-24.3,6.647-8.738,1.324-17.6,2.431-26.432,3.623q-4.709.624-9.362,1.324c-8.535,1.263-17.009,2.725-25.28,4.663a148.208,148.208,0,0,0-29.5,9.925q-1.121.507-2.217,1.076c-.731.365-1.466.736-2.187,1.111s-1.431.751-2.136,1.137c-.365.2-.731.4-1.091.6s-.715.391-1.066.594c-1.056.589-2.091,1.192-3.126,1.8l-.041.025c-.685.4-1.36.812-2.03,1.223-3.826,2.324-7.571,4.749-11.316,7.19l-2.354,1.522-3.648,2.36c-.71.462-1.436.924-2.152,1.38-.507.335-1.015.67-1.568,1.015-2.659,1.674-5.353,3.319-8.119,4.887-.655.376-1.314.751-1.979,1.116a112.468,112.468,0,0,1-17.466,7.875l-.081.03A79.682,79.682,0,0,1,397.7,305c-1.812.4-3.628.72-5.465.969a58.59,58.59,0,0,1-14.817.208c-9.677-1.121-18.744-4.836-28.416-6.089-19.911-2.537-39.249,5.637-57.973,12.041q-6.906,2.359-13.914,4.42c-3.105.918-6.221,1.786-9.362,2.623a352.284,352.284,0,0,1-58.709,10.3,165.353,165.353,0,0,1-24.94.553,91.582,91.582,0,0,1-9.357-1.015c-10.5-1.624-20.3-5.029-28.2-11.265-6.475-5.12-11.108-11.793-14.634-18.775a81.929,81.929,0,0,1-7.566-22.6c-.193-1.071-.365-2.146-.507-3.222q-.381-2.76-.568-5.551a79.458,79.458,0,0,1,3.491-29.355c3.349-10.615,8.931-20.8,11.387-31.5q.152-.68.289-1.355a46.9,46.9,0,0,0,.746-4.917c1.253-13.142-3.552-25.955-7.322-38.808-.132-.447-.264-.9-.391-1.35q-.609-2.141-1.167-4.278c-3.491-13.589-4.46-28.137-1.35-41.7.1-.452.213-.9.325-1.35a61.053,61.053,0,0,1,11.478-23.509c5.825-7.307,13.472-13.391,21.642-18.734q5.972-3.907,12.351-7.3Q179.313,61,184.1,58.824a184.274,184.274,0,0,1,83.68-16.111c1.522.066,3.045.147,4.567.259s3.187.244,4.78.391c18.6,1.806,36.7,6.165,54.675,10.93,6.023,1.6,12.036,3.237,18.044,4.846,2.674.71,5.343,1.421,8.017,2.111,13.1,3.385,26.386,6.449,39.843,8.738q4.673.807,9.357,1.472a268.026,268.026,0,0,0,32.724,2.776q6.389.127,12.782-.112,3.227-.117,6.46-.35c22.251-1.568,43.755-6.815,65.3-11.716q4.673-1.066,9.362-2.1c4.1-.9,8.2-1.776,12.32-2.583,25.64-5.039,48.495-2.141,72.334,8.256,5.419,2.36,10.833,5.211,14.152,9.641s4.151,9.869,4.77,15.121c.878,7.479,1.451,15.055,1.669,22.672,0,.447,0,.9.031,1.35A203.5,203.5,0,0,1,635.032,160.355Z" transform="translate(986.417 2264.505)"/><path class="a" d="M470.652,205.64h-1.674V207h1.9Zm-18.993,0a.084.084,0,0,0,0,.036c-.046.37-.1.741-.147,1.116v.2h14.512v-.081l1.015-1.274Zm-38.894,0V161.916h16.694c-.178-.117-.36-.238-.548-.35l-.244-.157-.315-.193c-.183-.107-.365-.213-.558-.315s-.31-.173-.472-.259l-.112-.061H412.765v-2.41l-.391.152-.411.193h-.03l-.086.046-.259.137-.259.137c-.254.137-.507.289-.761.447l-.244.162-.507.325c-.655.436-1.3.893-1.964,1.319-.167.107-.335.213-.507.31-.36.213-.731.416-1.111.6a4.236,4.236,0,0,1-.507.218l-.274.107-.254.086h0a11.889,11.889,0,0,1-1.827.477V205.63H378.341c0,.051.035.091.051.142.137.406.274.807.406,1.213h24.61v46.866h.381l.441.025.8.046,1.274.152.584.056.634.066h.1l1.121.137.238.03.543.076.776.112h0l1.862-.081h0l.254.046a1.763,1.763,0,0,1,.315.051V207h38.737v-.2c.051-.375.1-.746.147-1.116a.086.086,0,0,1,0-.036Zm57.887,0h-1.674V207h1.9Zm-20.038,0c-.061.452-.117.9-.178,1.355h16.182l1.1-1.355Zm-37.849,0V161.916h16.694c-.178-.117-.36-.238-.548-.35l-.244-.157-.315-.193c-.183-.107-.365-.213-.558-.315s-.31-.173-.472-.259l-.112-.061H412.765v-2.41l-.391.152-.411.193h-.03l-.086.046-.259.137-.259.137c-.254.137-.507.289-.761.447l-.244.162-.507.325c-.655.436-1.3.893-1.964,1.319-.167.107-.335.213-.507.31-.36.213-.731.416-1.111.6a4.238,4.238,0,0,1-.507.218l-.274.107-.254.086h0a11.889,11.889,0,0,1-1.827.477V205.63H378.341c0,.051.035.091.051.142.137.4.279.807.411,1.213h24.605v46.861h.381l.441.025.8.046,1.274.157.584.056.634.066h.1l1.121.137.238.03.543.076.776.112h0l1.862-.081h0l.254.046a1.763,1.763,0,0,1,.315.051V207h37.722c.061-.452.117-.9.178-1.355Zm126.623-91.052H644.663c0-.452,0-.9-.03-1.35H539.388V60.151q-4.689,1.015-9.362,2.1v50.986H415.53l-.289-.259.436-.386h0l42.588-38.27q-6.394.244-12.782.112l-32.724,29.4V71.67q-4.689-.665-9.357-1.472v32.156l-47.845-43c-6.008-1.609-12.021-3.248-18.044-4.846l65.067,58.476-.289.259H282.844V43.62q-2.39-.223-4.78-.391c-1.522-.112-3.045-.193-4.567-.259v70.268H189.8V59.081q-4.739,2.172-9.357,4.612v49.545h-45.47c-.112.447-.228.9-.325,1.35h45.8v45.978H137.167c.127.452.259.9.391,1.35h42.888V205.64H144.134q-.137.675-.289,1.355h36.6V329.249c3.045.472,6.2.8,9.357,1.015V207h83.68v112.41c3.141-.837,6.257-1.7,9.362-2.623V207H403.408v98.212a79.667,79.667,0,0,0,9.276-2.618l.081-.03V207H530.026v46.064q4.668-.685,9.362-1.314V207h83.38c.274-.452.543-.9.812-1.355H539.388V161.916H640.436c.107-.447.2-.9.294-1.35H539.388Zm-349.586,0h83.68v45.978H189.8Zm0,91.052V161.916h83.68V205.64Zm93.042-91.052H403.408v45.978H282.844Zm0,91.052V161.916H403.408V205.64Zm247.182,0H412.765V161.916H530.026Zm0-45.075H412.765V115.821l1.644-1.233H530.026ZM451.659,205.64a.084.084,0,0,0,0,.036c-.046.37-.1.741-.147,1.116v.2h14.512v-.081l1.015-1.274Zm18.993,0h-1.674V207h1.9Zm-57.887,0V161.916h16.694c-.178-.117-.36-.238-.548-.35l-.244-.157-.315-.193c-.183-.107-.365-.213-.558-.315s-.31-.173-.472-.259l-.112-.061H412.765v-2.41l-.391.152-.411.193h-.03l-.086.046-.259.137-.259.137c-.254.137-.507.289-.761.447l-.244.162-.507.325c-.655.436-1.3.893-1.964,1.319-.167.107-.335.213-.507.31-.36.213-.731.416-1.111.6a4.236,4.236,0,0,1-.507.218l-.274.107-.254.086h0a11.889,11.889,0,0,1-1.827.477V205.63H378.341c0,.051.035.091.051.142.137.406.274.807.406,1.213h24.61v46.866h.381l.441.025.8.046,1.274.152.584.056.634.066h.1l1.121.137.238.03.543.076.776.112h0l1.862-.081h0l.254.046a1.763,1.763,0,0,1,.315.051V207h38.737v-.2c.051-.375.1-.746.147-1.116a.086.086,0,0,1,0-.036Z" transform="translate(980.718 2264.294)"/><path class="a" d="M319.625,118.937h.726a1.472,1.472,0,0,1-.888-1.182h0c0-.934,1.4-1.695,3.1-1.695h21.7c1.7,0,3.1.761,3.1,1.695h0c0,.929-1.39,1.695-3.1,1.695h-.726a1.456,1.456,0,0,1,.888,1.177c0,.8-1.015,1.466-2.37,1.644H348.3c1.7,0,3.1.761,3.1,1.695s-1.4,1.695-3.1,1.695H326.6c-1.7,0-3.1-.766-3.1-1.695,0-.8,1.015-1.461,2.37-1.644h-6.246c-1.7,0-3.1-.761-3.1-1.695S317.92,118.937,319.625,118.937Z" transform="translate(891.129 2228.292)"/><path class="a" d="M783.065,150.707h.726a1.472,1.472,0,0,1-.883-1.182h0c0-.934,1.39-1.695,3.1-1.695h21.7c1.705,0,3.1.761,3.1,1.695h0c0,.929-1.4,1.69-3.1,1.69h-.721a1.472,1.472,0,0,1,.883,1.182c0,.8-1.015,1.466-2.37,1.644h6.246c1.7,0,3.1.761,3.1,1.695s-1.39,1.695-3.1,1.695h-21.7c-1.7,0-3.1-.766-3.1-1.695,0-.8,1.015-1.466,2.37-1.644h-6.246c-1.7,0-3.1-.761-3.1-1.695S781.365,150.707,783.065,150.707Z" transform="translate(662.85 2212.643)"/><path class="a" d="M253.99,286.667h.721a1.467,1.467,0,0,1-.883-1.182h0c0-.929,1.4-1.695,3.1-1.695h21.7c1.7,0,3.1.766,3.1,1.695h0c0,.934-1.4,1.695-3.1,1.695H277.9a1.451,1.451,0,0,1,.883,1.177c0,.8-1.015,1.466-2.37,1.644h6.246c1.705,0,3.1.766,3.1,1.695s-1.4,1.695-3.1,1.695H260.983c-1.7,0-3.1-.761-3.1-1.695,0-.792,1.015-1.461,2.37-1.644H253.99c-1.7,0-3.1-.761-3.1-1.695S252.306,286.667,253.99,286.667Z" transform="translate(923.461 2145.672)"/><ellipse class="a" cx="32.962" cy="108.472" rx="32.962" ry="108.472" transform="translate(1366.853 2602.02) rotate(-78.45)"/><path class="b" d="M828.56,395.479s5.769-28.319,27.8-25.7c0,0,15.223,1.045,18.354,11.011v22.027Z" transform="translate(638.916 2103.399)"/><path class="c" d="M797.329,389.773,601.173,373.51,576,378.757l1.573,35.139,1.715.208,1.954,52.767,192.482,34.611,20.459-17.308v-57.2l2.618-1.538Z" transform="translate(790.777 2119.599)"/><path class="d" d="M991.312,405.56l-.528,35.662-21.241,9.966-.264-37.24Z" transform="translate(597.057 2103.812)"/><path class="d" d="M986.376,478.94l.259,56.121L966.18,552.37l1.314-65.037Z" transform="translate(598.584 2067.667)"/><path class="d" d="M582.857,455.916l195.907,23.9.1-4.536L582.71,454.13Z" transform="translate(787.472 2079.887)"/><path class="d" d="M987.139,481v-2.06l-19.409,8.565v4.547Z" transform="translate(597.821 2067.667)"/><path class="e" d="M575.48,378.757l25.173-5.247,196.155,16.263-22.027,8.388Z" transform="translate(791.033 2119.599)"/><path class="f" d="M956.451,407.55l9.626.629-15.953,4.775L942,412.371Z" transform="translate(610.495 2102.832)"/><path class="g" d="M956.451,406.72l9.626.629-15.953,4.78L942,411.54Z" transform="translate(610.495 2103.24)"/><path class="h" d="M1022.32,444.515c.381-.162.781.147,1.188.223.233.046.472,0,.705.046.472.061.939.375,1.39.218" transform="translate(543.474 2066.526)"/><path class="h" d="M1021.34,445.084c.376-.162.781.142,1.187.223.233.041.472,0,.705.041.472.066.939.381,1.39.223" transform="translate(543.957 2066.246)"/><path class="h" d="M1019.08,446.224c.381-.162.787.142,1.193.218.228.046.472,0,.7.046.477.066.944.381,1.39.218" transform="translate(545.07 2065.685)"/><path class="f" d="M874.451,398.21l9.626.634-15.953,4.775L860,403.03Z" transform="translate(650.886 2107.432)"/><path class="g" d="M874.451,397.39l9.626.629-15.953,4.775L860,402.211Z" transform="translate(650.886 2107.836)"/><path class="h" d="M940.32,435.184c.38-.162.781.142,1.187.223.234.041.472,0,.705.041.472.066.939.381,1.39.223" transform="translate(583.865 2071.123)"/><path class="h" d="M939.34,435.754c.375-.162.781.142,1.187.218.233.046.472,0,.705.046.472.066.939.381,1.39.218" transform="translate(584.348 2070.842)"/><path class="h" d="M937.08,436.885c.381-.162.787.147,1.193.223.228.046.472,0,.7.046.477.061.944.381,1.391.218" transform="translate(585.462 2070.285)"/><path class="f" d="M913.781,402.88l9.631.629-15.953,4.78-8.129-.589Z" transform="translate(631.513 2105.132)"/><path class="g" d="M913.781,402.06l9.631.629-15.953,4.775-8.129-.589Z" transform="translate(631.513 2105.536)"/><path class="h" d="M979.65,439.854c.38-.162.786.142,1.192.218.228.046.467,0,.7.046.472.061.944.381,1.39.218" transform="translate(564.492 2068.822)"/><path class="h" d="M978.67,440.415c.381-.162.787.147,1.193.223.228.046.467,0,.7.046.472.061.944.381,1.39.218" transform="translate(564.975 2068.546)"/><path class="h" d="M976.42,441.554c.375-.162.781.142,1.187.223.233.041.472,0,.705.041.472.066.939.381,1.39.223" transform="translate(566.084 2067.985)"/><ellipse class="a" cx="102.743" cy="21.149" rx="102.743" ry="21.149" transform="translate(1224.617 2662.848)"/><path class="i" d="M583.785,336.7a68.835,68.835,0,0,0-5.434-18.82l.33-3.248s.071-1.624-.036-4.059a18.471,18.471,0,0,1,.594-4.506c.888-2.816-1.111-6.277-1.334-6.6s.112-6.5-1.888-9.524-15.314-8.662-15.314-8.662-.716-1.5-1.725-3.248l.091-.178a19.077,19.077,0,0,0-3.045-4.105c-.817-.873-1.6-1.37-2.238-1.126a18.256,18.256,0,0,1-.589-2.573c.132.035.269.071.4.1a4.141,4.141,0,0,0,1.675.041,4.976,4.976,0,0,0,2.75-2.436c3.44-5.227,6.4-10.96,7.008-17.146a10.9,10.9,0,0,0-.178-3.785,12.767,12.767,0,0,0-1.187-2.765,22.226,22.226,0,0,0-3.349-4.937,19.079,19.079,0,0,0-9-4.927,31.145,31.145,0,0,0-11.62-.868c-1.015.117-2.03.284-3.045.35a31.622,31.622,0,0,1-3.861-.066l-6.642-.386-.03-.1-1.106-.066a2.8,2.8,0,0,0,.543,2.71,4.625,4.625,0,0,1,1.121,2.618,5.353,5.353,0,0,1-1.284,2.537c-.543.807-.954,1.862-.411,2.654a1.52,1.52,0,0,0,.269.294,3.345,3.345,0,0,0,2.441.649h.152a16.527,16.527,0,0,0-3.364,10.006,16.826,16.826,0,0,0,9.179,14.908c.1.33.193.67.284,1.015a31.084,31.084,0,0,1,1.066,10.971l-.117.254-.071-.269s-7.825,5.308-10.148,6.713-4.658,6.17-4.77,7.469-3.775,20.891-3.775,20.891a48,48,0,0,0-1.837,6.048l-4.674,4.105s-9.641.868-12.432.218l.081.538a42.168,42.168,0,0,0-7.49-1.015,7.942,7.942,0,0,0-4.059.543l-.1.046-.076.035a16.086,16.086,0,0,0-4.262,1.2c-.162.066-.31.132-.452.2l.03-.665-10.433-.538-5.328-1.081s-1.888-1.522-3-1.3-3.44-1.3-3.44-1.3a9.3,9.3,0,0,0-1.715-1.066c-.178-1.228-.289-1.974-.289-1.974s-4.146-16.451-7.251-26.122c-2.08-6.46-5.074-9.641-6.84-11.026-.786-1.37-1.3-2.253-1.3-2.253-.34-1.187-2.207-3.862-2.684-3.927-.076-.122-.132-.183-.162-.183a.594.594,0,0,0-.3.046c-.873-4.344-1.38-9.788-.046-14.533a16.04,16.04,0,0,0,5.856-12.361q0-.107,0-.213v-.218a15.969,15.969,0,0,0-3.77-10.3l-.173-.193a1.352,1.352,0,0,0,.132-.107,2.72,2.72,0,0,0,.959-2.618,17.948,17.948,0,0,0-1.38-2.664,17.253,17.253,0,0,1-.563-2.172,6.7,6.7,0,0,0-1.6-2.786l.076.2a9.642,9.642,0,0,0-8.489-2.852c-2.289.365-4.42,1.431-6.718,1.761-1.649.233-3.329.081-4.988.249a12.944,12.944,0,0,0-4.425,1.279,2.537,2.537,0,0,0-.939.69,3.713,3.713,0,0,0-.467,1.3c-.563,2.055-2.349,3.522-3.643,5.237a12.255,12.255,0,0,0-2.456,6.769,5.3,5.3,0,0,0,.178,1.852c.112.36.284.7.365,1.066.254,1.116-.33,2.228-.614,3.334a6.49,6.49,0,0,0,.36,4.232c2,4.486,8.586,5.983,9.956,10.691a13.1,13.1,0,0,0,3.293,1.015c.091.467.173.939.239,1.416a.38.38,0,0,0-.086.051c-1.776,1.73-2.217,5.074-2.217,5.074l-.213.173c-.726.6-3.207,2.608-5.45,4.156-2.664,1.842-7.1,8.012-10.209,9.854s-5.663,13.193-4.993,17.318,3.44,15.695,2.329,19.916,1.664,23.489,1.664,23.489a28.368,28.368,0,0,1,5.44,1.614l-.056.842-.167,2.537S400.274,370.3,402.2,384.3s-.888,15.441-.888,15.441.589,6.206-.888,8.372-1.776,6.926-1.776,6.926-.147,10.681.147,13.7.441,8.52-.594,9.819-2.958,9.809-2.811,12.407-3.7,8.52-1.629,16.167-6.089,7.794-6.089,7.794,1.04,11.671,3.258,15.01l.325.477c-.056.193-.112.4-.173.614-.837,3.044-1.984,7.85-1.187,9.012,1.182,1.735,1.776,1.441,1.776,1.441l.441,7.794s8.88,7.5,15.69,7.221,5.475-7.221,5.475-7.221l-5.8-15.04-.2-.507,6.444-12.178s1.776-5.338,2.217-7.216,2.852-8.53,2.852-8.53,6.089-14.431,6.216-16.167.594-11.108,1.776-12.99,4.44-12.686,4.44-12.686l.081.071a4.277,4.277,0,0,1,1.106,4.257c-.746,2.74-.3,8.367-.3,8.367a56.91,56.91,0,0,1-.888,7.221c-.594,2.456-.736,22.514.3,27.274.827,3.811.8,10.945.761,13.645-.7,2.867-1.3,6.429-.173,6.85,1.928.726,11.7.578,11.7.578s4.141-1.446,9.768,3.608,22.936-1.441,22.936-1.441,5.328-1.446-5.181-5.627c-7.332-2.918-12.067-4.861-15.162-6.942.071-.137.147-.274.213-.421,0,0-4.293-4.059-.741-11.255a31.342,31.342,0,0,0,3.4-13.279l.594-24.25-1.776-32.191-1.375-33.784.244-.081c.233,6.211,1.446,21,7.794,18.13,7.992-3.608,1.182-12.99,1.182-12.99l-3.588-6.992,1.071-.365-4.014-12.97a29.252,29.252,0,0,1-.152-7.647,30.292,30.292,0,0,0-.091-4.465c5.257-.918,10.291-1.893,11.194-1.669,1.066.259,7.028.309,9.372.32-.766.6-1.38,1.192-1.38,1.192l9.545,6.424s3.237-1.771,3.912-3.648a4.212,4.212,0,0,0,1.786-.954c.1,2.217.69,4.618,2.74,4.673a3.552,3.552,0,0,0,1.492-.294l15.608-3.09-1.34,8.367.934,1.659c-.472,7.058-1.015,14.553-1.492,21.144l-.218,1.441.112.025c-.741,10.149-1.335,17.836-1.335,17.836a9.352,9.352,0,0,1,3.892-3.912l.1,15.06s.781,23.813.781,27.061.107,10.5.107,10.5,1.669,8.875,2.664,11.8,1.776,16.238,1.776,16.238,2.334,3.679,1.335,5.074,3.887,4.435,3.887,4.435-3.111,4.222-3.334,7.038c-.025.325.294.67.873,1.015-.183.147-.37.294-.579.436a10.138,10.138,0,0,1-6.729,1.36c-8.662-.761-14.766,7.251-9.438,8.875s21.312,1.948,21.312,1.948,4.841-3.019,8.626-1.659c-.056,3.177.1,6.089.127,6.475l-.046.036c-2.263,2.03-6.6,5.521-10.828,6.947-6.089,2.055-7.439,10.392.441,11.473s19.424-1.3,19.424-1.3,5.993-4.435,10.544-5.409,8.439-3.141,7.662-5.739c-.507-1.659-1.812-6.008-2.694-8.931q-.076-.264-.152-.507c.137-.3.274-.619.4-.944,0,0-2.329-12.122-.441-15.152s.888-33.343.888-33.343-3.222-7.682-1.553-12.335-2.664-11.26-2.664-11.26.472-13.239,1.74-20.617q.086-.472.167-.913a41.571,41.571,0,0,0,6.191-2.39s1.111-16.674,1.776-20.459c.066-.355.157-.929.269-1.674l.507-2.674h0l.6-3.045h0l2.03-10.377,3.664-4.739,9.438-9.641S584.9,346.339,583.785,336.7Zm-145.55-59.536-.071.051a.884.884,0,0,1-.025-.112A.458.458,0,0,0,438.235,277.167Zm93.249,11.818-.365.8,1.334-1.329-1.812,2.03.609-1.279Zm-9.012,18.622c-.35.929-.726,1.933-1.116,2.979l.715-2.136Z" transform="translate(856.087 2174.099)"/><path class="j" d="M595.747,443.482s-1.243,8.276,2.486,8.383,6.221-6.383,6.221-6.383l-1.522-5.191Z" transform="translate(753.692 2068.584)"/><path class="k" d="M595.747,443.482s-1.243,8.276,2.486,8.383,6.221-6.383,6.221-6.383l-1.522-5.191Z" transform="translate(753.692 2068.584)"/><path class="l" d="M414.111,772.455c-6.637.289-15.294-7.211-15.294-7.211l-.431-7.789s-.573.289-1.73-1.441c-.776-1.162.34-5.977,1.157-9.007.4-1.482.721-2.537.721-2.537l14.563,3.9.7,1.842,5.653,15.03S420.743,772.165,414.111,772.455Z" transform="translate(851.79 1918.753)"/><path class="l" d="M520.608,740.064s-16.872,6.49-22.327,1.441-9.519-3.608-9.519-3.608-9.519.147-11.4-.578c-1.106-.421-.507-4.029.183-6.9.467-1.984.974-3.623.974-3.623s16.583-5.627,19.181-2.167a12.436,12.436,0,0,0,2.765,2.638c3,2.172,7.7,4.141,15.121,7.17C525.8,738.618,520.608,740.064,520.608,740.064Z" transform="translate(812.207 1929.081)"/><path class="m" d="M529.281,496.35l4.613,9.23s6.637,9.377-1.152,12.98S525.1,497.8,525.1,497.8Z" transform="translate(788.393 2040.971)"/><path class="n" d="M495.25,338.61s5.049,2.309,8.078,11.97,7.068,26.107,7.068,26.107,2.74,18.6,2.3,23.22a29.94,29.94,0,0,0,.147,7.642l3.892,12.98-7.789,2.74-11.97-45.861Z" transform="translate(803.096 2118.669)"/><path class="d" d="M495.25,338.61s5.049,2.309,8.078,11.97,7.068,26.107,7.068,26.107,2.74,18.6,2.3,23.22a29.94,29.94,0,0,0,.147,7.642l3.892,12.98-7.789,2.74-11.97-45.861Z" transform="translate(803.096 2118.669)"/><path class="f" d="M414.459,748.382l.7,1.842-.852,1.629c-3.319,1.441-11.539.289-11.539.289s-1.522-1.933-3.6-5.115c.4-1.482.721-2.537.721-2.537Z" transform="translate(850.427 1918.743)"/><path class="f" d="M501.724,727.946c-4.206,9.529-18.506,5.993-22.479,4.8-.655-.2-1.015-.33-1.015-.33s.025-.776.035-2c.467-1.984.974-3.623.974-3.623s16.583-5.627,19.181-2.167a12.438,12.438,0,0,0,2.765,2.639A4.9,4.9,0,0,0,501.724,727.946Z" transform="translate(811.479 1929.081)"/><path class="o" d="M458.829,586.441c-3.461,7.205.726,11.25.726,11.25-4.207,9.524-18.506,5.993-22.479,4.8-.655-.193-1.015-.325-1.015-.325s.289-9.956-.721-14.715-.868-24.8-.289-27.254a58.017,58.017,0,0,0,.863-7.216s-.431-5.622.289-8.362a4.318,4.318,0,0,0-1.076-4.252l-.076-.076s-3.171,10.818-4.328,12.686-1.583,11.25-1.73,12.98-6.059,16.156-6.059,16.156-2.3,6.632-2.735,8.5-2.167,7.216-2.167,7.216l-6.952,13.416c-3.319,1.441-11.539.289-11.539.289s-1.583-2.03-3.75-5.338S392.62,591.2,392.62,591.2s7.931-.147,5.911-7.789,1.73-13.558,1.588-16.156,1.73-11.1,2.74-12.4.863-6.779.573-9.809-.142-13.7-.142-13.7.289-4.76,1.73-6.921.868-8.367.868-8.367,2.735-1.441.863-15.431,3.045-32.161,3.045-32.161l.167-2.537.264-4.11s41.249-2.6,44.567.573a10.938,10.938,0,0,1,2.106,3.019,30.038,30.038,0,0,1,2.385,7.677l1.73,43.7,1.73,32.161-.578,24.229A32.211,32.211,0,0,1,458.829,586.441Z" transform="translate(853.649 2058.474)"/><path class="f" d="M487.35,538.42l-4.328,93.742-5.2,8.545c-.655-.193-1.015-.325-1.015-.325s.289-9.956-.721-14.715-.868-24.8-.289-27.254a58.03,58.03,0,0,0,.863-7.216s-.431-5.622.289-8.362a4.318,4.318,0,0,0-1.076-4.252l.071-.507Z" transform="translate(812.899 2020.248)"/><path class="f" d="M406.864,733.582s11.25-4.471,12.98-3.045-13.264,3.6-13.264,3.6Z" transform="translate(846.772 1925.754)"/><path class="f" d="M506.428,713.5c-.431.147-11.392,4.059-10.382,8.22S506.428,713.5,506.428,713.5Z" transform="translate(802.736 1934.008)"/><path class="m" d="M449.07,287.842s3.674,8.87,1.73,13.416,20.982,12.33,20.982,12.33-6.7-17.308-.213-27.046S449.07,287.842,449.07,287.842Z" transform="translate(825.843 2146.294)"/><path class="p" d="M680.081,782.017c-4.435.974-10.275,5.409-10.275,5.409s-11.25,2.38-18.932,1.3-6.378-9.413-.431-11.468c4.125-1.421,8.352-4.927,10.56-6.936.974-.9,1.553-1.522,1.553-1.522l21.53-4.328s.35,1.2.837,2.862c.863,2.928,2.136,7.272,2.623,8.926C688.3,778.881,684.516,781.043,680.081,782.017Z" transform="translate(729.066 1908.902)"/><path class="p" d="M659.271,750.349s-9.088.974-12.873-1.187-9.195,1.3-9.195,1.3-15.578-.325-20.769-1.949.756-9.641,9.195-8.87a9.692,9.692,0,0,0,6.561-1.36A6.911,6.911,0,0,0,635.047,734l18.267,1.081,2.537,6.475Z" transform="translate(744.36 1923.91)"/><path class="f" d="M673.31,744.509s-21.231-3.471-23.94-6.226A6.911,6.911,0,0,0,652.227,734l18.267,1.081,2.537,6.475Z" transform="translate(727.18 1923.91)"/><path class="q" d="M634.52,513.966l.218,31.689s.756,23.8.756,27.046.107,10.488.107,10.488,1.624,8.87,2.6,11.793,1.73,16.238,1.73,16.238,2.273,3.679,1.3,5.074,3.785,4.435,3.785,4.435-3.045,4.222-3.242,7.033,24.224,6.8,24.224,6.8L656.481,537l-7.576-24.443Z" transform="translate(734.495 2032.986)"/><path class="f" d="M634.52,513.966l.218,31.689s.756,23.8.756,27.046.107,10.488.107,10.488,1.624,8.87,2.6,11.793,1.73,16.238,1.73,16.238,2.273,3.679,1.3,5.074,3.785,4.435,3.785,4.435-3.045,4.222-3.242,7.033,24.224,6.8,24.224,6.8L656.481,537l-7.576-24.443Z" transform="translate(734.495 2032.986)"/><path class="f" d="M699.93,767.357c-7.068,16.852-23.88,3.846-23.88,3.846s0-.325-.041-.883c.974-.9,1.553-1.522,1.553-1.522l21.53-4.328S699.443,765.7,699.93,767.357Z" transform="translate(714.058 1908.902)"/><path class="q" d="M684.032,638.368c-6.926,17.76-24.123,4.435-24.123,4.435s-.543-9.195.543-13.411-1.193-16.877-1.193-16.877-1.3-11.25-2.486-13.843-1.081-7.789-1.081-8.22.431-3.9-.543-6.277-1.522-8.22-1.522-8.22a86.74,86.74,0,0,0-.974-13.087L649.3,546.124l-6.059-34.292,1.893-.325,33.911-5.947s6.383,32.475,4.217,35.8a13.966,13.966,0,0,0-1.218,4.389c-1.238,7.368-1.7,20.6-1.7,20.6s4.217,6.6,2.6,11.25,1.522,12.33,1.522,12.33.974,30.288-.868,33.318S684.032,638.368,684.032,638.368Z" transform="translate(730.2 2036.434)"/><path class="r" d="M692.71,309.979s-30.72,21.632-23.8,10.813c3.729-5.825,3.045-13.244,1.583-18.846a44.474,44.474,0,0,0-3.045-8.266s26.1-11.1,22.641-1.152a18.644,18.644,0,0,0-1.015,7.226A19.283,19.283,0,0,0,692.71,309.979Z" transform="translate(718.274 2143.408)"/><path class="r" d="M592.8,426.932s-12.98-3.75-15.142-.071.65,11.752,4.567,13.051,12.909-4.4,12.909-4.4Z" transform="translate(762.872 2075.996)"/><path class="j" d="M619.447,416l-5.409,4.978s-9.413.863-12.117.213c0,0,2.491,16.659-1.081,18.714l21.85-4.435Z" transform="translate(751.085 2080.549)"/><path class="f" d="M619.447,416l-5.409,4.978s-9.413.863-12.117.213c0,0,2.491,16.659-1.081,18.714l21.85-4.435Z" transform="translate(751.085 2080.549)"/><path class="f" d="M469.113,258.7a16.238,16.238,0,0,1-16.238,16.238c-8.332-4-16.238-7.261-16.238-16.238a16.238,16.238,0,1,1,32.45,0Z" transform="translate(831.973 2166.343)"/><path class="m" d="M469.182,258.506a16.207,16.207,0,1,1-3.674-10.265A16.207,16.207,0,0,1,469.182,258.506Z" transform="translate(831.904 2166.105)"/><path class="f" d="M473.747,465.44a36.7,36.7,0,0,1-5.029,2.608s-8.22-1.192-9.408.213-11.671,1.948-11.671,1.948-16.009-.756-18.389-2.811a9.746,9.746,0,0,0-2.431-1.441l.264-4.11s41.249-2.6,44.567.573A10.939,10.939,0,0,1,473.747,465.44Z" transform="translate(836.803 2058.459)"/><path class="n" d="M466.774,387.354c-.325,1.837-7.033,4.648-7.033,4.648s-8.22-1.187-9.408.218-11.671,1.949-11.671,1.949-16.009-.761-18.389-2.816-7.682-3.045-7.682-3.045-2.7-19.252-1.619-23.468-1.624-15.8-2.273-19.906,1.837-15.466,4.866-17.3,7.358-8.007,9.951-9.844c2.187-1.548,4.6-3.552,5.308-4.156l.208-.173s.436-3.354,2.167-5.074,17.628,10.925,17.628,10.925.112.974,1.192-.863c.244-.411,2.339,2.613,2.7,3.892,0,0,8.652,15.147,9.195,18.267s2.811,13.3,3.242,15.791c.112.639.294,2.882.507,5.886.041.589.076,1.213.122,1.862.32,4.983.665,11.346.873,16.156,0,.548.046,1.076.061,1.583a53.862,53.862,0,0,1,.051,5.47Z" transform="translate(845.78 2133.637)"/><path class="f" d="M415,387.21s5.947,7.246,7.9,7.246S415,387.21,415,387.21Z" transform="translate(842.625 2094.73)"/><path class="f" d="M431.383,417.91s-9.737,10.6-8.438,12.549S431.383,417.91,431.383,417.91Z" transform="translate(838.77 2079.608)"/><path class="f" d="M425.62,443.521s11.163-12.224,11.671-16.441Z" transform="translate(837.394 2075.091)"/><path class="f" d="M453.33,448.313s12.873-6.815,13.954-12.224S453.33,448.313,453.33,448.313Z" transform="translate(823.745 2071.162)"/><path class="f" d="M483.786,330.211,482,334.534l2.974,1.406,2.923,8.169s8.058,16.116,7.733,24.5,1.461,20.982,1.461,20.982l4.648-.863-2.192-24.656A35.565,35.565,0,0,0,496.715,353c-3.714-8.5-10.625-24.2-11.062-24.2-.594,0-.178.218-.178.218Z" transform="translate(809.622 2123.501)"/><path class="s" d="M484.636,329.356l-1.786,4.328,2.979,1.406,2.918,8.17s8.058,16.116,7.733,24.5,1.461,20.982,1.461,20.982l4.653-.863-2.2-24.656a35.431,35.431,0,0,0-2.826-11.067c-3.714-8.509-10.625-24.2-11.057-24.2-.6,0-.183.218-.183.218Z" transform="translate(809.204 2123.92)"/><path class="m" d="M579.732,441.381c-2.263-.173-7.693-2.918-9.849-4.059l-.913-.507.112-8.378a14.717,14.717,0,0,1,1.654-.837c2.882-1.258,8.794-2.968,11.757,2.537C586.491,437.52,582.6,441.574,579.732,441.381Z" transform="translate(766.783 2075.465)"/><path class="f" d="M465.424,248.188a2.4,2.4,0,0,1-.756.31c-1.883.411-4.024-1.208-5.637-.167-.984.639-1.213,1.964-1.345,3.131q-.345,3.045-.69,6.049a7.466,7.466,0,0,1-.447,2.086c-.8,1.822-2.984,2.679-4.978,2.649a2.968,2.968,0,0,1-2.146-.71c-.35-.355-.538-.853-.923-1.177-2.537-2.126-3.308,3.085-2.639,4.567,1.076,2.42,4.9,4.755,3.293,7.83a2.933,2.933,0,0,1-1.177,1.182,16.238,16.238,0,1,1,17.445-25.747Z" transform="translate(831.989 2166.158)"/><path class="t" d="M443,253.214c.381.32.573.817.923,1.172a2.973,2.973,0,0,0,2.146.71c1.994.03,4.181-.822,4.973-2.654a7.228,7.228,0,0,0,.452-2.08l.69-6.048c.132-1.167.355-2.491,1.345-3.131,1.614-1.015,3.755.578,5.637.167a2.755,2.755,0,0,0,2.03-3.176,17.871,17.871,0,0,0-1.34-2.659,17.376,17.376,0,0,1-.553-2.167c-1.05-3.938-5.673-6.15-9.692-5.49-2.233.37-4.308,1.436-6.546,1.761-1.6.233-3.243.081-4.861.254a12.271,12.271,0,0,0-4.313,1.274,2.507,2.507,0,0,0-.913.69,3.811,3.811,0,0,0-.457,1.3c-.543,2.03-2.289,3.527-3.552,5.237a12.477,12.477,0,0,0-2.405,6.754,5.414,5.414,0,0,0,.173,1.852c.107.355.274.7.355,1.066.249,1.111-.32,2.223-.6,3.329a6.657,6.657,0,0,0,.355,4.232c1.949,4.481,8.367,5.977,9.7,10.681a10.655,10.655,0,0,0,3.775,1.015,3.642,3.642,0,0,0,3.329-1.7c1.6-3.045-2.217-5.409-3.293-7.825C439.686,256.289,440.443,251.083,443,253.214Z" transform="translate(837.058 2173.28)"/><path class="f" d="M690.136,292.529a18.642,18.642,0,0,0-1.015,7.226c-.781.665-1.634-1.324-2.537-.812-2.476,1.431-5.338,4.836-8.4,4.836a16.832,16.832,0,0,1-7.647-1.832,44.474,44.474,0,0,0-3.044-8.266S693.6,282.578,690.136,292.529Z" transform="translate(718.255 2143.408)"/><path class="r" d="M689.014,267.377A16.877,16.877,0,1,1,672.137,250.5,16.877,16.877,0,0,1,689.014,267.377Z" transform="translate(724.279 2162.07)"/><path class="u" d="M679.9,329.089s-3.177,3.461-3.608,3.745-9.641,39.072-9.8,39.523-10.965,35.474-10.965,35.474l-17.308,8.51,1.446-42.837,12.686-35.327s4.186-4.76,5.48-6.49,17.45-12.117,17.45-12.117l2.76,5.688Z" transform="translate(732.677 2128.048)"/><path class="f" d="M696.221,326.968l-19.9,14.249-.32-7.824c1.3-1.73,17.45-12.112,17.45-12.112Z" transform="translate(714.063 2127.206)"/><path class="u" d="M697.081,325.258l-19.9,14.248-.31-7.819c1.3-1.735,17.45-12.117,17.45-12.117Z" transform="translate(713.634 2128.048)"/><path class="j" d="M651.764,336.59l.665,3.481-4.45,4.521,3.552-7.951s-7.611,5.3-9.895,6.708-4.567,6.165-4.653,7.464-3.679,20.875-3.679,20.875-2.7,7.246-1.943,9.3-4.11,66.848-4.11,66.848a9.641,9.641,0,0,1,6.505-4.988l-1.735-38.29s2.111-25.473,2.217-25.8,4.922-15.091,4.922-15.091Z" transform="translate(738.076 2119.665)"/><path class="f" d="M655.2,344.3l-.345,7.1s-4.815,15.2-6.434,17.684-6.546,17.308-6.546,17.308L639.1,412.143l-4.76,2.167L632,409.991l3.9-24.864s7.353-20.982,8.438-23.149l5.424-11.427Z" transform="translate(735.736 2115.867)"/><path class="v" d="M654.33,343.45l-.34,7.1s-4.815,15.2-6.439,17.684-6.541,17.308-6.541,17.308l-2.76,25.742-4.76,2.162-2.38-4.323,3.9-24.864s7.353-20.987,8.433-23.149l5.465-11.412Z" transform="translate(736.175 2116.285)"/><path class="r" d="M566.31,448.02l9.3,6.439s6.561-3.679,2.74-6.059a16.942,16.942,0,0,0-8.438-2.74C568.685,445.66,566.31,448.02,566.31,448.02Z" transform="translate(768.093 2065.939)"/><path class="r" d="M579.345,426.019a1.431,1.431,0,0,0-.675,1.223c0,1.974.223,7.2,1.878,4.841,2.03-2.887,1.659-5.48,4.76-3.608a18.269,18.269,0,0,1,4.973,4.567l-.863-6.2S583.044,423.7,579.345,426.019Z" transform="translate(762.005 2076.035)"/><path class="f" d="M684.858,541.324a13.967,13.967,0,0,0-1.218,4.389c-18.968,5.688-32.846-6.338-32.846-6.338a165.537,165.537,0,0,1-4.11-17.3,56.392,56.392,0,0,1,.051-10.605l33.911-5.947S687.024,537.97,684.858,541.324Z" transform="translate(728.613 2036.454)"/><path class="j" d="M704.3,352.78c-.863,2.816-.538,8.545-.538,8.545L695.973,398.1s-3.785,28.34-4.435,32.125-1.73,20.444-1.73,20.444c-22.068,10.818-39.072-3.892-39.072-3.892a165.842,165.842,0,0,1-4.11-17.308c-1.086-6.424,2.111-32.161,3.623-43.593.452-3.385.756-5.516.756-5.516l5.678-21.094s6.977-17.8,9.575-22.986,13.031-16.852,13.031-16.852c1.294-.822,3.364,2.08,4.9,4.724,1.162,2,2.03,3.856,2.03,3.856s12.98,5.622,14.923,8.626,1.624,9.195,1.842,9.519S705.168,349.969,704.3,352.78Z" transform="translate(728.641 2128.186)"/><path class="f" d="M677.861,340.112s.974,5.734-1.522,7.464c-2.41,1.674-20.353,36.956-21.469,39.158.452-3.39.756-5.521.756-5.521l5.678-21.089s6.982-17.8,9.575-22.991,13.036-16.852,13.036-16.852c1.294-.822,3.359,2.08,4.9,4.724C686.493,329.822,681.657,338.925,677.861,340.112Z" transform="translate(724.471 2127.767)"/><path class="j" d="M677,339.262s.969,5.734-1.522,7.464S655.132,383.677,654,385.88c.452-3.385.756-5.516.756-5.516l5.678-21.094s6.977-17.8,9.575-22.986,13.031-16.852,13.031-16.852c1.294-.822,3.364,2.08,4.9,4.724C685.633,328.967,680.792,338.075,677,339.262Z" transform="translate(724.9 2128.186)"/><path class="w" d="M636.624,415.494l-6.1,31.76v.005l-.584,3.039v.005l-1.314,6.835-5.607-1.187L620.4,455.4l-36.164-7.662-2.659-.563-6.069-1.284L576.7,438l.492-3.278,4.379-29.076Z" transform="translate(791.018 2103.768)"/><path class="r" d="M672.2,511.92s-14.385,5.191-11.249,11.356,23.255-4.76,23.255-4.76Z" transform="translate(721.698 2033.301)"/><path class="f" d="M703.8,599.1c0,.431.543,5.952,2.7,7.9S703.8,599.1,703.8,599.1Z" transform="translate(700.369 1990.359)"/><path class="f" d="M675.24,637.68s2.593,7.139,12.868,10.062S675.24,637.68,675.24,637.68Z" transform="translate(714.437 1971.355)"/><path class="f" d="M692.2,267.42a16.872,16.872,0,0,1-8.459,14.629,8.982,8.982,0,0,1-2.537-2.116,3.279,3.279,0,0,1-.868-3.177c.355-.857,1.294-1.4,1.522-2.288a3.369,3.369,0,0,0-.081-1.634c-.188-.837-.365-1.674-.548-2.507-.157-.71-.436-1.548-1.142-1.72s-1.294.416-1.847.852c-1.355,1.071-3.953,1.8-5.582.918s-1.172-3.816-1.436-5.4a.944.944,0,0,0-.355-.715,1.482,1.482,0,0,0-.736-.051,2.118,2.118,0,0,1-1.837-1.629,14.019,14.019,0,0,1-.294-2.613,2.915,2.915,0,0,0-1.167-2.258,3.608,3.608,0,0,0-1.923-.315l-3.182.036a16.877,16.877,0,0,1,30.446,10.006Z" transform="translate(721.092 2162.028)"/><path class="v" d="M675.832,265.042c.553-.436,1.162-1.015,1.847-.847s.979,1.015,1.137,1.715l.548,2.5a3.4,3.4,0,0,1,.086,1.639c-.259.893-1.192,1.431-1.553,2.288a3.279,3.279,0,0,0,.868,3.171,9.133,9.133,0,0,0,5.221,3.121,3.836,3.836,0,0,0,1.629.036,4.821,4.821,0,0,0,2.679-2.431c3.354-5.227,6.241-10.955,6.83-17.136a10.994,10.994,0,0,0-.173-3.78,12.69,12.69,0,0,0-1.157-2.765,22.331,22.331,0,0,0-3.263-4.937,18.532,18.532,0,0,0-8.768-4.917,29.7,29.7,0,0,0-11.321-.888c-1.015.117-1.989.284-2.989.35a30.08,30.08,0,0,1-3.765-.061l-7.469-.447a2.9,2.9,0,0,0,.507,2.71,4.862,4.862,0,0,1,1.1,2.618,5.386,5.386,0,0,1-1.253,2.537,2.5,2.5,0,0,0-.4,2.654c.528.792,1.6.842,2.537.832l3.765-.041a3.6,3.6,0,0,1,1.913.33,2.923,2.923,0,0,1,1.167,2.258,14.928,14.928,0,0,0,.294,2.613,2.111,2.111,0,0,0,1.837,1.629,1.369,1.369,0,0,1,.736.056.934.934,0,0,1,.355.71c.264,1.588-.223,4.521,1.436,5.4S674.477,266.113,675.832,265.042Z" transform="translate(723.953 2166.445)"/><path class="f" d="M706.4,353.425a8.271,8.271,0,0,0-8.7,5.556c-2.03,5.78-5.414,16.207-4.567,20.327,1.192,5.84,2.6,15.578,2.6,15.578s6.165,3.552,3.045,7.134a20.208,20.208,0,0,0-4,8.657s-4,1.73-4.866,5.409-6.708,8.758-6.708,8.758l-8.758,8.763s14.492,14.715,17.415,15.466l8.976-10.494,10.6-14.061,9.195-9.641s2.162-5.074,1.081-14.715a70.428,70.428,0,0,0-5.3-18.82l.325-3.248S717.723,354.83,706.4,353.425Z" transform="translate(714.831 2111.395)"/><path class="j" d="M708.108,353.426a8.271,8.271,0,0,0-8.692,5.556c-2.03,5.78-5.414,16.207-4.567,20.328,1.187,5.84,2.593,15.578,2.593,15.578s6.165,3.552,3.045,7.134a20.164,20.164,0,0,0-4,8.657s-4,1.73-4.871,5.409-6.7,8.758-6.7,8.758l-8.763,8.763s14.492,14.715,17.415,15.466l8.976-10.494,10.575-14.061,9.195-9.641s2.167-5.074,1.081-14.715a70.734,70.734,0,0,0-5.3-18.82l.325-3.247S719.428,354.831,708.108,353.426Z" transform="translate(713.989 2111.394)"/><path class="f" d="M721.28,418.34s9.195,11.245,13.092,8.758S721.28,418.34,721.28,418.34Z" transform="translate(691.759 2079.396)"/><path class="f" d="M728.1,401.28c.974.325,8.981,11.468,13.092,10.148S728.1,401.28,728.1,401.28Z" transform="translate(688.4 2087.8)"/><path class="f" d="M732.58,439s.543,6.383,7.139,5.516S732.58,439,732.58,439Z" transform="translate(686.193 2069.22)"/><path class="f" d="M617.557,301.83l-3.567,7.951,4.455-4.521Z" transform="translate(772.064 2154.906)"/><path class="u" d="M617.557,300.98l-3.567,7.951,4.455-4.521Z" transform="translate(772.064 2155.325)"/><path class="x" d="M585.39,475.96l-2.659-.563-4.881-9.169.492-3.278Z" transform="translate(789.866 2075.543)"/><path class="x" d="M674.1,487.65l-.583,3.039v.005l-6.921,5.648-2.613-.553Z" transform="translate(747.44 2063.376)"/><path class="f" d="M472.436,399.586c-1.34.223-2.639.426-3.826.579-6.6.868-22.286-6.921-22.286-6.921s-19.145-16.009-24.661-31.151,6.6-17.415,6.6-17.415c4.567-2.6,14.5,4.648,15.9,5.84a9.032,9.032,0,0,1,2.486,6.165c-.112,1.949,3.248,4.435,3.248,4.435s5.734,9.951,7.139,11.031,1.73,2.055,2.162,3.9,4.217,3.354,5.84,3.242,3.552.543,3.552,1.406c0,.7,1.588,1.04,2.892,1.152C471.867,387.393,472.248,394.659,472.436,399.586Z" transform="translate(840.052 2115.956)"/><path class="f" d="M473.217,396.324c-1.015.162-1.989.31-2.9.431-6.6.868-22.281-6.921-22.281-6.921s-19.145-16.009-24.661-31.151,6.6-17.415,6.6-17.415c4.567-2.6,14.492,4.648,15.9,5.841a9.06,9.06,0,0,1,2.491,6.165c-.107,1.948,3.242,4.435,3.242,4.435s5.734,9.951,7.139,11.031,1.73,2.055,2.167,3.9,4.217,3.349,5.84,3.242,3.552.543,3.552,1.406c0,.507.9.847,1.908,1.015.041.589.076,1.213.122,1.862C472.664,385.15,473.009,391.513,473.217,396.324Z" transform="translate(839.21 2117.635)"/><path class="f" d="M570.736,428.84l-.411,9.722h-.442l-.913-.507.112-8.378A14.707,14.707,0,0,1,570.736,428.84Z" transform="translate(766.783 2074.224)"/><path class="n" d="M428.259,342.97s-12.112,2.273-6.6,17.415,24.661,31.156,24.661,31.156,15.685,7.784,22.286,6.921,16.654-3.136,17.953-2.811,10.062.325,10.062.325l.431-10.149-10.149-.543-5.191-1.081s-1.842-1.522-2.923-1.3-3.349-1.3-3.349-1.3A6.466,6.466,0,0,0,472.4,380.2c-1.309,0-3.785-.325-3.785-1.187s-1.949-1.522-3.552-1.406-5.435-1.406-5.881-3.268-.756-2.811-2.162-3.892-7.139-11.036-7.139-11.036-3.354-2.486-3.248-4.43a9.077,9.077,0,0,0-2.486-6.17C442.741,347.618,432.8,340.377,428.259,342.97Z" transform="translate(840.052 2116.796)"/><path class="f" d="M493.907,412.15s-4.653,4.653-3.466,5.516Z" transform="translate(805.56 2082.446)"/><path class="f" d="M502.687,419.4s-6.059,4.653-4.435,4.978S502.687,419.4,502.687,419.4Z" transform="translate(801.753 2078.874)"/><path class="f" d="M487,433c.868.436,13.736,8.119,18.607,8.007Z" transform="translate(807.16 2072.175)"/><path class="f" d="M469.3,321.038s-2.273,7.464-3.141,7.464c-.68,0-12.1-9.245-16.862-13.132l.208-.173s.431-3.354,2.162-5.074S469.3,321.038,469.3,321.038Z" transform="translate(825.73 2132.78)"/><path class="n" d="M468.443,319.328s-2.268,7.464-3.136,7.464c-.685,0-12.1-9.245-16.867-13.132l.208-.173s.436-3.354,2.167-5.074S468.443,319.328,468.443,319.328Z" transform="translate(826.153 2133.623)"/><g class="y" transform="translate(1263.963 2403.787)"><path d="M427.49,282.54h0c1.522,3.476,5.714,5.161,8.144,7.931C434.188,287.066,429.961,285.4,427.49,282.54Z" transform="translate(-427.49 -257.499)"/><path d="M451.588,295.473a3.647,3.647,0,0,1-3.329,1.7,9.713,9.713,0,0,1-3.339-.852,6.491,6.491,0,0,1,.863,1.837,10.606,10.606,0,0,0,3.775,1.015,3.611,3.611,0,0,0,3.329-1.7c.969-1.852-.041-3.435-1.223-4.932A3.222,3.222,0,0,1,451.588,295.473Z" transform="translate(-436.076 -262.424)"/><path d="M473.476,240.806a17.4,17.4,0,0,0-1.34-2.659,16.623,16.623,0,0,1-.553-2.172,6.728,6.728,0,0,0-1.558-2.786,6.475,6.475,0,0,1,.259.766,17.452,17.452,0,0,0,.568,2.182,17.409,17.409,0,0,1,1.34,2.659,2.755,2.755,0,0,1-2.03,3.176c-1.877.411-4.019-1.213-5.632-.167-.989.634-1.218,1.959-1.35,3.126q-.34,3.045-.69,6.054a7.259,7.259,0,0,1-.447,2.08c-.8,1.827-2.984,2.684-4.978,2.654a2.989,2.989,0,0,1-2.141-.71,14.15,14.15,0,0,0-.929-1.177c-2.537-2.131-3.308,3.08-2.639,4.567a9.2,9.2,0,0,0,1.238,1.862c-.558-1.675.223-6.5,2.7-4.43a13.108,13.108,0,0,1,.924,1.177,3.009,3.009,0,0,0,2.146.71c1.994.03,4.181-.827,4.978-2.654a7.258,7.258,0,0,0,.447-2.085q.345-3.045.69-6.049c.132-1.167.36-2.491,1.345-3.126,1.619-1.045,3.76.578,5.638.162A2.75,2.75,0,0,0,473.476,240.806Z" transform="translate(-439.133 -233.19)"/></g><path class="f" d="M686.58,277.3a3.921,3.921,0,0,1-1.629-.041,9.134,9.134,0,0,1-5.216-3.116,3.267,3.267,0,0,1-.868-3.177c.355-.858,1.289-1.4,1.522-2.288a3.4,3.4,0,0,0-.086-1.639l-.548-2.5c-.157-.71-.431-1.548-1.137-1.715s-1.294.411-1.847.847c-1.355,1.071-3.958,1.8-5.582.918s-1.172-3.816-1.436-5.4a.949.949,0,0,0-.355-.71,1.446,1.446,0,0,0-.741-.056,2.124,2.124,0,0,1-1.837-1.629,14.418,14.418,0,0,1-.289-2.613,2.928,2.928,0,0,0-1.172-2.258,3.648,3.648,0,0,0-1.913-.33l-3.765.041c-.929,0-2.03-.061-2.537-.832a2.528,2.528,0,0,1,.4-2.654,5.251,5.251,0,0,0,1.253-2.537,4.771,4.771,0,0,0-1.1-2.618,4.693,4.693,0,0,1-.639-1.451l-1.081-.066a2.92,2.92,0,0,0,.508,2.71,4.841,4.841,0,0,1,1.1,2.613,5.387,5.387,0,0,1-1.253,2.537,2.484,2.484,0,0,0-.4,2.654,2.836,2.836,0,0,0,2.537.837l3.765-.046a3.643,3.643,0,0,1,1.913.335,2.913,2.913,0,0,1,1.172,2.258,14.029,14.029,0,0,0,.294,2.613,2.1,2.1,0,0,0,1.837,1.624,1.486,1.486,0,0,1,.736.056.954.954,0,0,1,.355.715c.264,1.583-.223,4.521,1.436,5.4s4.247.152,5.582-.918c.553-.436,1.167-1.015,1.852-.853s.979,1.015,1.132,1.715l.553,2.507a3.4,3.4,0,0,1,.081,1.639c-.254.888-1.193,1.431-1.548,2.283a3.276,3.276,0,0,0,.868,3.176,9.134,9.134,0,0,0,5.252,3.116,3.922,3.922,0,0,0,1.629.041,3.826,3.826,0,0,0,2.111-1.6A2.82,2.82,0,0,1,686.58,277.3Z" transform="translate(724.069 2166.518)"/><ellipse class="a" cx="12.264" cy="1.883" rx="12.264" ry="1.883" transform="translate(1165.593 2664.152)"/><ellipse class="a" cx="12.264" cy="1.883" rx="12.264" ry="1.883" transform="translate(1593.819 2615.206)"/><ellipse class="a" cx="35.52" cy="5.45" rx="35.52" ry="5.45" transform="translate(1445.53 2687.498)"/><ellipse class="a" cx="27.705" cy="4.252" rx="27.705" ry="4.252" transform="translate(1554.316 2665.608)"/><ellipse class="a" cx="46.983" cy="7.211" rx="46.983" ry="7.211" transform="translate(1530.478 2705.02)"/><ellipse class="a" cx="35.52" cy="5.45" rx="35.52" ry="5.45" transform="translate(1089.845 2713.123)"/><path class="w" d="M255.182,631.85s1.39,1.817-.639,4.567-3.7,5.074-3.045,6.769c0,0,3.045-5.074,5.582-5.166S257.927,634.915,255.182,631.85Z" transform="translate(923.234 1974.227)"/><path class="f" d="M255.27,631.85a2.031,2.031,0,0,1,.284.568c2.436,2.862,3.73,5.526,1.39,5.582-2.177.061-4.79,3.958-5.414,4.942a1.909,1.909,0,0,0,.071.223s3.045-5.074,5.582-5.166S258.015,634.915,255.27,631.85Z" transform="translate(923.146 1974.227)"/><path class="z" d="M263.685,636.011c0,.639-.076,1.157-.162,1.157s-.162-.507-.162-1.157.091-.335.178-.335S263.685,635.372,263.685,636.011Z" transform="translate(917.319 1972.38)"/><path class="z" d="M264.678,637.491c-.558.3-1.05.507-1.091.411s.375-.386.939-.7.34-.081.381,0S265.242,637.182,264.678,637.491Z" transform="translate(917.208 1971.666)"/><path class="w" d="M241.413,631.85s-1.39,1.817.639,4.567,3.709,5.074,3.045,6.769c0,0-3.045-5.074-5.556-5.166S238.652,634.915,241.413,631.85Z" transform="translate(929.666 1974.227)"/><path class="f" d="M241.4,631.85a2.239,2.239,0,0,0-.284.568c-2.436,2.862-3.73,5.526-1.39,5.582,2.177.061,4.79,3.958,5.419,4.942a1.949,1.949,0,0,1-.076.223s-3.045-5.074-5.556-5.166S238.642,634.915,241.4,631.85Z" transform="translate(929.676 1974.227)"/><path class="z" d="M239.35,636.011c0,.639.071,1.157.157,1.157s.162-.507.162-1.157-.091-.335-.178-.335S239.35,635.372,239.35,636.011Z" transform="translate(929.146 1972.38)"/><path class="z" d="M237.269,637.491c.563.3,1.05.507,1.1.411s-.381-.386-.944-.7-.34-.081-.381,0S236.705,637.182,237.269,637.491Z" transform="translate(930.339 1971.666)"/><ellipse class="a" cx="14.528" cy="2.228" rx="14.528" ry="2.228" transform="translate(1160.219 2626.851)"/><path class="aa" d="M251.886,648.527l-.071.568-.1.8-.041.335-.1.8-.046.335-.1.8-1.111,9.134c-.1.812-1.426,1.446-3.045,1.446h-5.754c-1.6,0-2.933-.634-3.045-1.446l-1.111-9.134-.1-.8-.041-.335-.1-.8-.041-.335-.1-.8-.071-.568c-.056-.462.665-.847,1.573-.847h11.818C251.221,647.68,251.942,648.066,251.886,648.527Z" transform="translate(930.341 1966.429)"/><path class="ab" d="M197.777,614.76l-.1.8H183.056l-.1-.8Z" transform="translate(984.379 2000.765)"/><path class="ab" d="M197.773,617l-.1.8H183.331l-.1-.8Z" transform="translate(984.246 1999.662)"/><path class="ab" d="M197.774,619.24l-.1.8H183.606l-.1-.8Z" transform="translate(984.108 1998.558)"/><path class="w" d="M1082.508,618s-1.735,8.078,5.982,9.032l.477-.9S1082.985,620.507,1082.508,618Z" transform="translate(513.909 1981.049)"/><path class="w" d="M1093.733,622.113l-1.8.381-.178.041s-4.79-3.887-4.729-12.564a21.423,21.423,0,0,0,2.289,3.618C1091.216,616.1,1093.372,619.449,1093.733,622.113Z" transform="translate(511.601 1985.004)"/><path class="w" d="M1097.291,620.044a1.127,1.127,0,0,1-.964.127c-4.607-1.076-3.044-16.09-3.044-16.09.254.117.507,2.03,1.593,4.5C1096.728,612.9,1098.772,618.958,1097.291,620.044Z" transform="translate(508.646 1987.906)"/><path class="w" d="M1113.9,618s.3,8.078-7.418,9.032l-.482-.913S1113.424,620.507,1113.9,618Z" transform="translate(502.256 1981.049)"/><path class="w" d="M1109.314,610a14.94,14.94,0,0,1-6.16,12.564l-.183-.041-1.791-.381c.355-2.664,2.537-6.013,4.409-8.525A19.523,19.523,0,0,1,1109.314,610Z" transform="translate(504.63 1984.99)"/><path class="w" d="M1101.881,619.267a2.8,2.8,0,0,1-1.015.786h0a1.969,1.969,0,0,1-.38.127c-1.132.264-1.522-.553-1.461-1.943.106-2.471,1.659-6.759,3.044-9.971a12.462,12.462,0,0,1,2.892-4.176S1104.89,615.776,1101.881,619.267Z" transform="translate(505.695 1987.901)"/><path class="w" d="M1099.679,593.7s-5.145,18.267-.715,21S1100.816,595.314,1099.679,593.7Z" transform="translate(506.608 1993.019)"/><path class="f" d="M1082.508,618s-1.735,8.078,5.982,9.032l.477-.9S1082.985,620.507,1082.508,618Z" transform="translate(513.909 1981.049)"/><path class="f" d="M1093.733,622.113l-1.8.381-.178.041s-4.79-3.887-4.729-12.564a21.423,21.423,0,0,0,2.289,3.618C1091.216,616.1,1093.372,619.449,1093.733,622.113Z" transform="translate(511.601 1985.004)"/><path class="f" d="M1097.291,620.044a1.127,1.127,0,0,1-.964.127c-4.607-1.076-3.044-16.09-3.044-16.09.254.117.507,2.03,1.593,4.5C1096.728,612.9,1098.772,618.958,1097.291,620.044Z" transform="translate(508.646 1987.906)"/><path class="f" d="M1113.9,618s.3,8.078-7.418,9.032l-.482-.913S1113.424,620.507,1113.9,618Z" transform="translate(502.256 1981.049)"/><path class="f" d="M1109.314,610a14.94,14.94,0,0,1-6.16,12.564l-.183-.041-1.791-.381c.355-2.664,2.537-6.013,4.409-8.525A19.523,19.523,0,0,1,1109.314,610Z" transform="translate(504.63 1984.99)"/><path class="f" d="M1101.881,619.267a2.8,2.8,0,0,1-1.015.786h0a1.969,1.969,0,0,1-.38.127c-1.132.264-1.522-.553-1.461-1.943.106-2.471,1.659-6.759,3.044-9.971a12.462,12.462,0,0,1,2.892-4.176S1104.89,615.776,1101.881,619.267Z" transform="translate(505.695 1987.901)"/><path class="f" d="M1099.679,593.7s-5.145,18.267-.715,21S1100.816,595.314,1099.679,593.7Z" transform="translate(506.608 1993.019)"/><path class="w" d="M1082.627,618s-1.015,8.078,6.7,9.032l.477-.9S1083.1,620.507,1082.627,618Z" transform="translate(513.79 1981.049)"/><path class="w" d="M1094.433,622.128l-1.8.381-.178.041s-5.505-3.887-5.46-12.549c0,0,1.411,1.522,3,3.618C1091.917,616.115,1094.073,619.464,1094.433,622.128Z" transform="translate(511.615 1984.99)"/><path class="f" d="M1097.365,625.625l-1.8.38c-1.7-1.492-2.375-5.389-2.618-8.905C1094.848,619.612,1097,622.961,1097.365,625.625Z" transform="translate(508.684 1981.492)"/><path class="w" d="M1098.2,620.044a1.137,1.137,0,0,1-.969.127c-4.607-1.076-3.765-16.09-3.765-16.09a20.848,20.848,0,0,1,2.309,4.5C1097.632,612.9,1099.672,618.958,1098.2,620.044Z" transform="translate(508.462 1987.906)"/><path class="w" d="M1114.6,618s1.015,8.078-6.7,9.032l-.477-.9S1114.128,620.507,1114.6,618Z" transform="translate(501.551 1981.049)"/><path class="w" d="M1110.009,610c.061,8.677-5.445,12.564-5.445,12.564l-.178-.041-1.8-.381c.355-2.664,2.537-6.013,4.415-8.525C1108.6,611.522,1110.009,610,1110.009,610Z" transform="translate(503.935 1984.99)"/><path class="f" d="M1107,617.1c-.233,3.278-.832,6.886-2.289,8.57a2.59,2.59,0,0,1-.33.335l-1.8-.381C1102.945,622.961,1105.107,619.612,1107,617.1Z" transform="translate(503.935 1981.492)"/><path class="w" d="M1103.292,619.267a2.743,2.743,0,0,1-1.015.786h0a2.033,2.033,0,0,1-.375.127c-1.137.264-1.522-.553-1.466-1.943.112-2.471,1.664-6.759,3.044-9.971a19.527,19.527,0,0,1,2.177-4.176C1105.656,604.085,1106.3,615.776,1103.292,619.267Z" transform="translate(505 1987.901)"/><path class="f" d="M1100.231,624.408a1.218,1.218,0,0,1-.731-.233c-2.167-1.35-2.212-6.414-1.695-11.234C1099.667,617.268,1101.707,623.322,1100.231,624.408Z" transform="translate(506.427 1983.542)"/><path class="f" d="M1103.3,623.321c-.249.543-.584.827-1.015.786h0a1.365,1.365,0,0,1-.614-.233,3.277,3.277,0,0,1-1.228-1.583c.111-2.471,1.664-6.759,3.044-9.971C1103.982,616.77,1104.149,621.489,1103.3,623.321Z" transform="translate(504.994 1983.847)"/><path class="w" d="M1100.211,593.7s-4.425,18.267,0,21S1101.348,595.314,1100.211,593.7Z" transform="translate(506.076 1993.019)"/><path class="ac" d="M1046.865,597.61H1028.44v3.05h2.811l.071.36,1.127,5.922h10.712l1.127-5.922.066-.36h2.512Z" transform="translate(567.917 2009.213)"/><path class="f" d="M1046.865,597.61H1028.44v3.05h2.811l.071.36,1.127,5.922h10.712l1.127-5.922.066-.36h2.512Z" transform="translate(567.917 2009.213)"/><path class="ac" d="M1048.5,601.14l-.31,1.619-1.126,5.922h-10.712l-1.126-5.922-.31-1.619Z" transform="translate(564.725 2007.474)"/><path class="f" d="M1048.5,601.14l-.31,1.619H1035.23l-.31-1.619Z" transform="translate(564.725 2007.474)"/><rect class="ac" width="18.425" height="3.05" transform="translate(1597.072 2606.823)"/><path class="w" d="M162.764,732.495a8.849,8.849,0,0,0-1.157,2.182c-.071.188-.142.406-.213.614a2.221,2.221,0,0,0-.4-.142,5.581,5.581,0,0,0-1.812-.152c0-.238.03-.507.036-.746.076-2.674-.239-6.4-2.791-4.821-2.446,1.522-.7,4.059.878,5.683.137.142.274.274.406.4-1.441,1.015-1.715,3.415-1.954,5.906s-2.354,5.216-3.76,6.764c-.142.157-.269.3-.4.431a5.15,5.15,0,0,0-4.085-1.051c-.056-.218-.122-.446-.188-.685-1.137-4.105-3.5-11.214-6.505-12.772l.4-.507c1.279-1.669,2.72-4.156.594-4.79s-2.319,2.151-2.2,4.242q.03.4.061.746a3.111,3.111,0,0,0-2.223,1.086l-.33-.391c-1.725-2.03-4.886-5.262-5.846-2.821-.893,2.273,1.893,5.226,3.851,6.937l.122.107c-1.314,5.333,4.425,9.682,7.515,11.584l.4.244c-4.262,5.023-6.9,14.441-6.9,14.441l11.935,2.131s7.916-6.83,6.9-13.244h.081c7.911-1.583,9.707-10.017,8.474-15.025l.142-.056a8.957,8.957,0,0,0,3.664-2.771C169.675,732.952,165.048,729.481,162.764,732.495Z" transform="translate(982.466 1926.511)"/><path class="f" d="M162.764,732.495a8.849,8.849,0,0,0-1.157,2.182c-.071.188-.142.406-.213.614a2.221,2.221,0,0,0-.4-.142,5.581,5.581,0,0,0-1.812-.152c0-.238.03-.507.036-.746.076-2.674-.239-6.4-2.791-4.821-2.446,1.522-.7,4.059.878,5.683.137.142.274.274.406.4-1.441,1.015-1.715,3.415-1.954,5.906s-2.354,5.216-3.76,6.764c-.142.157-.269.3-.4.431a5.15,5.15,0,0,0-4.085-1.051c-.056-.218-.122-.446-.188-.685-1.137-4.105-3.5-11.214-6.505-12.772l.4-.507c1.279-1.669,2.72-4.156.594-4.79s-2.319,2.151-2.2,4.242q.03.4.061.746a3.111,3.111,0,0,0-2.223,1.086l-.33-.391c-1.725-2.03-4.886-5.262-5.846-2.821-.893,2.273,1.893,5.226,3.851,6.937l.122.107c-1.314,5.333,4.425,9.682,7.515,11.584l.4.244c-4.262,5.023-6.9,14.441-6.9,14.441l11.935,2.131s7.916-6.83,6.9-13.244h.081c7.911-1.583,9.707-10.017,8.474-15.025l.142-.056a8.957,8.957,0,0,0,3.664-2.771C169.675,732.952,165.048,729.481,162.764,732.495Z" transform="translate(982.466 1926.511)"/><path class="w" d="M139.716,737.987l-1.4,4.059s-.776-.548-1.756-1.411c-1.959-1.71-4.744-4.663-3.851-6.936.959-2.441,4.12.781,5.846,2.821C139.254,737.333,139.716,737.987,139.716,737.987Z" transform="translate(981.757 1924.49)"/><path class="w" d="M150.894,733.613a19.338,19.338,0,0,1-1.36,1.6,21.41,21.41,0,0,1-.249-2.151c-.117-2.091.107-4.866,2.2-4.242S152.173,731.944,150.894,733.613Z" transform="translate(973.521 1926.504)"/><path class="w" d="M184.111,734.573c-.041,1.345-.173,2.42-.173,2.42a17.71,17.71,0,0,1-1.74-1.558c-1.578-1.639-3.324-4.166-.878-5.683C183.847,728.17,184.162,731.9,184.111,734.573Z" transform="translate(958.328 1926.189)"/><path class="w" d="M197.856,738.551a8.956,8.956,0,0,1-3.664,2.771,10.99,10.99,0,0,1-1.228.447l-1.644-2.309a16.327,16.327,0,0,1,.68-2.243,8.85,8.85,0,0,1,1.157-2.182C195.43,732.021,200.068,735.492,197.856,738.551Z" transform="translate(952.804 1923.971)"/><path class="f" d="M142.464,740.11c.7.812,1.157,1.441,1.157,1.441l-1.4,4.059s-.776-.548-1.756-1.411a7.967,7.967,0,0,1,1.573-3.588C142.18,740.445,142.327,740.272,142.464,740.11Z" transform="translate(977.851 1920.901)"/><path class="f" d="M150.919,737.818a19.334,19.334,0,0,1-1.36,1.6,21.4,21.4,0,0,1-.249-2.151A2.806,2.806,0,0,1,150.919,737.818Z" transform="translate(973.497 1922.3)"/><path class="w" d="M153.345,754.746l-3.471,1.522s-.756-.365-1.847-1.045c-3.648-2.243-10.981-7.89-6.089-14.548s9.017,5.282,10.656,11.123C153.086,753.574,153.345,754.746,153.345,754.746Z" transform="translate(977.931 1921.589)"/><path class="f" d="M184.18,740.483a2.851,2.851,0,0,1,1.913-.863c-.041,1.345-.173,2.42-.173,2.42A17.729,17.729,0,0,1,184.18,740.483Z" transform="translate(956.321 1921.142)"/><path class="f" d="M194.212,744.565a11,11,0,0,1-1.228.447L191.34,742.7a16.326,16.326,0,0,1,.68-2.243C193.07,741.079,193.852,742.622,194.212,744.565Z" transform="translate(952.794 1920.728)"/><path class="w" d="M173.226,759.927c-.188.041-.386.076-.584.107-11.635,1.766-3.836-4.511-3.836-4.511s.507-.507,1.233-1.274c1.406-1.548,3.516-4.257,3.76-6.764.365-3.77.786-7.307,5.237-6.272C183.4,742.238,184.242,757.719,173.226,759.927Z" transform="translate(965.154 1920.448)"/><rect class="ad" width="22.23" height="5.846" transform="translate(1115.931 2709.343)"/><rect class="ad" width="29.045" height="20.398" transform="translate(1112.4 2690.345)"/><rect class="f" width="22.23" height="5.846" transform="translate(1115.931 2709.343)"/><rect class="f" width="29.045" height="20.398" transform="translate(1112.4 2690.345)"/><rect class="ad" width="22.23" height="5.846" transform="translate(1117.393 2709.343)"/><path class="f" d="M160.087,764.51c.507,1.745.751,2.943.751,2.943l-3.471,1.522s-.756-.365-1.847-1.045A8.91,8.91,0,0,1,160.087,764.51Z" transform="translate(970.438 1908.882)"/><path class="f" d="M173.226,772.758c-.188.041-.386.076-.584.107-11.635,1.766-3.836-4.511-3.836-4.511s.507-.507,1.233-1.274A7.7,7.7,0,0,1,173.226,772.758Z" transform="translate(965.154 1907.616)"/><path class="w" d="M142.72,783.193s6.515-23.342,15.654-16.141-3.719,18.267-3.719,18.267Z" transform="translate(976.743 1908.309)"/><circle class="f" cx="0.731" cy="0.731" r="0.731" transform="translate(1122.021 2665.192)"/><circle class="f" cx="0.731" cy="0.731" r="0.731" transform="translate(1121.96 2668.602)"/><circle class="f" cx="0.731" cy="0.731" r="0.731" transform="translate(1143.155 2665.862)"/><circle class="f" cx="0.731" cy="0.731" r="0.731" transform="translate(1126.105 2683.343)"/><circle class="f" cx="0.731" cy="0.731" r="0.731" transform="translate(1141.632 2671.525)"/><circle class="f" cx="0.731" cy="0.731" r="0.731" transform="translate(1134.082 2679.08)"/><circle class="f" cx="0.731" cy="0.731" r="0.731" transform="translate(1124.517 2666.653)"/><circle class="f" cx="0.731" cy="0.731" r="0.731" transform="translate(1141.145 2668.054)"/><circle class="f" cx="0.731" cy="0.731" r="0.731" transform="translate(1138.649 2673.717)"/><circle class="f" cx="0.731" cy="0.731" r="0.731" transform="translate(1130.977 2682.794)"/><circle class="f" cx="0.731" cy="0.731" r="0.731" transform="translate(1129.393 2679.202)"/><circle class="f" cx="0.731" cy="0.731" r="0.731" transform="translate(1125.613 2671.098)"/><rect class="f" width="22.23" height="2.136" transform="translate(1117.393 2709.343)"/><rect class="ad" width="29.045" height="20.398" transform="translate(1113.861 2690.345)"/><circle class="f" cx="0.731" cy="0.731" r="0.731" transform="translate(1131.951 2686.083)"/><circle class="f" cx="0.731" cy="0.731" r="0.731" transform="translate(1127.567 2686.996)"/><circle class="a" cx="5.308" cy="5.308" r="5.308" transform="translate(1094.564 2324.659)"/><circle class="a" cx="7.104" cy="7.104" r="7.104" transform="translate(1602.512 2489.851)"/><circle class="a" cx="5.186" cy="5.186" r="5.186" transform="translate(1618.125 2476.546)"/><circle class="a" cx="7.104" cy="7.104" r="7.104" transform="translate(1101.901 2303.58)"/><circle class="a" cx="7.104" cy="7.104" r="7.104" transform="translate(1074.5 2336.056)"/></g></svg>