<svg xmlns="http://www.w3.org/2000/svg" xmlns:xlink="http://www.w3.org/1999/xlink" width="509.418" height="410.003" viewBox="0 0 509.418 410.003"><defs><style>.a,.b{fill:#329ce3;}.a,.g,.k,.q{opacity:0.1;}.c,.k,.s{fill:none;stroke-miterlimit:10;}.c{stroke:#535461;stroke-width:2px;}.d{fill:#f5f5f5;}.d,.r{opacity:0.2;}.e{fill:#ffb9b9;}.f{fill:#b96b6b;}.h{fill:#777b9b;}.i{fill:#cbcdda;}.j{opacity:0.05;}.k,.s{stroke:#329ce3;}.l{fill:#535461;}.m{opacity:0.7;}.n{fill:url(#a);}.o{fill:#3e3f49;}.p{fill:#e0e0e0;}.q{fill:#fff;}</style><linearGradient id="a" x1="0.5" y1="1" x2="0.5" gradientUnits="objectBoundingBox"><stop offset="0" stop-color="gray" stop-opacity="0.251"/><stop offset="0.54" stop-color="gray" stop-opacity="0.122"/><stop offset="1" stop-color="gray" stop-opacity="0.102"/></linearGradient></defs><g transform="translate(-352.054 -2960.682)"><ellipse class="a" cx="254.709" cy="68.704" rx="254.709" ry="68.704" transform="translate(352.054 3233.278)"/><path class="b" d="M133.262,406.21s27.031,27.031,11.774,67.159,26.159,106.813,26.159,106.813-.445-.063-1.266-.211c-55.516-9.812-83.106-73.3-52.232-120.48C129.174,441.953,138.57,421.382,133.262,406.21Z" transform="translate(289.793 2708.47)"/><path class="c" d="M149.972,406.21s15.257,33.132,0,60.163-2.617,102.9,37.932,113.8" transform="translate(273.083 2708.47)"/><path class="b" d="M70.25,597.745s30.845-4.915,33.639,22.732,59.3,31.473,59.3,31.473-.371.251-1.06.707c-46.616,30.612-91.213,19.488-84.491-21.176C80.131,616.361,79.931,601.166,70.25,597.745Z" transform="translate(304.661 2626.285)"/><path class="d" d="M70.25,597.745s30.845-4.915,33.639,22.732,59.3,31.473,59.3,31.473-.371.251-1.06.707c-46.616,30.612-91.213,19.488-84.491-21.176C80.131,616.361,79.931,601.166,70.25,597.745Z" transform="translate(304.661 2626.285)"/><path class="c" d="M70.25,598s23.947,5.257,21.974,27.025,35.555,47.893,70.99,27.179" transform="translate(304.661 2626.03)"/><path class="e" d="M627.084,688.63s23.433-1.859,30.178,6.2,30.823,26.547,20.885,30.663-63.287-12.321-63.287-12.321Z" transform="translate(70.563 2587.152)"/><path class="f" d="M381.671,179.174a12.218,12.218,0,0,0-9.966-11.112c-3.569-.57-7.555.439-10.622-1.482a19.45,19.45,0,0,1-3.5-3.421c-4.379-4.681-10.953-6.842-17.361-7.03s-12.726,1.363-18.884,3.136c-12.293,3.541-25.281,8.735-31.82,19.727-9.943,16.734-.77,39.289-8.632,57.1-3.421,7.777-9.943,14.128-12.064,22.361-2.851,11,2.771,22.156,7.1,32.659a155.758,155.758,0,0,1,8.8,29.192c1.739,8.826,2.708,18,.747,26.8-.861,3.849-2.281,7.766-1.517,11.631,1.14,5.85,6.8,9.539,11.939,12.543l1.34.787c7.412,4.333,15.035,8.758,23.525,9.829a24.407,24.407,0,0,0,15.394-2.765c4.561-2.7,8.034-7.509,8.421-12.806.433-5.992-2.9-11.6-3.62-17.572a5.341,5.341,0,0,1,.2-2.691,6.593,6.593,0,0,1,2.589-2.583,47.831,47.831,0,0,0,19.226-46.8c-2.2-11.939-9.043-23.81-5.73-35.492,1.83-6.454,6.545-11.682,9.191-17.846a29.957,29.957,0,0,0,.981-20.765c-1.511-4.709-4.248-9.413-3.307-14.254,1.659-8.6,13.114-11.34,17.441-18.958a13.527,13.527,0,0,0-4.105-17.287" transform="translate(219.637 2815.973)"/><path class="g" d="M381.671,179.174a12.218,12.218,0,0,0-9.966-11.112c-3.569-.57-7.555.439-10.622-1.482a19.45,19.45,0,0,1-3.5-3.421c-4.379-4.681-10.953-6.842-17.361-7.03s-12.726,1.363-18.884,3.136c-12.293,3.541-25.281,8.735-31.82,19.727-9.943,16.734-.77,39.289-8.632,57.1-3.421,7.777-9.943,14.128-12.064,22.361-2.851,11,2.771,22.156,7.1,32.659a155.758,155.758,0,0,1,8.8,29.192c1.739,8.826,2.708,18,.747,26.8-.861,3.849-2.281,7.766-1.517,11.631,1.14,5.85,6.8,9.539,11.939,12.543l1.34.787c7.412,4.333,15.035,8.758,23.525,9.829a24.407,24.407,0,0,0,15.394-2.765c4.561-2.7,8.034-7.509,8.421-12.806.433-5.992-2.9-11.6-3.62-17.572a5.341,5.341,0,0,1,.2-2.691,6.593,6.593,0,0,1,2.589-2.583,47.831,47.831,0,0,0,19.226-46.8c-2.2-11.939-9.043-23.81-5.73-35.492,1.83-6.454,6.545-11.682,9.191-17.846a29.957,29.957,0,0,0,.981-20.765c-1.511-4.709-4.248-9.413-3.307-14.254,1.659-8.6,13.114-11.34,17.441-18.958a13.527,13.527,0,0,0-4.105-17.287" transform="translate(219.637 2815.973)"/><path class="h" d="M386.083,626.5H263.5V560.93l68.419,26.227,54.165-26.227Z" transform="translate(238.79 2667.501)"/><path class="g" d="M386.083,626.5H263.5V560.93l68.419,26.227,54.165-26.227Z" transform="translate(238.79 2667.501)"/><path class="e" d="M464,726.8s-22.236,5.314-24.517,15.052,13.114,8.855,13.114,8.855,21.666-4.43,24.517-22.139S464,726.8,464,726.8Z" transform="translate(146.046 2573.497)"/><path class="g" d="M464,726.8s-22.236,5.314-24.517,15.052,13.114,8.855,13.114,8.855,21.666-4.43,24.517-22.139S464,726.8,464,726.8Z" transform="translate(146.046 2573.497)"/><path class="i" d="M361.91,763.794s-20.965,1.363-21.25,18.37c-.04,2.281,21.837,2.942,47.808-11.021s27.738-15.434,27.738-15.434-10.035-16.17-17.1-18.37S361.91,763.794,361.91,763.794Z" transform="translate(188.427 2566.188)"/><path class="h" d="M157.806,659.338s-23.947,19.955,20.526,47.893,87.234,22.806,87.234,22.806,46.388-5.491,53.412-27.265-34.6-40.013-34.6-40.013-45.612,0-66.138-13.114S157.806,659.338,157.806,659.338Z" transform="translate(269.793 2605.578)"/><path class="h" d="M369.129,605.2s20.526,11.973,48.463,0c21.495-9.214,68.647-5.6,89.246-3.421a23.837,23.837,0,0,1,20.571,17.008c2.155,7.623.57,16.991-12.327,25.771-28.508,19.385-48.463,25.087-55.875,33.069S430.7,689.6,430.7,689.6s-26.8-3.991-26.8-9.693,24.517-33.639,24.517-33.639-35.92,33.069-72.98-11.4S369.129,605.2,369.129,605.2Z" transform="translate(187.895 2625.507)"/><path class="e" d="M317.07,381.117l-72.41-49.6s34.734-23.553,37.716-44.6a17.1,17.1,0,0,0-2.366-11.842c-14.254-22.806,50.174,0,50.174,0a134.69,134.69,0,0,0,2.423,17.675c2.8,13.883,8.706,32.373,20.953,41.621C374.655,350.329,317.07,381.117,317.07,381.117Z" transform="translate(229.692 2769.197)"/><path class="g" d="M357.7,292.72a42.226,42.226,0,0,1-50.231-5.81,17.1,17.1,0,0,0-2.366-11.842c-14.254-22.806,50.174,0,50.174,0A134.693,134.693,0,0,0,357.7,292.72Z" transform="translate(204.594 2769.197)"/><circle class="e" cx="42.192" cy="42.192" r="42.192" transform="translate(498.869 2982.124)"/><path class="g" d="M297.62,341.412s-8.552,50.174-22.806,47.323-58.726-53.024-58.726-53.024S169.9,351.1,177.317,388.734s14.824,69.559-.57,81.532-25.087,67.849-25.087,67.849,49.033-20.526,74.69-12.543,51.884,3.991,58.156-3.421S299.9,498.774,299.9,498.774s-13.114-19.385-6.842-29.078,14.254-10.263,18.815-37.63,40.481-37.06,33.639-52.454S325.557,341.412,297.62,341.412Z" transform="translate(269.667 2738.774)"/><path class="i" d="M297.62,337.412s-8.552,50.174-22.806,47.323-58.726-53.024-58.726-53.024S169.9,347.1,177.317,384.734s14.824,69.559-.57,81.532-25.087,67.849-25.087,67.849,49.033-20.526,74.69-12.543,51.884,3.991,58.156-3.421S299.9,494.774,299.9,494.774s-13.114-19.385-6.842-29.078,14.254-10.263,18.815-37.63,40.481-37.06,33.639-52.454S325.557,337.412,297.62,337.412Z" transform="translate(269.667 2740.493)"/><path class="e" d="M461.642,701.031s22.806-5.7,30.788,1.14,34.779,21.1,25.657,26.8-64.428-1.71-64.428-1.71Z" transform="translate(139.854 2582.7)"/><g class="j" transform="translate(421.327 3072.203)"><path d="M314.512,384.734a6.089,6.089,0,0,0,3.917-.57c-15.839-6.112-56.941-52.454-56.941-52.454s-1.619.542-4.208,1.665C265.137,342.1,301.815,382.2,314.512,384.734Z" transform="translate(-197.06 -331.71)"/><path d="M415.64,408.136c15.725-6.049-29.078,25.087-33.639,52.454s-12.543,27.938-18.815,37.63,6.842,29.078,6.842,29.078-9.122,15.964-15.394,23.376c-3.592,4.248-13.735,7.361-26.564,7.754,15.474.49,28.154-2.9,32.265-7.754,6.272-7.412,15.394-23.376,15.394-23.376s-13.114-19.385-6.842-29.078,14.254-10.263,18.815-37.63S411.934,409.561,415.64,408.136Z" transform="translate(-227.489 -364.234)"/><path d="M152.1,673.492c-.291,1.522-.439,2.383-.439,2.383s31.883-13.347,57.688-14.328C189.433,660.721,163.7,669.193,152.1,673.492Z" transform="translate(-151.66 -473.465)"/></g><path class="i" d="M465.259,403.71s5.131.57,10.263,27.367,25.087,52.454,25.087,52.454a124.22,124.22,0,0,1,18.245,34.78c6.842,20.526,37.345,47.608,48.178,48.748,0,0-20.811,20.811-18.53,26.512s-2.281,0-2.281,0-28.508-10.833-34.78-28.508S477.8,518.881,477.8,518.881s-36.49-70.7-38.2-82.1S465.259,403.71,465.259,403.71Z" transform="translate(145.93 2709.544)"/><path class="g" d="M209.16,572.21s43.9,5.131,53.595,18.815,54.592-7.948,54.592-7.948" transform="translate(244.951 2637.115)"/><path class="g" d="M248.795,426.209S267.61,495.2,274.452,503.75s59.866,78.681,84.953,74.12c0,0-7.412,31.929-12.543,33.069,0,0-51.884-51.314-69.559-50.744,0,0-32.5-26.8-35.92-39.911s-30.788-55.875-30.788-55.875-13.684-30.218-7.982-43.332S238.532,413.665,248.795,426.209Z" transform="translate(248.363 2705.291)"/><path class="i" d="M249.795,424.209S268.61,493.2,275.452,501.75s59.866,78.681,84.953,74.12c0,0-7.412,31.929-12.543,33.069,0,0-51.884-51.314-69.559-50.744,0,0-32.5-26.8-35.92-39.911s-30.788-55.875-30.788-55.875-13.684-30.218-7.982-43.332S239.532,411.665,249.795,424.209Z" transform="translate(247.933 2706.15)"/><path class="g" d="M329.671,160.174a12.219,12.219,0,0,0-9.966-11.112c-3.569-.57-7.555.439-10.622-1.482a19.452,19.452,0,0,1-3.5-3.421c-4.379-4.681-10.953-6.842-17.361-7.03s-12.726,1.363-18.884,3.136c-12.293,3.541-25.281,8.735-31.82,19.727-9.944,16.734-.77,39.289-8.632,57.1-3.421,7.777-9.944,14.128-12.064,22.361-2.851,11,2.771,22.156,7.1,32.659a155.755,155.755,0,0,1,8.8,29.192c1.739,8.826,2.708,18,.747,26.8-.861,3.849-2.281,7.766-1.517,11.631,1.14,5.85,6.8,9.539,11.939,12.543l1.34.787c7.412,4.333,15.035,8.758,23.525,9.829a24.407,24.407,0,0,0,15.394-2.765c4.561-2.7,8.033-7.509,8.421-12.806.433-5.992-2.9-11.6-3.62-17.572a5.342,5.342,0,0,1,.2-2.691,6.593,6.593,0,0,1,2.589-2.583,47.831,47.831,0,0,0,19.226-46.8c-2.2-11.939-9.043-23.81-5.73-35.492,1.83-6.454,6.545-11.682,9.191-17.846a29.956,29.956,0,0,0,.981-20.765c-1.511-4.709-4.248-9.413-3.307-14.254,1.659-8.6,13.114-11.34,17.441-18.958a13.527,13.527,0,0,0-4.105-17.287" transform="translate(241.989 2824.14)"/><path class="f" d="M327.671,159.174a12.218,12.218,0,0,0-9.966-11.112c-3.569-.57-7.555.439-10.622-1.482a19.455,19.455,0,0,1-3.5-3.421c-4.379-4.681-10.953-6.842-17.361-7.03s-12.726,1.363-18.884,3.136c-12.293,3.541-25.281,8.735-31.82,19.727-9.943,16.734-.77,39.289-8.632,57.1-3.421,7.777-9.944,14.128-12.064,22.361-2.851,11,2.771,22.156,7.1,32.659a155.754,155.754,0,0,1,8.8,29.192c1.739,8.826,2.708,18,.747,26.8-.861,3.849-2.281,7.766-1.517,11.631,1.14,5.85,6.8,9.539,11.939,12.543l1.34.787c7.412,4.333,15.035,8.758,23.525,9.829a24.407,24.407,0,0,0,15.394-2.765c4.561-2.7,8.033-7.509,8.421-12.806.433-5.992-2.9-11.6-3.62-17.572a5.342,5.342,0,0,1,.2-2.691,6.594,6.594,0,0,1,2.589-2.583,47.831,47.831,0,0,0,19.226-46.8c-2.2-11.939-9.043-23.81-5.73-35.492,1.83-6.454,6.545-11.682,9.191-17.846a29.956,29.956,0,0,0,.981-20.765c-1.511-4.709-4.248-9.413-3.307-14.254,1.659-8.6,13.114-11.34,17.441-18.958a13.527,13.527,0,0,0-4.105-17.287" transform="translate(242.849 2824.57)"/><path class="b" d="M465.368,804.039a6.653,6.653,0,0,0,2.184-3.3,2.925,2.925,0,0,0-1.528-3.358c-1.4-.536-2.9.433-4.037,1.42s-2.44,2.1-3.928,1.893a5.975,5.975,0,0,0,1.847-5.593,2.338,2.338,0,0,0-.513-1.14c-.781-.832-2.189-.473-3.124.182-2.965,2.087-3.791,6.112-3.809,9.738a18.669,18.669,0,0,1-.057-3.991c-.011-1.323-.376-2.851-1.505-3.546a4.561,4.561,0,0,0-2.281-.542,4.748,4.748,0,0,0-3.729,1.06c-1.14,1.209-.838,3.244.148,4.561a14.839,14.839,0,0,0,3.86,3.09,8.555,8.555,0,0,1,2.76,2.628,2.6,2.6,0,0,1,.205.467H460.2a23.276,23.276,0,0,0,5.166-3.575Z" transform="translate(143.94 2542.004)"/><circle class="a" cx="21.284" cy="21.284" r="21.284" transform="translate(414.411 2979.553)"/><circle class="a" cx="18.063" cy="18.063" r="18.063" transform="translate(417.633 2982.774)"/><circle class="a" cx="1.289" cy="1.289" r="1.289" transform="translate(434.407 2999.548)"/><line class="k" x1="7.104" y2="12.429" transform="translate(436.334 2987.296)"/><line class="k" x1="6.899" y1="3.632" transform="translate(436.858 3001.401)"/><rect class="l" width="66.953" height="9.459" rx="4.729" transform="translate(619.035 3316.549)"/><g class="m" transform="translate(659.784 3211.076)"><rect class="n" width="166.4" height="115.057" rx="28.22"/></g><rect class="o" width="157.631" height="112.931" rx="26.84" transform="translate(662.754 3213.197)"/><rect class="l" width="157.631" height="112.931" rx="26.84" transform="translate(664.938 3213.197)"/><circle class="p" cx="5.091" cy="5.091" r="5.091" transform="translate(746.025 3263.792)"/><path class="b" d="M241.327,764.342s-9.054-3.067-13.41,4.909a14.55,14.55,0,0,0,.194,14.009c2.851,5.171,8.758,11.888,19.955,11.289,9.476-.507,12.629-7.737,13.484-14.465a14.858,14.858,0,0,0-19.733-15.907Z" transform="translate(237.62 2554.972)"/><path class="q" d="M230.035,783.79a14.55,14.55,0,0,1-.194-14.009c4.356-7.982,13.41-4.909,13.41-4.909l.462-.165a14.727,14.727,0,0,1,10.639.24,14.732,14.732,0,0,0-12.543-1.2l-.462.165s-9.054-3.067-13.41,4.909a14.55,14.55,0,0,0,.194,14.009,21.648,21.648,0,0,0,10.263,9.693A22.436,22.436,0,0,1,230.035,783.79Z" transform="translate(237.611 2555.16)"/><path class="r" d="M244.52,771.85s3.358,2.64,11.506,0" transform="translate(229.752 2551.301)"/><path class="b" d="M243.26,738.21s5.753,15.582,5.274,19.659l4.561-.479s-7.674-13.684-5.753-19.18Z" transform="translate(230.294 2565.761)"/><path class="r" d="M243.26,738.21s5.753,15.582,5.274,19.659l4.561-.479s-7.674-13.684-5.753-19.18Z" transform="translate(230.294 2565.761)"/><path class="b" d="M271.039,738.752s-9.054-4.63-13.114-.8-4.675,13.6-4.675,13.6S268.023,753.582,271.039,738.752Z" transform="translate(226 2566.525)"/><path class="q" d="M271.039,738.752s-9.054-4.63-13.114-.8-4.675,13.6-4.675,13.6S268.023,753.582,271.039,738.752Z" transform="translate(226 2566.525)"/><path class="s" d="M253.26,753.3s2.378-11.352,17.783-12.8" transform="translate(225.995 2564.777)"/></g></svg>