<svg xmlns="http://www.w3.org/2000/svg" width="192.041" height="31.975" viewBox="0 0 192.041 31.975"><defs><style>.a{fill:#329ce3;}</style></defs><g transform="translate(-277.56 -42.76)"><g transform="translate(282.007 46.261)"><path class="a" d="M9.619,4.8l3.595,13.623L16.714,4.8h5.014V23.626H17.944V18.517l.284-7.852-3.784,12.96H11.89L8.106,10.665l.378,7.852v10.5H4.7V4.8Z" transform="translate(-4.7 -3.759)"/><path class="a" d="M32.3,23.89a5.02,5.02,0,0,1-.284-1.041,3.187,3.187,0,0,1-2.649,1.324,4.07,4.07,0,0,1-2.933-1.135A4.141,4.141,0,0,1,25.3,20.012a4.357,4.357,0,0,1,1.419-3.406,6.318,6.318,0,0,1,4.068-1.23h1.135V14.241a2.289,2.289,0,0,0-.284-1.324,1.1,1.1,0,0,0-.946-.378c-.946,0-1.324.568-1.324,1.608H25.678A4.1,4.1,0,0,1,27.1,10.93,5.279,5.279,0,0,1,30.787,9.7a4.888,4.888,0,0,1,3.595,1.23,4.434,4.434,0,0,1,1.23,3.406v6.622a7.333,7.333,0,0,0,.473,2.838v.189H32.3Zm-2.081-2.649a1.907,1.907,0,0,0,1.041-.284,4.114,4.114,0,0,0,.662-.568V17.552h-.851a2,2,0,0,0-1.514.568,2.225,2.225,0,0,0-.568,1.608C28.989,20.768,29.368,21.241,30.219,21.241Z" transform="translate(-5.812 -4.024)"/><path class="a" d="M45.806,13.384l-1.23-.095a1.893,1.893,0,0,0-1.987,1.324v9.271H38.9v-14h3.5l.095,1.514A2.788,2.788,0,0,1,44.86,9.6a3.4,3.4,0,0,1,1.041.189Z" transform="translate(-6.546 -4.019)"/><path class="a" d="M52.835,18.174l-.946,1.135v4.257H48.2V3.7h3.595V14.39l.473-.662,2.554-4.162h4.352l-4.068,5.771,4.446,8.23H55.39Z" transform="translate(-7.048 -3.7)"/><path class="a" d="M66.96,24.169a5.562,5.562,0,0,1-4.352-1.7A6.487,6.487,0,0,1,61,17.641V16.506A8.2,8.2,0,0,1,62.419,11.4a4.937,4.937,0,0,1,4.162-1.8,4.643,4.643,0,0,1,3.973,1.7,8.138,8.138,0,0,1,1.324,5.014v1.8H64.595a4.312,4.312,0,0,0,.662,2.27,2.347,2.347,0,0,0,1.892.757,3.86,3.86,0,0,0,3.027-1.23L71.6,22.087A4.648,4.648,0,0,1,69.609,23.6,6.348,6.348,0,0,1,66.96,24.169ZM64.595,15.56h3.689v-.378a4.392,4.392,0,0,0-.378-1.892,1.413,1.413,0,0,0-1.324-.662,1.493,1.493,0,0,0-1.419.662A5.6,5.6,0,0,0,64.595,15.56Z" transform="translate(-7.739 -4.019)"/><path class="a" d="M78.9,6.3V9.706H80.79v2.743H78.9v7a2.717,2.717,0,0,0,.189,1.135,1.156,1.156,0,0,0,.851.284,2.1,2.1,0,0,0,.851-.095v2.838a7.368,7.368,0,0,1-1.987.378c-2.365,0-3.595-1.324-3.595-4.068V12.449H73.6V9.706h1.608V6.3Z" transform="translate(-8.419 -3.84)"/><path class="a" d="M83.3,5.987a1.987,1.987,0,1,1,3.973,0,1.94,1.94,0,0,1-1.987,1.987,1.785,1.785,0,0,1-1.419-.568A2.086,2.086,0,0,1,83.3,5.987Zm3.879,17.6H83.489v-14h3.689Z" transform="translate(-8.943 -3.716)"/><path class="a" d="M93.7,9.889l.095,1.419A3.743,3.743,0,0,1,97.011,9.7c2.365,0,3.689,1.7,3.689,5.014V23.89H97.011V15a2.844,2.844,0,0,0-.378-1.7,1.405,1.405,0,0,0-1.23-.568,1.72,1.72,0,0,0-1.514,1.041V23.89H90.2v-14Z" transform="translate(-9.316 -4.024)"/><path class="a" d="M103.7,16.411a8.488,8.488,0,0,1,1.23-5.108,4.1,4.1,0,0,1,3.5-1.7,3.286,3.286,0,0,1,2.933,1.514l.189-1.23h3.311v14a5.149,5.149,0,0,1-1.514,4.068A6.181,6.181,0,0,1,109,29.372a8.051,8.051,0,0,1-2.46-.473,4.035,4.035,0,0,1-1.892-1.135l1.23-2.554a3.207,3.207,0,0,0,1.324.851,4.973,4.973,0,0,0,1.608.378,2.409,2.409,0,0,0,1.8-.568,2.662,2.662,0,0,0,.568-1.892V22.75a3.123,3.123,0,0,1-2.743,1.324,4.1,4.1,0,0,1-3.5-1.7,8.233,8.233,0,0,1-1.23-4.919Zm3.595.946a6.678,6.678,0,0,0,.473,2.838,1.657,1.657,0,0,0,1.608.851,1.91,1.91,0,0,0,1.7-.851V13.479a1.859,1.859,0,0,0-1.608-.851,1.752,1.752,0,0,0-1.608.851,5.318,5.318,0,0,0-.568,2.838v1.041Z" transform="translate(-10.044 -4.019)"/><path class="a" d="M118.4,23.626V4.8h5.865a6.565,6.565,0,0,1,4.446,1.324A5.047,5.047,0,0,1,130.225,10a4.168,4.168,0,0,1-.662,2.46,3.758,3.758,0,0,1-1.7,1.514,3.86,3.86,0,0,1,1.987,1.419,4.921,4.921,0,0,1,.662,2.743A5.364,5.364,0,0,1,129,22.3a6.181,6.181,0,0,1-4.352,1.419H118.4Zm3.784-10.974h1.987a2.007,2.007,0,0,0,2.27-2.27,2.923,2.923,0,0,0-.473-1.8,2.313,2.313,0,0,0-1.7-.568h-1.987v4.635Zm0,2.743v5.014h2.46a1.658,1.658,0,0,0,1.514-.662,2.561,2.561,0,0,0,.568-1.8c0-1.7-.568-2.554-1.8-2.554Z" transform="translate(-10.838 -3.759)"/><path class="a" d="M139.56,24.169a5.562,5.562,0,0,1-4.352-1.7,6.9,6.9,0,0,1-1.608-4.825V16.506a8.2,8.2,0,0,1,1.419-5.108,4.937,4.937,0,0,1,4.162-1.8,4.643,4.643,0,0,1,3.973,1.7,8.138,8.138,0,0,1,1.324,5.014v1.8h-7.284a4.312,4.312,0,0,0,.662,2.27,2.347,2.347,0,0,0,1.892.757,3.86,3.86,0,0,0,3.027-1.23l1.419,2.176a4.648,4.648,0,0,1-1.987,1.514A6.043,6.043,0,0,1,139.56,24.169Zm-2.27-8.609h3.689v-.378a4.392,4.392,0,0,0-.378-1.892,1.413,1.413,0,0,0-1.324-.662,1.493,1.493,0,0,0-1.419.662A3.637,3.637,0,0,0,137.289,15.56Z" transform="translate(-11.658 -4.019)"/><path class="a" d="M151.581,17.747,153.473,9.8h3.879l-4.635,16.082c-.662,2.365-1.987,3.595-3.879,3.595a4.7,4.7,0,0,1-1.514-.284V26.355h.473a2.506,2.506,0,0,0,1.324-.284,2.114,2.114,0,0,0,.662-1.135l.284-.946L146,9.895h3.973Z" transform="translate(-12.328 -4.029)"/><path class="a" d="M159,16.411a7.556,7.556,0,0,1,1.514-5.014,5.058,5.058,0,0,1,4.162-1.8,4.938,4.938,0,0,1,4.162,1.8,7.389,7.389,0,0,1,1.514,5.014v.851a7.39,7.39,0,0,1-1.514,5.014,5.718,5.718,0,0,1-8.325,0A7.916,7.916,0,0,1,159,17.263Zm3.689.946c0,2.46.662,3.784,1.987,3.784q1.845,0,1.987-3.122V16.506a5.791,5.791,0,0,0-.568-2.838,1.622,1.622,0,0,0-1.514-.946,1.416,1.416,0,0,0-1.419.946,7.121,7.121,0,0,0-.568,2.838v.851Z" transform="translate(-13.03 -4.019)"/><path class="a" d="M176.7,9.889l.095,1.419A3.743,3.743,0,0,1,180.011,9.7c2.365,0,3.689,1.7,3.689,5.014V23.89h-3.689V15a2.844,2.844,0,0,0-.378-1.7,1.405,1.405,0,0,0-1.23-.568,1.72,1.72,0,0,0-1.514,1.041V23.89H173.2v-14Z" transform="translate(-13.796 -4.024)"/><path class="a" d="M186.595,16.093a9.289,9.289,0,0,1,1.135-5.108,3.82,3.82,0,0,1,3.406-1.7,3.16,3.16,0,0,1,2.649,1.419v-7h3.689V23.566h-3.311l-.189-1.419a3.369,3.369,0,0,1-2.933,1.7,3.766,3.766,0,0,1-3.311-1.7,9.6,9.6,0,0,1-1.23-4.919V16.093Zm3.689.946a6.874,6.874,0,0,0,.473,2.933,1.516,1.516,0,0,0,1.514.851,1.665,1.665,0,0,0,1.608-.946V13.444a1.852,1.852,0,0,0-1.608-1.041,1.7,1.7,0,0,0-1.514.851,5.656,5.656,0,0,0-.473,2.933Z" transform="translate(-14.514 -3.7)"/></g><path class="a" d="M196.111,0,189.3,5.96h12.96Z" transform="translate(267.341 42.76)"/><path class="a" d="M6.055,33.46,12.96,27.5H0Z" transform="translate(277.56 41.276)"/></g></svg>