<svg xmlns="http://www.w3.org/2000/svg" width="1179.481" height="712.694" viewBox="0 0 1179.481 712.694">
  <path id="Path_654" data-name="Path 654" d="M652.087,3633.057l142.1-28.42s-1.579-53.683,154.733-30,75.787,99.471,281.045,45.788,232.1-132.628,322.1-72.63,135.786,438.936,137.365,446.83-80.524,162.627-96.313,168.943-15.789,116.839-187.89,58.419-58.419-151.575-217.889-143.68-87.908,112.1-225.273,85.261-315.781-160.322-343.715-205.258,73.139-7.668,6.825-20.3-87.13-33.261-104.134-76.984-30-171.129,85.261-174.287S652.087,3633.057,652.087,3633.057Z" transform="translate(-509.968 -3526.279)" fill="#329ce3"/>
</svg>
